G75*
G70*
%OFA0B0*%
%FSLAX24Y24*%
%IPPOS*%
%LPD*%
%AMOC8*
5,1,8,0,0,1.08239X$1,22.5*
%
%ADD10R,0.0912X0.0912*%
%ADD11C,0.0912*%
%ADD12R,0.1261X0.0631*%
%ADD13R,0.0592X0.0671*%
%ADD14C,0.0880*%
%ADD15R,0.0867X0.0552*%
%ADD16C,0.0760*%
%ADD17R,0.0671X0.0592*%
%ADD18R,0.0552X0.0395*%
%ADD19R,0.2180X0.0840*%
%ADD20R,0.0395X0.0552*%
%ADD21R,0.1030X0.1030*%
%ADD22C,0.1030*%
%ADD23R,0.1143X0.0710*%
%ADD24R,0.0552X0.0631*%
%ADD25OC8,0.0840*%
%ADD26R,0.0474X0.0631*%
%ADD27R,0.0631X0.0474*%
%ADD28C,0.0880*%
%ADD29R,0.1576X0.0631*%
%ADD30R,0.0552X0.0867*%
%ADD31R,0.0867X0.0513*%
%ADD32R,0.0513X0.0867*%
%ADD33R,0.0780X0.1480*%
%ADD34C,0.0990*%
%ADD35C,0.2380*%
%ADD36R,0.0340X0.0880*%
%ADD37C,0.0820*%
%ADD38R,0.0631X0.0552*%
%ADD39C,0.1030*%
%ADD40C,0.0730*%
%ADD41C,0.0720*%
D10*
X002681Y006404D03*
X002181Y025904D03*
X019111Y030974D03*
X023611Y030974D03*
X029111Y030974D03*
X033611Y030974D03*
D11*
X035129Y030974D03*
X030629Y030974D03*
X025129Y030974D03*
X020629Y030974D03*
X002181Y027422D03*
X002681Y007922D03*
D12*
X016737Y021474D03*
X018626Y021474D03*
D13*
X005516Y007974D03*
X004847Y007974D03*
X036347Y009474D03*
X037016Y009474D03*
X037016Y010474D03*
X036347Y010474D03*
X036347Y011474D03*
X037016Y011474D03*
X037016Y015974D03*
X036347Y015974D03*
X036347Y016974D03*
X037016Y016974D03*
X037016Y017974D03*
X036347Y017974D03*
X036347Y022474D03*
X037016Y022474D03*
X037016Y023474D03*
X036347Y023474D03*
X036347Y024474D03*
X037016Y024474D03*
D14*
X037681Y027974D03*
X033681Y027974D03*
X032181Y027974D03*
X028181Y027974D03*
X026681Y027974D03*
X022681Y027974D03*
X021181Y027974D03*
X017181Y027974D03*
D15*
X007181Y013604D03*
X007181Y012344D03*
D16*
X004181Y016634D02*
X004181Y017314D01*
X003181Y017314D02*
X003181Y016634D01*
X010181Y016634D02*
X010181Y017314D01*
X012181Y017314D02*
X012181Y016634D01*
X017681Y015814D02*
X017681Y015134D01*
X018681Y015134D02*
X018681Y015814D01*
X019681Y015814D02*
X019681Y015134D01*
X020681Y015134D02*
X020681Y015814D01*
X021681Y015814D02*
X021681Y015134D01*
X022681Y015134D02*
X022681Y015814D01*
X023681Y015814D02*
X023681Y015134D01*
X024681Y015134D02*
X024681Y015814D01*
X025681Y015814D02*
X025681Y015134D01*
X026681Y015134D02*
X026681Y015814D01*
X027681Y015814D02*
X027681Y015134D01*
X028681Y015134D02*
X028681Y015814D01*
X029681Y015814D02*
X029681Y015134D01*
X030681Y015134D02*
X030681Y015814D01*
X030681Y018134D02*
X030681Y018814D01*
X029681Y018814D02*
X029681Y018134D01*
X028681Y018134D02*
X028681Y018814D01*
X027681Y018814D02*
X027681Y018134D01*
X026681Y018134D02*
X026681Y018814D01*
X025681Y018814D02*
X025681Y018134D01*
X024681Y018134D02*
X024681Y018814D01*
X023681Y018814D02*
X023681Y018134D01*
X022681Y018134D02*
X022681Y018814D01*
X021681Y018814D02*
X021681Y018134D01*
X020681Y018134D02*
X020681Y018814D01*
X019681Y018814D02*
X019681Y018134D01*
X018681Y018134D02*
X018681Y018814D01*
X017681Y018814D02*
X017681Y018134D01*
X012181Y022634D02*
X012181Y023314D01*
X010181Y023314D02*
X010181Y022634D01*
X004181Y022634D02*
X004181Y023314D01*
X003181Y023314D02*
X003181Y022634D01*
D17*
X026181Y024139D03*
X026181Y024808D03*
D18*
X027681Y029119D03*
X027681Y029828D03*
X032181Y029828D03*
X032181Y029119D03*
X033681Y023328D03*
X033681Y022619D03*
X022181Y029119D03*
X022181Y029828D03*
X017681Y029828D03*
X017681Y029119D03*
X017681Y013328D03*
X017681Y012619D03*
D19*
X025781Y012974D03*
X029581Y012974D03*
D20*
X029536Y010974D03*
X028827Y010974D03*
X026536Y010974D03*
X025827Y010974D03*
X008536Y011474D03*
X007827Y011474D03*
D21*
X021181Y002474D03*
X032681Y002474D03*
X039181Y010474D03*
X039181Y016974D03*
X039181Y023474D03*
D22*
X039181Y022096D03*
X039181Y020718D03*
X039181Y015596D03*
X039181Y014218D03*
X039181Y009096D03*
X039181Y007718D03*
X031303Y002474D03*
X029926Y002474D03*
X019803Y002474D03*
X018426Y002474D03*
D23*
X018181Y004923D03*
X019681Y004923D03*
X019681Y006025D03*
X018181Y006025D03*
X009181Y012423D03*
X009181Y013525D03*
X029681Y006025D03*
X031181Y006025D03*
X031181Y004923D03*
X029681Y004923D03*
D24*
X008772Y014974D03*
X007591Y014974D03*
D25*
X022181Y020974D03*
X022181Y021974D03*
X023181Y021974D03*
X024181Y021974D03*
X024181Y020974D03*
X023181Y020974D03*
D26*
X036307Y020541D03*
X037055Y020541D03*
X036681Y021407D03*
X036681Y014907D03*
X036307Y014041D03*
X037055Y014041D03*
X036681Y008407D03*
X036307Y007541D03*
X037055Y007541D03*
D27*
X028114Y007974D03*
X027248Y008348D03*
X027248Y007600D03*
X027248Y006348D03*
X028114Y005974D03*
X027248Y005600D03*
X022614Y005974D03*
X021748Y006348D03*
X021748Y005600D03*
X021748Y007600D03*
X022614Y007974D03*
X021748Y008348D03*
X005614Y006474D03*
X004748Y006848D03*
X004748Y006100D03*
D28*
X006681Y002874D02*
X006681Y002074D01*
X007681Y002074D02*
X007681Y002874D01*
X008681Y002874D02*
X008681Y002074D01*
X009681Y002074D02*
X009681Y002874D01*
X010681Y002874D02*
X010681Y002074D01*
X011681Y002074D02*
X011681Y002874D01*
X002581Y011474D02*
X001781Y011474D01*
X001781Y012474D02*
X002581Y012474D01*
X002581Y013474D02*
X001781Y013474D01*
X001781Y014474D02*
X002581Y014474D01*
D29*
X008000Y027974D03*
X010363Y027974D03*
D30*
X018051Y024974D03*
X019311Y024974D03*
X022551Y012974D03*
X023811Y012974D03*
D31*
X013681Y026029D03*
X013681Y027919D03*
D32*
X012737Y026974D03*
X014626Y026974D03*
D33*
X021481Y024974D03*
X023881Y024974D03*
D34*
X012136Y024974D02*
X011226Y024974D01*
X006136Y024974D02*
X005226Y024974D01*
D35*
X002181Y002474D03*
X002181Y030974D03*
X040681Y030974D03*
X040681Y002474D03*
D36*
X031431Y007264D03*
X030931Y007264D03*
X030431Y007264D03*
X029931Y007264D03*
X029931Y009684D03*
X030431Y009684D03*
X030931Y009684D03*
X031431Y009684D03*
X019931Y009684D03*
X019431Y009684D03*
X018931Y009684D03*
X018431Y009684D03*
X018431Y007264D03*
X018931Y007264D03*
X019431Y007264D03*
X019931Y007264D03*
X028181Y021669D03*
X028681Y021669D03*
X029181Y021669D03*
X029681Y021669D03*
X030181Y021669D03*
X030681Y021669D03*
X031181Y021669D03*
X031681Y021669D03*
X032181Y021654D03*
X032181Y024279D03*
X031681Y024279D03*
X031181Y024279D03*
X030681Y024279D03*
X030181Y024279D03*
X029681Y024279D03*
X029181Y024279D03*
X028681Y024279D03*
X028181Y024279D03*
D37*
X023181Y003974D03*
X023181Y001974D03*
X034681Y001974D03*
X034681Y003974D03*
D38*
X032181Y030883D03*
X032181Y032064D03*
X027681Y032064D03*
X027681Y030883D03*
X022181Y030883D03*
X022181Y032064D03*
X017681Y032064D03*
X017681Y030883D03*
D39*
X013656Y030974D02*
X012706Y030974D01*
X007656Y030974D02*
X006706Y030974D01*
D40*
X010381Y028774D03*
X022981Y029374D03*
X024181Y029274D03*
X024181Y026674D03*
X035281Y021574D03*
X035581Y015974D03*
X035681Y014074D03*
X037781Y011074D03*
X037781Y009874D03*
X035581Y009474D03*
X033881Y007274D03*
X027881Y006974D03*
X021181Y006874D03*
X018981Y010574D03*
X007881Y014174D03*
D41*
X007981Y007974D03*
X015681Y011774D03*
X016381Y011374D03*
X017181Y011374D03*
X018381Y012574D03*
X016281Y017274D03*
X016281Y018474D03*
X021181Y019474D03*
X026181Y023174D03*
X027381Y023174D03*
X029281Y022574D03*
X030981Y023374D03*
X032981Y023274D03*
X034481Y023174D03*
X035581Y023474D03*
X037781Y024174D03*
X037381Y021674D03*
X035181Y018074D03*
X030881Y020074D03*
X030081Y020074D03*
X029281Y020074D03*
X027681Y020074D03*
X026681Y020574D03*
X031281Y020774D03*
X031681Y025374D03*
X031581Y026174D03*
X031281Y027074D03*
X032781Y026674D03*
X032781Y025874D03*
X034481Y027674D03*
X029781Y029674D03*
X028381Y029874D03*
X026981Y030774D03*
X022981Y030174D03*
X021481Y030474D03*
X021481Y029274D03*
X025181Y026674D03*
X032981Y013474D03*
X032981Y012274D03*
X029381Y010274D03*
X025281Y010474D03*
X025181Y011374D03*
X028681Y005374D03*
X028681Y004574D03*
X022381Y005074D03*
X021181Y004974D03*
M02*
