G75*
G70*
%OFA0B0*%
%FSLAX24Y24*%
%IPPOS*%
%LPD*%
%AMOC8*
5,1,8,0,0,1.08239X$1,22.5*
%
%ADD10C,0.0000*%
%ADD11R,0.0832X0.0832*%
%ADD12C,0.0832*%
%ADD13R,0.1181X0.0551*%
%ADD14R,0.0512X0.0591*%
%ADD15C,0.0800*%
%ADD16R,0.0787X0.0472*%
%ADD17C,0.0680*%
%ADD18R,0.0591X0.0512*%
%ADD19R,0.0472X0.0315*%
%ADD20R,0.2100X0.0760*%
%ADD21R,0.0315X0.0472*%
%ADD22R,0.0950X0.0950*%
%ADD23C,0.0950*%
%ADD24R,0.1063X0.0630*%
%ADD25R,0.0472X0.0551*%
%ADD26OC8,0.0760*%
%ADD27R,0.0394X0.0551*%
%ADD28R,0.0551X0.0394*%
%ADD29C,0.0800*%
%ADD30R,0.1496X0.0551*%
%ADD31R,0.0472X0.0787*%
%ADD32R,0.0787X0.0433*%
%ADD33R,0.0433X0.0787*%
%ADD34R,0.0700X0.1400*%
%ADD35C,0.0910*%
%ADD36C,0.2300*%
%ADD37R,0.0260X0.0800*%
%ADD38C,0.0740*%
%ADD39R,0.0551X0.0472*%
%ADD40C,0.0950*%
%ADD41C,0.0280*%
%ADD42C,0.0650*%
%ADD43C,0.0180*%
%ADD44C,0.0640*%
D10*
X000181Y000474D02*
X000181Y032970D01*
X042551Y032970D01*
X042551Y000474D01*
X000181Y000474D01*
D11*
X002681Y006404D03*
X002181Y025904D03*
X019111Y030974D03*
X023611Y030974D03*
X029111Y030974D03*
X033611Y030974D03*
D12*
X035129Y030974D03*
X030629Y030974D03*
X025129Y030974D03*
X020629Y030974D03*
X002181Y027422D03*
X002681Y007922D03*
D13*
X016737Y021474D03*
X018626Y021474D03*
D14*
X005516Y007974D03*
X004847Y007974D03*
X036347Y009474D03*
X037016Y009474D03*
X037016Y010474D03*
X036347Y010474D03*
X036347Y011474D03*
X037016Y011474D03*
X037016Y015974D03*
X036347Y015974D03*
X036347Y016974D03*
X037016Y016974D03*
X037016Y017974D03*
X036347Y017974D03*
X036347Y022474D03*
X037016Y022474D03*
X037016Y023474D03*
X036347Y023474D03*
X036347Y024474D03*
X037016Y024474D03*
D15*
X037681Y027974D03*
X033681Y027974D03*
X032181Y027974D03*
X028181Y027974D03*
X026681Y027974D03*
X022681Y027974D03*
X021181Y027974D03*
X017181Y027974D03*
D16*
X007181Y013604D03*
X007181Y012344D03*
D17*
X004181Y016634D02*
X004181Y017314D01*
X003181Y017314D02*
X003181Y016634D01*
X010181Y016634D02*
X010181Y017314D01*
X012181Y017314D02*
X012181Y016634D01*
X017681Y015814D02*
X017681Y015134D01*
X018681Y015134D02*
X018681Y015814D01*
X019681Y015814D02*
X019681Y015134D01*
X020681Y015134D02*
X020681Y015814D01*
X021681Y015814D02*
X021681Y015134D01*
X022681Y015134D02*
X022681Y015814D01*
X023681Y015814D02*
X023681Y015134D01*
X024681Y015134D02*
X024681Y015814D01*
X025681Y015814D02*
X025681Y015134D01*
X026681Y015134D02*
X026681Y015814D01*
X027681Y015814D02*
X027681Y015134D01*
X028681Y015134D02*
X028681Y015814D01*
X029681Y015814D02*
X029681Y015134D01*
X030681Y015134D02*
X030681Y015814D01*
X030681Y018134D02*
X030681Y018814D01*
X029681Y018814D02*
X029681Y018134D01*
X028681Y018134D02*
X028681Y018814D01*
X027681Y018814D02*
X027681Y018134D01*
X026681Y018134D02*
X026681Y018814D01*
X025681Y018814D02*
X025681Y018134D01*
X024681Y018134D02*
X024681Y018814D01*
X023681Y018814D02*
X023681Y018134D01*
X022681Y018134D02*
X022681Y018814D01*
X021681Y018814D02*
X021681Y018134D01*
X020681Y018134D02*
X020681Y018814D01*
X019681Y018814D02*
X019681Y018134D01*
X018681Y018134D02*
X018681Y018814D01*
X017681Y018814D02*
X017681Y018134D01*
X012181Y022634D02*
X012181Y023314D01*
X010181Y023314D02*
X010181Y022634D01*
X004181Y022634D02*
X004181Y023314D01*
X003181Y023314D02*
X003181Y022634D01*
D18*
X026181Y024139D03*
X026181Y024808D03*
D19*
X027681Y029119D03*
X027681Y029828D03*
X032181Y029828D03*
X032181Y029119D03*
X033681Y023328D03*
X033681Y022619D03*
X022181Y029119D03*
X022181Y029828D03*
X017681Y029828D03*
X017681Y029119D03*
X017681Y013328D03*
X017681Y012619D03*
D20*
X025781Y012974D03*
X029581Y012974D03*
D21*
X029536Y010974D03*
X028827Y010974D03*
X026536Y010974D03*
X025827Y010974D03*
X008536Y011474D03*
X007827Y011474D03*
D22*
X021181Y002474D03*
X032681Y002474D03*
X039181Y010474D03*
X039181Y016974D03*
X039181Y023474D03*
D23*
X039181Y022096D03*
X039181Y020718D03*
X039181Y015596D03*
X039181Y014218D03*
X039181Y009096D03*
X039181Y007718D03*
X031303Y002474D03*
X029926Y002474D03*
X019803Y002474D03*
X018426Y002474D03*
D24*
X018181Y004923D03*
X019681Y004923D03*
X019681Y006025D03*
X018181Y006025D03*
X009181Y012423D03*
X009181Y013525D03*
X029681Y006025D03*
X031181Y006025D03*
X031181Y004923D03*
X029681Y004923D03*
D25*
X008772Y014974D03*
X007591Y014974D03*
D26*
X022181Y020974D03*
X022181Y021974D03*
X023181Y021974D03*
X024181Y021974D03*
X024181Y020974D03*
X023181Y020974D03*
D27*
X036307Y020541D03*
X037055Y020541D03*
X036681Y021407D03*
X036681Y014907D03*
X036307Y014041D03*
X037055Y014041D03*
X036681Y008407D03*
X036307Y007541D03*
X037055Y007541D03*
D28*
X028114Y007974D03*
X027248Y008348D03*
X027248Y007600D03*
X027248Y006348D03*
X028114Y005974D03*
X027248Y005600D03*
X022614Y005974D03*
X021748Y006348D03*
X021748Y005600D03*
X021748Y007600D03*
X022614Y007974D03*
X021748Y008348D03*
X005614Y006474D03*
X004748Y006848D03*
X004748Y006100D03*
D29*
X006681Y002874D02*
X006681Y002074D01*
X007681Y002074D02*
X007681Y002874D01*
X008681Y002874D02*
X008681Y002074D01*
X009681Y002074D02*
X009681Y002874D01*
X010681Y002874D02*
X010681Y002074D01*
X011681Y002074D02*
X011681Y002874D01*
X002581Y011474D02*
X001781Y011474D01*
X001781Y012474D02*
X002581Y012474D01*
X002581Y013474D02*
X001781Y013474D01*
X001781Y014474D02*
X002581Y014474D01*
D30*
X008000Y027974D03*
X010363Y027974D03*
D31*
X018051Y024974D03*
X019311Y024974D03*
X022551Y012974D03*
X023811Y012974D03*
D32*
X013681Y026029D03*
X013681Y027919D03*
D33*
X012737Y026974D03*
X014626Y026974D03*
D34*
X021481Y024974D03*
X023881Y024974D03*
D35*
X012136Y024974D02*
X011226Y024974D01*
X006136Y024974D02*
X005226Y024974D01*
D36*
X002181Y030974D03*
X002181Y002474D03*
X040681Y002474D03*
X040681Y030974D03*
D37*
X032181Y024279D03*
X031681Y024279D03*
X031181Y024279D03*
X030681Y024279D03*
X030181Y024279D03*
X029681Y024279D03*
X029181Y024279D03*
X028681Y024279D03*
X028181Y024279D03*
X028181Y021669D03*
X028681Y021669D03*
X029181Y021669D03*
X029681Y021669D03*
X030181Y021669D03*
X030681Y021669D03*
X031181Y021669D03*
X031681Y021669D03*
X032181Y021654D03*
X031431Y009684D03*
X030931Y009684D03*
X030431Y009684D03*
X029931Y009684D03*
X029931Y007264D03*
X030431Y007264D03*
X030931Y007264D03*
X031431Y007264D03*
X019931Y007264D03*
X019431Y007264D03*
X018931Y007264D03*
X018431Y007264D03*
X018431Y009684D03*
X018931Y009684D03*
X019431Y009684D03*
X019931Y009684D03*
D38*
X023181Y003974D03*
X023181Y001974D03*
X034681Y001974D03*
X034681Y003974D03*
D39*
X032181Y030883D03*
X032181Y032064D03*
X027681Y032064D03*
X027681Y030883D03*
X022181Y030883D03*
X022181Y032064D03*
X017681Y032064D03*
X017681Y030883D03*
D40*
X013656Y030974D02*
X012706Y030974D01*
X007656Y030974D02*
X006706Y030974D01*
D41*
X007181Y030974D02*
X007981Y030974D01*
X007981Y027974D01*
X008000Y027974D01*
X007881Y027974D01*
X006581Y026674D01*
X001681Y026674D01*
X001481Y026474D01*
X001481Y025074D01*
X005581Y025074D01*
X005681Y024974D01*
X005881Y024674D01*
X004181Y022974D01*
X005681Y024974D02*
X006481Y024174D01*
X017181Y024174D01*
X017981Y024974D01*
X018051Y024974D01*
X018581Y025474D02*
X018581Y022074D01*
X017381Y022074D01*
X016781Y021474D01*
X016737Y021474D01*
X016681Y021574D01*
X013581Y021574D01*
X012181Y022974D01*
X012781Y025474D02*
X017481Y025474D01*
X017681Y025674D01*
X018381Y025674D01*
X018581Y025474D01*
X019311Y024974D02*
X019281Y024874D01*
X019281Y022074D01*
X019381Y022074D01*
X022981Y018474D01*
X023681Y018474D01*
X022581Y019574D02*
X021481Y020674D01*
X021481Y021974D01*
X022181Y021974D01*
X022181Y026074D01*
X015581Y026074D01*
X014681Y026974D01*
X014626Y026974D01*
X012781Y026974D02*
X012781Y025474D01*
X012781Y026974D02*
X012737Y026974D01*
X010381Y027974D02*
X010381Y028774D01*
X010363Y027974D02*
X010381Y027974D01*
X010181Y026274D02*
X014531Y030624D01*
X015531Y029624D01*
X017381Y031474D01*
X018581Y031474D01*
X019081Y030974D01*
X019111Y030974D01*
X017881Y029374D02*
X020781Y029374D01*
X021281Y029874D01*
X022181Y029874D01*
X022181Y029828D01*
X022281Y029774D01*
X022581Y029774D01*
X022981Y029374D01*
X023581Y028874D02*
X023431Y028724D01*
X023481Y028674D01*
X027481Y028674D01*
X028181Y027974D01*
X031181Y027974D01*
X031881Y027274D01*
X032181Y027274D01*
X032881Y027274D01*
X033581Y027974D01*
X033681Y027974D01*
X033681Y030974D01*
X033611Y030974D01*
X032181Y029119D02*
X032181Y029074D01*
X027681Y029074D01*
X027681Y029119D01*
X027581Y029174D01*
X027481Y029274D01*
X024181Y029274D01*
X023581Y028874D02*
X023581Y030174D01*
X027181Y030174D01*
X027281Y030274D01*
X027981Y030274D01*
X028181Y030474D01*
X028581Y030474D01*
X029081Y030974D01*
X029111Y030974D01*
X032181Y027274D02*
X032181Y025674D01*
X032281Y025574D01*
X032281Y025074D01*
X039981Y025074D01*
X039981Y022874D01*
X039281Y022174D01*
X039181Y022096D01*
X039181Y022074D01*
X039981Y021274D01*
X039981Y015674D01*
X039281Y015674D01*
X039181Y015596D01*
X039181Y015574D01*
X039981Y014774D01*
X039981Y009174D01*
X039281Y009174D01*
X039181Y009096D01*
X039181Y009074D01*
X038381Y009074D01*
X038381Y007674D01*
X034681Y003974D01*
X028481Y003974D01*
X027031Y005424D01*
X027181Y005574D01*
X027248Y005600D01*
X027031Y005424D02*
X025581Y003974D01*
X025381Y003974D01*
X025381Y004074D01*
X024531Y004924D01*
X027181Y007574D01*
X027248Y007600D01*
X027881Y006974D02*
X027281Y006374D01*
X027248Y006348D01*
X027881Y006974D02*
X028381Y007474D01*
X029181Y007474D01*
X029681Y007974D01*
X030181Y007974D01*
X030381Y007774D01*
X030381Y007274D01*
X030431Y007264D01*
X031381Y007374D02*
X031431Y007264D01*
X031481Y007274D01*
X033881Y007274D01*
X036081Y007274D01*
X036281Y007474D01*
X036307Y007541D01*
X037055Y007541D02*
X037081Y007574D01*
X037081Y007874D01*
X037781Y008574D01*
X037781Y009874D01*
X037781Y011074D02*
X037781Y013474D01*
X034581Y013474D01*
X034581Y018274D01*
X034481Y018274D01*
X033281Y019474D01*
X025681Y019474D01*
X025681Y018474D01*
X025681Y016474D01*
X024481Y016474D01*
X023681Y015674D01*
X023681Y015474D01*
X023681Y015274D01*
X022881Y014474D01*
X022581Y014474D01*
X022581Y012974D01*
X022551Y012974D01*
X022481Y012874D01*
X021581Y011974D01*
X017481Y011974D01*
X017081Y012374D01*
X009281Y012374D01*
X009181Y012423D01*
X009181Y012374D01*
X008581Y012374D01*
X007181Y012374D01*
X007181Y012344D01*
X007081Y012274D01*
X006581Y011774D01*
X002481Y011774D01*
X002181Y011474D01*
X003281Y008574D02*
X002681Y007974D01*
X002681Y007922D01*
X003281Y008574D02*
X004881Y008574D01*
X007781Y011474D01*
X007827Y011474D01*
X008536Y011474D02*
X008581Y011374D01*
X008581Y007774D01*
X005831Y005024D01*
X004781Y006074D01*
X004748Y006100D01*
X004481Y006574D02*
X004381Y006574D01*
X004181Y006374D01*
X004181Y002474D01*
X006681Y002474D01*
X007281Y003574D02*
X007981Y003574D01*
X008681Y002874D01*
X008681Y002474D01*
X007281Y003574D02*
X005831Y005024D01*
X004481Y006574D02*
X004681Y006774D01*
X004748Y006848D01*
X008536Y011474D02*
X008581Y011474D01*
X008581Y012374D01*
X007581Y013674D02*
X007181Y013674D01*
X007181Y013604D01*
X007581Y013674D02*
X007581Y014174D01*
X007881Y014174D01*
X007581Y014174D02*
X007581Y014974D01*
X007591Y014974D01*
X018626Y021474D02*
X018681Y021474D01*
X019281Y022074D01*
X022581Y019574D02*
X025681Y019574D01*
X025681Y019474D01*
X024681Y015474D02*
X024681Y015274D01*
X023881Y014474D01*
X023881Y012974D01*
X023811Y012974D01*
X026536Y010974D02*
X027281Y010974D01*
X027281Y009674D01*
X019981Y009674D01*
X019931Y009684D01*
X018981Y009774D02*
X018981Y010574D01*
X018981Y009774D02*
X018931Y009684D01*
X018981Y007974D02*
X021181Y007974D01*
X021231Y007924D01*
X021381Y008074D01*
X021481Y008074D01*
X021681Y008274D01*
X021748Y008348D01*
X021231Y007924D02*
X020581Y007274D01*
X020581Y007174D01*
X020881Y007174D01*
X021181Y006874D01*
X021681Y006374D01*
X021748Y006348D01*
X020581Y007174D02*
X019981Y007174D01*
X019931Y007264D01*
X018981Y007274D02*
X018931Y007264D01*
X018981Y007274D02*
X018981Y007974D01*
X021748Y007600D02*
X021781Y007574D01*
X022881Y006474D01*
X022981Y006474D01*
X024531Y004924D01*
X025381Y003974D02*
X023181Y003974D01*
X021781Y003974D01*
X021781Y005574D01*
X021748Y005600D01*
X027248Y008348D02*
X027281Y008374D01*
X027281Y008974D01*
X030381Y008974D01*
X031381Y008974D01*
X031381Y007374D01*
X031381Y008974D02*
X031381Y009674D01*
X031431Y009684D01*
X030431Y009684D02*
X030381Y009674D01*
X030381Y008974D01*
X028827Y010974D02*
X027281Y010974D01*
X027281Y009674D02*
X027281Y008974D01*
X035581Y009474D02*
X036347Y009474D01*
X037781Y013474D02*
X037781Y013974D01*
X037081Y013974D01*
X037055Y014041D01*
X036307Y014041D02*
X036281Y014074D01*
X035681Y014074D01*
X035581Y015974D02*
X036347Y015974D01*
X034581Y018274D02*
X035281Y018974D01*
X036981Y018974D01*
X036981Y020474D01*
X037055Y020541D01*
X036307Y020541D02*
X036281Y020574D01*
X035331Y021524D01*
X036281Y022474D01*
X036347Y022474D01*
X035331Y021524D02*
X035281Y021574D01*
X034281Y022574D01*
X033781Y022574D01*
X033681Y022619D01*
X033681Y022574D01*
X032781Y021674D01*
X032181Y021674D01*
X032181Y021654D01*
X033681Y023328D02*
X033681Y023374D01*
X032781Y024274D01*
X032181Y024274D01*
X032181Y024279D01*
X032281Y024374D01*
X032281Y025074D01*
X026181Y024874D02*
X026181Y024808D01*
X026181Y024874D02*
X026081Y024974D01*
X023881Y024974D01*
X023781Y024974D01*
X023131Y025624D01*
X024181Y026674D01*
X023131Y025624D02*
X022681Y026074D01*
X022181Y026074D01*
X021481Y024974D02*
X019311Y024974D01*
X017181Y027974D02*
X016531Y028624D01*
X016581Y028674D01*
X021881Y028674D01*
X022581Y027974D01*
X022681Y027974D01*
X023431Y028724D01*
X023581Y030174D02*
X023581Y030974D01*
X023611Y030974D01*
X017881Y029374D02*
X017681Y029174D01*
X017681Y029119D01*
X016531Y028624D02*
X015531Y029624D01*
X014531Y030624D02*
X014181Y030974D01*
X013181Y030974D01*
X010181Y026274D02*
X002481Y026274D01*
X002181Y025974D01*
X002181Y025904D01*
D42*
X010381Y028774D03*
X022981Y029374D03*
X024181Y029274D03*
X024181Y026674D03*
X035281Y021574D03*
X035581Y015974D03*
X035681Y014074D03*
X037781Y011074D03*
X037781Y009874D03*
X035581Y009474D03*
X033881Y007274D03*
X027881Y006974D03*
X021181Y006874D03*
X018981Y010574D03*
X007881Y014174D03*
D43*
X008781Y013574D02*
X009181Y013574D01*
X009181Y013525D01*
X008781Y013574D02*
X008781Y014974D01*
X008772Y014974D01*
X011981Y012974D02*
X002981Y012974D01*
X002481Y012474D01*
X002181Y012474D01*
X002181Y013474D02*
X002481Y013474D01*
X004481Y015474D01*
X013281Y015474D01*
X016281Y018474D01*
X017081Y017874D02*
X017081Y019474D01*
X021181Y019474D01*
X022181Y020974D02*
X023181Y019974D01*
X027581Y019974D01*
X027681Y020074D01*
X028181Y020674D02*
X026281Y022574D01*
X028681Y022574D01*
X028681Y021669D01*
X028181Y021669D02*
X028181Y021074D01*
X028381Y021074D01*
X028481Y020974D01*
X029881Y020974D01*
X029931Y021024D01*
X029981Y020974D01*
X030081Y020974D01*
X030081Y020074D01*
X030681Y020074D02*
X030681Y021669D01*
X030181Y021669D02*
X030181Y021274D01*
X029931Y021024D01*
X029681Y021669D02*
X029681Y022174D01*
X029781Y022174D01*
X029931Y022324D01*
X029881Y022374D01*
X029881Y023174D01*
X027381Y023174D01*
X027781Y023574D02*
X030381Y023574D01*
X030681Y023874D01*
X030681Y024279D01*
X030181Y024279D02*
X030181Y024674D01*
X030481Y024974D01*
X031281Y024974D01*
X031681Y025374D01*
X031581Y026174D02*
X029681Y026174D01*
X029681Y024279D01*
X029181Y024279D02*
X029181Y027074D01*
X031281Y027074D01*
X032181Y027974D02*
X032681Y027974D01*
X032681Y031274D01*
X032581Y031374D01*
X031081Y031374D01*
X030681Y030974D01*
X030629Y030974D01*
X029781Y031474D02*
X029581Y031674D01*
X027981Y031674D01*
X027681Y031974D01*
X027681Y032064D01*
X027681Y030883D02*
X027681Y030874D01*
X027081Y030874D01*
X026981Y030774D01*
X027681Y029874D02*
X027681Y029828D01*
X027681Y029874D02*
X028381Y029874D01*
X029781Y029674D02*
X029781Y031474D01*
X032181Y031974D02*
X032481Y031674D01*
X034081Y031674D01*
X034481Y031274D01*
X034481Y027674D01*
X035181Y027074D02*
X035181Y030974D01*
X035129Y030974D01*
X034481Y032574D02*
X038381Y028674D01*
X038381Y025874D01*
X032781Y025874D01*
X032781Y026674D02*
X033181Y027074D01*
X035181Y027074D01*
X036781Y027074D01*
X037681Y027974D01*
X037081Y024474D02*
X037016Y024474D01*
X037081Y024474D02*
X037381Y024174D01*
X037781Y024174D01*
X037016Y023474D02*
X039181Y023474D01*
X037016Y022474D02*
X036981Y022474D01*
X036981Y022174D01*
X036931Y022124D01*
X037381Y021674D01*
X036931Y022124D02*
X036681Y021874D01*
X036681Y021407D01*
X034481Y023174D02*
X035381Y024074D01*
X035881Y024074D01*
X036281Y024474D01*
X036347Y024474D01*
X036347Y023474D02*
X035581Y023474D01*
X032981Y023274D02*
X032681Y023574D01*
X031981Y023574D01*
X031681Y023874D01*
X031681Y024279D01*
X031181Y024279D02*
X031181Y023874D01*
X030981Y023674D01*
X030981Y023374D01*
X031381Y022374D02*
X029981Y022374D01*
X029931Y022324D01*
X029281Y022574D02*
X029181Y022574D01*
X029181Y021669D01*
X028681Y020674D02*
X028181Y020674D01*
X028681Y020674D02*
X029281Y020074D01*
X030681Y020074D02*
X030881Y020074D01*
X031181Y020774D02*
X031181Y021669D01*
X031681Y021669D02*
X031681Y022074D01*
X031381Y022374D01*
X031281Y020774D02*
X031181Y020774D01*
X030681Y018474D02*
X032981Y018474D01*
X032981Y013474D01*
X032981Y012274D02*
X030981Y010274D01*
X030981Y009774D01*
X030931Y009684D01*
X029931Y009684D02*
X029881Y009774D01*
X029381Y010274D01*
X029536Y010974D02*
X029581Y010974D01*
X029581Y012974D01*
X028981Y013574D01*
X026681Y013574D01*
X026681Y015474D01*
X027681Y015474D02*
X027681Y015274D01*
X028381Y014574D01*
X029781Y014574D01*
X031481Y012874D01*
X036981Y012874D01*
X036981Y011474D01*
X037016Y011474D01*
X036381Y011474D02*
X036347Y011474D01*
X036381Y011474D02*
X036381Y010474D01*
X036347Y010474D01*
X036281Y010474D01*
X035881Y010074D01*
X035381Y010074D01*
X034981Y009674D01*
X034981Y008874D01*
X036681Y008874D01*
X036681Y008407D01*
X036681Y008874D02*
X036981Y009174D01*
X036981Y009474D01*
X037016Y009474D01*
X037016Y010474D02*
X039181Y010474D01*
X036681Y014907D02*
X036681Y015374D01*
X034981Y015374D01*
X034981Y016174D01*
X035381Y016574D01*
X035881Y016574D01*
X036281Y016974D01*
X036347Y016974D01*
X036381Y016974D01*
X036381Y017974D01*
X036347Y017974D01*
X036981Y017974D02*
X036981Y018574D01*
X035681Y018574D01*
X035181Y018074D01*
X036981Y017974D02*
X037016Y017974D01*
X037016Y016974D02*
X039181Y016974D01*
X037016Y015974D02*
X036981Y015974D01*
X036981Y015674D01*
X036681Y015374D01*
X030281Y008374D02*
X028581Y008374D01*
X028181Y007974D01*
X028114Y007974D01*
X029881Y007174D02*
X029931Y007264D01*
X029881Y007174D02*
X029881Y006074D01*
X029681Y006074D01*
X029681Y006025D01*
X029681Y005974D01*
X028114Y005974D01*
X028681Y005374D02*
X028781Y005474D01*
X030681Y005474D01*
X031181Y005974D01*
X031181Y006025D01*
X031281Y006574D02*
X030981Y006874D01*
X030981Y007174D01*
X030931Y007264D01*
X030881Y007274D01*
X030881Y007774D01*
X030281Y008374D01*
X031281Y006574D02*
X031981Y006574D01*
X031981Y005674D01*
X031781Y005474D01*
X031681Y005474D01*
X031181Y004974D01*
X031181Y004923D01*
X029681Y004874D02*
X029681Y004923D01*
X029681Y004874D02*
X029381Y004574D01*
X028681Y004574D01*
X032681Y002474D02*
X034181Y002474D01*
X034681Y001974D01*
X023181Y001974D02*
X022681Y002474D01*
X021181Y002474D01*
X019803Y002474D02*
X019681Y002474D01*
X019681Y004923D01*
X018181Y004923D02*
X018181Y002474D01*
X018426Y002474D01*
X021181Y004974D02*
X020181Y005974D01*
X019681Y005974D01*
X019681Y006025D01*
X019681Y006074D01*
X019481Y006074D01*
X019481Y007174D01*
X019431Y007264D01*
X018481Y007274D02*
X018431Y007264D01*
X018381Y007174D01*
X018181Y007174D01*
X018181Y006025D01*
X018481Y007274D02*
X018481Y007974D01*
X019281Y008774D01*
X022581Y008774D01*
X022581Y007974D01*
X022614Y007974D01*
X022581Y005974D02*
X022614Y005974D01*
X022581Y005974D02*
X022581Y005074D01*
X022381Y005074D01*
X019431Y009684D02*
X019481Y009774D01*
X019481Y010274D01*
X019681Y010274D01*
X019881Y010474D01*
X025281Y010474D01*
X025781Y010974D02*
X025827Y010974D01*
X025781Y010974D02*
X025781Y012974D01*
X025681Y012974D01*
X025681Y015474D01*
X025181Y011374D02*
X018381Y011374D01*
X018381Y009774D01*
X018431Y009684D01*
X017181Y011374D02*
X011681Y005874D01*
X011681Y002474D01*
X010681Y002474D02*
X010681Y005274D01*
X016381Y010974D01*
X016381Y011374D01*
X015681Y011774D02*
X015681Y010674D01*
X009681Y004674D01*
X009681Y002474D01*
X005614Y006474D02*
X005581Y006474D01*
X005581Y007374D01*
X005181Y007374D01*
X004931Y007624D01*
X004581Y007274D01*
X003481Y007274D01*
X002681Y006474D01*
X002681Y006404D01*
X004881Y007674D02*
X004881Y007974D01*
X004847Y007974D01*
X004881Y007674D02*
X004931Y007624D01*
X005516Y007974D02*
X007981Y007974D01*
X011981Y012974D02*
X016281Y017274D01*
X017081Y017874D02*
X017381Y017574D01*
X017681Y017574D01*
X017681Y015474D01*
X017681Y013328D01*
X017681Y012619D02*
X017681Y012574D01*
X018381Y012574D01*
X023781Y020374D02*
X023181Y020974D01*
X023781Y020374D02*
X026481Y020374D01*
X026681Y020574D01*
X026281Y022574D02*
X023781Y022574D01*
X023181Y021974D01*
X026181Y023174D02*
X026181Y024139D01*
X027781Y024074D02*
X027781Y023574D01*
X027781Y024074D02*
X025181Y026674D01*
X025681Y026974D02*
X025381Y027274D01*
X021881Y027274D01*
X021181Y027974D01*
X022181Y029119D02*
X022181Y029174D01*
X022081Y029274D01*
X021481Y029274D01*
X021481Y030474D02*
X021881Y030874D01*
X022181Y030874D01*
X022181Y030883D01*
X022981Y031174D02*
X022981Y030174D01*
X022981Y031174D02*
X022181Y031974D01*
X022181Y032064D01*
X018181Y032574D02*
X034481Y032574D01*
X032181Y032064D02*
X032181Y031974D01*
X032181Y030883D02*
X032181Y029828D01*
X028681Y027274D02*
X028681Y024279D01*
X028181Y024279D02*
X028181Y026974D01*
X025681Y026974D01*
X026681Y027974D02*
X027381Y027274D01*
X028681Y027274D01*
X018181Y032574D02*
X017681Y032074D01*
X017681Y032064D01*
X017681Y030883D02*
X017681Y029828D01*
D44*
X021481Y029274D03*
X021481Y030474D03*
X022981Y030174D03*
X026981Y030774D03*
X028381Y029874D03*
X029781Y029674D03*
X031281Y027074D03*
X031581Y026174D03*
X031681Y025374D03*
X032781Y025874D03*
X032781Y026674D03*
X034481Y027674D03*
X037781Y024174D03*
X035581Y023474D03*
X034481Y023174D03*
X032981Y023274D03*
X030981Y023374D03*
X029281Y022574D03*
X027381Y023174D03*
X026181Y023174D03*
X026681Y020574D03*
X027681Y020074D03*
X029281Y020074D03*
X030081Y020074D03*
X030881Y020074D03*
X031281Y020774D03*
X035181Y018074D03*
X037381Y021674D03*
X032981Y013474D03*
X032981Y012274D03*
X029381Y010274D03*
X025281Y010474D03*
X025181Y011374D03*
X018381Y012574D03*
X017181Y011374D03*
X016381Y011374D03*
X015681Y011774D03*
X016281Y017274D03*
X016281Y018474D03*
X021181Y019474D03*
X025181Y026674D03*
X007981Y007974D03*
X021181Y004974D03*
X022381Y005074D03*
X028681Y005374D03*
X028681Y004574D03*
M02*
