G75*
G70*
%OFA0B0*%
%FSLAX24Y24*%
%IPPOS*%
%LPD*%
%AMOC8*
5,1,8,0,0,1.08239X$1,22.5*
%
%ADD10R,0.0832X0.0832*%
%ADD11C,0.0832*%
%ADD12C,0.0800*%
%ADD13C,0.0680*%
%ADD14R,0.0950X0.0950*%
%ADD15C,0.0950*%
%ADD16OC8,0.0760*%
%ADD17C,0.0800*%
%ADD18C,0.0910*%
%ADD19C,0.2300*%
%ADD20C,0.0740*%
%ADD21C,0.0950*%
%ADD22C,0.0160*%
%ADD23C,0.0650*%
%ADD24C,0.0280*%
%ADD25C,0.0180*%
%ADD26C,0.0640*%
D10*
X002681Y006404D03*
X002181Y025904D03*
X019111Y030974D03*
X023611Y030974D03*
X029111Y030974D03*
X033611Y030974D03*
D11*
X035129Y030974D03*
X030629Y030974D03*
X025129Y030974D03*
X020629Y030974D03*
X002181Y027422D03*
X002681Y007922D03*
D12*
X017181Y027974D03*
X021181Y027974D03*
X022681Y027974D03*
X026681Y027974D03*
X028181Y027974D03*
X032181Y027974D03*
X033681Y027974D03*
X037681Y027974D03*
D13*
X030681Y018814D02*
X030681Y018134D01*
X029681Y018134D02*
X029681Y018814D01*
X028681Y018814D02*
X028681Y018134D01*
X027681Y018134D02*
X027681Y018814D01*
X026681Y018814D02*
X026681Y018134D01*
X025681Y018134D02*
X025681Y018814D01*
X024681Y018814D02*
X024681Y018134D01*
X023681Y018134D02*
X023681Y018814D01*
X022681Y018814D02*
X022681Y018134D01*
X021681Y018134D02*
X021681Y018814D01*
X020681Y018814D02*
X020681Y018134D01*
X019681Y018134D02*
X019681Y018814D01*
X018681Y018814D02*
X018681Y018134D01*
X017681Y018134D02*
X017681Y018814D01*
X017681Y015814D02*
X017681Y015134D01*
X018681Y015134D02*
X018681Y015814D01*
X019681Y015814D02*
X019681Y015134D01*
X020681Y015134D02*
X020681Y015814D01*
X021681Y015814D02*
X021681Y015134D01*
X022681Y015134D02*
X022681Y015814D01*
X023681Y015814D02*
X023681Y015134D01*
X024681Y015134D02*
X024681Y015814D01*
X025681Y015814D02*
X025681Y015134D01*
X026681Y015134D02*
X026681Y015814D01*
X027681Y015814D02*
X027681Y015134D01*
X028681Y015134D02*
X028681Y015814D01*
X029681Y015814D02*
X029681Y015134D01*
X030681Y015134D02*
X030681Y015814D01*
X012181Y016634D02*
X012181Y017314D01*
X010181Y017314D02*
X010181Y016634D01*
X004181Y016634D02*
X004181Y017314D01*
X003181Y017314D02*
X003181Y016634D01*
X003181Y022634D02*
X003181Y023314D01*
X004181Y023314D02*
X004181Y022634D01*
X010181Y022634D02*
X010181Y023314D01*
X012181Y023314D02*
X012181Y022634D01*
D14*
X021181Y002474D03*
X032681Y002474D03*
X039181Y010474D03*
X039181Y016974D03*
X039181Y023474D03*
D15*
X039181Y022096D03*
X039181Y020718D03*
X039181Y015596D03*
X039181Y014218D03*
X039181Y009096D03*
X039181Y007718D03*
X031303Y002474D03*
X029926Y002474D03*
X019803Y002474D03*
X018426Y002474D03*
D16*
X022181Y020974D03*
X022181Y021974D03*
X023181Y021974D03*
X024181Y021974D03*
X024181Y020974D03*
X023181Y020974D03*
D17*
X002581Y014474D02*
X001781Y014474D01*
X001781Y013474D02*
X002581Y013474D01*
X002581Y012474D02*
X001781Y012474D01*
X001781Y011474D02*
X002581Y011474D01*
X006681Y002874D02*
X006681Y002074D01*
X007681Y002074D02*
X007681Y002874D01*
X008681Y002874D02*
X008681Y002074D01*
X009681Y002074D02*
X009681Y002874D01*
X010681Y002874D02*
X010681Y002074D01*
X011681Y002074D02*
X011681Y002874D01*
D18*
X011226Y024974D02*
X012136Y024974D01*
X006136Y024974D02*
X005226Y024974D01*
D19*
X002181Y030974D03*
X002181Y002474D03*
X040681Y002474D03*
X040681Y030974D03*
D20*
X034681Y003974D03*
X034681Y001974D03*
X023181Y001974D03*
X023181Y003974D03*
D21*
X013656Y030974D02*
X012706Y030974D01*
X007656Y030974D02*
X006706Y030974D01*
D22*
X000361Y032790D02*
X000361Y000654D01*
X042371Y000654D01*
X042371Y032790D01*
X000361Y032790D01*
X000361Y032658D02*
X042371Y032658D01*
X042371Y032499D02*
X000361Y032499D01*
X000361Y032341D02*
X042371Y032341D01*
X042371Y032182D02*
X041288Y032182D01*
X041202Y032232D02*
X040859Y032324D01*
X040504Y032324D01*
X040160Y032232D01*
X039852Y032054D01*
X039601Y031803D01*
X039423Y031495D01*
X039331Y031151D01*
X039331Y030796D01*
X039423Y030453D01*
X039601Y030145D01*
X039852Y029893D01*
X040160Y029716D01*
X040504Y029624D01*
X040859Y029624D01*
X041202Y029716D01*
X041510Y029893D01*
X041762Y030145D01*
X041939Y030453D01*
X042031Y030796D01*
X042031Y031151D01*
X041939Y031495D01*
X041762Y031803D01*
X041510Y032054D01*
X041202Y032232D01*
X041540Y032024D02*
X042371Y032024D01*
X042371Y031865D02*
X041699Y031865D01*
X041817Y031707D02*
X042371Y031707D01*
X042371Y031548D02*
X041909Y031548D01*
X041968Y031390D02*
X042371Y031390D01*
X042371Y031231D02*
X042010Y031231D01*
X042031Y031073D02*
X042371Y031073D01*
X042371Y030914D02*
X042031Y030914D01*
X042021Y030755D02*
X042371Y030755D01*
X042371Y030597D02*
X041978Y030597D01*
X041931Y030438D02*
X042371Y030438D01*
X042371Y030280D02*
X041840Y030280D01*
X041738Y030121D02*
X042371Y030121D01*
X042371Y029963D02*
X041580Y029963D01*
X041356Y029804D02*
X042371Y029804D01*
X042371Y029646D02*
X040941Y029646D01*
X040422Y029646D02*
X030281Y029646D01*
X030281Y029574D02*
X030281Y029773D01*
X030205Y029957D01*
X030065Y030098D01*
X029881Y030174D01*
X029682Y030174D01*
X029498Y030098D01*
X029358Y029957D01*
X029281Y029773D01*
X029281Y029574D01*
X029358Y029390D01*
X029498Y029250D01*
X029682Y029174D01*
X029881Y029174D01*
X029894Y029179D01*
X030111Y028962D01*
X030111Y023427D01*
X030111Y023320D01*
X030153Y023221D01*
X030228Y023145D01*
X027881Y023145D01*
X027881Y023074D02*
X027881Y023273D01*
X027805Y023457D01*
X027665Y023598D01*
X027481Y023674D01*
X027282Y023674D01*
X027098Y023598D01*
X026958Y023457D01*
X026881Y023273D01*
X026881Y023074D01*
X026887Y023061D01*
X026528Y022703D01*
X026453Y022627D01*
X026451Y022624D01*
X026451Y022744D01*
X026465Y022750D01*
X026605Y022890D01*
X026681Y023074D01*
X026681Y023273D01*
X026605Y023457D01*
X026465Y023598D01*
X026281Y023674D01*
X026082Y023674D01*
X025898Y023598D01*
X025758Y023457D01*
X025681Y023273D01*
X025681Y023074D01*
X025758Y022890D01*
X025898Y022750D01*
X025911Y022744D01*
X025911Y022486D01*
X024701Y021275D01*
X024487Y021488D01*
X024741Y021742D01*
X024741Y021954D01*
X024202Y021954D01*
X024202Y021994D01*
X024741Y021994D01*
X024741Y022206D01*
X024413Y022534D01*
X024201Y022534D01*
X024201Y021994D01*
X024161Y021994D01*
X024161Y022534D01*
X023949Y022534D01*
X023696Y022280D01*
X023422Y022554D01*
X022941Y022554D01*
X022681Y022294D01*
X022422Y022554D01*
X021941Y022554D01*
X021601Y022214D01*
X021601Y021733D01*
X021861Y021474D01*
X021601Y021214D01*
X021601Y020733D01*
X021941Y020394D01*
X022422Y020394D01*
X022681Y020654D01*
X022941Y020394D01*
X023422Y020394D01*
X023681Y020654D01*
X023730Y020604D01*
X023470Y020344D01*
X021728Y020344D01*
X021628Y020303D01*
X021553Y020227D01*
X021294Y019968D01*
X021281Y019974D01*
X021082Y019974D01*
X020898Y019898D01*
X020758Y019757D01*
X020681Y019573D01*
X020681Y019374D01*
X020698Y019334D01*
X020682Y019334D01*
X020682Y018474D01*
X021201Y018474D01*
X021681Y018474D01*
X021681Y018473D01*
X021682Y018473D01*
X021682Y017614D01*
X021722Y017614D01*
X021803Y017626D01*
X021881Y017652D01*
X021954Y017689D01*
X022020Y017737D01*
X022078Y017795D01*
X022126Y017861D01*
X022163Y017934D01*
X022181Y017990D01*
X022200Y017934D01*
X022237Y017861D01*
X022285Y017795D01*
X022343Y017737D01*
X022409Y017689D01*
X022482Y017652D01*
X022560Y017626D01*
X022640Y017614D01*
X022681Y017614D01*
X022681Y018473D01*
X022682Y018473D01*
X022682Y017614D01*
X022722Y017614D01*
X022803Y017626D01*
X022881Y017652D01*
X022954Y017689D01*
X023020Y017737D01*
X023078Y017795D01*
X023126Y017861D01*
X023163Y017934D01*
X023181Y017990D01*
X023200Y017934D01*
X023237Y017861D01*
X023285Y017795D01*
X023343Y017737D01*
X023409Y017689D01*
X023482Y017652D01*
X023560Y017626D01*
X023640Y017614D01*
X023681Y017614D01*
X023681Y018473D01*
X023682Y018473D01*
X023682Y017614D01*
X023722Y017614D01*
X023803Y017626D01*
X023881Y017652D01*
X023954Y017689D01*
X024020Y017737D01*
X024078Y017795D01*
X024126Y017861D01*
X024163Y017934D01*
X024181Y017990D01*
X024200Y017934D01*
X024237Y017861D01*
X024285Y017795D01*
X024343Y017737D01*
X024409Y017689D01*
X024482Y017652D01*
X024560Y017626D01*
X024640Y017614D01*
X024681Y017614D01*
X024681Y018473D01*
X024682Y018473D01*
X024682Y017614D01*
X024722Y017614D01*
X024803Y017626D01*
X024881Y017652D01*
X024954Y017689D01*
X025020Y017737D01*
X025078Y017795D01*
X025126Y017861D01*
X025163Y017934D01*
X025170Y017956D01*
X025224Y017828D01*
X025376Y017676D01*
X025574Y017594D01*
X025789Y017594D01*
X025987Y017676D01*
X026139Y017828D01*
X026181Y017930D01*
X026224Y017828D01*
X026376Y017676D01*
X026574Y017594D01*
X026789Y017594D01*
X026987Y017676D01*
X027139Y017828D01*
X027181Y017930D01*
X027224Y017828D01*
X027376Y017676D01*
X027574Y017594D01*
X027789Y017594D01*
X027987Y017676D01*
X028139Y017828D01*
X028181Y017930D01*
X028224Y017828D01*
X028376Y017676D01*
X028574Y017594D01*
X028789Y017594D01*
X028987Y017676D01*
X029139Y017828D01*
X029181Y017930D01*
X029224Y017828D01*
X029376Y017676D01*
X029574Y017594D01*
X029789Y017594D01*
X029987Y017676D01*
X030139Y017828D01*
X030181Y017930D01*
X030224Y017828D01*
X030376Y017676D01*
X030574Y017594D01*
X030789Y017594D01*
X030987Y017676D01*
X031139Y017828D01*
X031221Y018026D01*
X031221Y018921D01*
X031139Y019120D01*
X030987Y019271D01*
X030789Y019354D01*
X030574Y019354D01*
X030376Y019271D01*
X030224Y019120D01*
X030181Y019018D01*
X030139Y019120D01*
X029987Y019271D01*
X029951Y019286D01*
X029951Y019562D01*
X029969Y019579D01*
X029982Y019574D01*
X030181Y019574D01*
X030365Y019650D01*
X030481Y019767D01*
X030598Y019650D01*
X030782Y019574D01*
X030981Y019574D01*
X031165Y019650D01*
X031305Y019790D01*
X031311Y019805D01*
X031311Y017244D01*
X022635Y017244D01*
X022528Y017244D01*
X022428Y017203D01*
X021580Y016354D01*
X021574Y016354D01*
X021376Y016271D01*
X021224Y016120D01*
X021181Y016018D01*
X021139Y016120D01*
X020987Y016271D01*
X020789Y016354D01*
X020783Y016354D01*
X020234Y016903D01*
X020135Y016944D01*
X020028Y016944D01*
X016658Y016944D01*
X016705Y016990D01*
X016711Y017004D01*
X018735Y017004D01*
X018834Y017045D01*
X018910Y017121D01*
X022347Y017121D01*
X022188Y016962D02*
X016677Y016962D01*
X016413Y016787D02*
X008094Y008468D01*
X008081Y008474D01*
X007882Y008474D01*
X007698Y008398D01*
X007558Y008257D01*
X007481Y008073D01*
X007481Y007874D01*
X007558Y007690D01*
X007698Y007550D01*
X007882Y007474D01*
X008081Y007474D01*
X008265Y007550D01*
X008405Y007690D01*
X008481Y007874D01*
X008481Y008073D01*
X008476Y008086D01*
X016793Y016404D01*
X019970Y016404D01*
X020239Y016135D01*
X020224Y016120D01*
X020181Y016018D01*
X020139Y016120D01*
X019987Y016271D01*
X019789Y016354D01*
X019574Y016354D01*
X019376Y016271D01*
X019224Y016120D01*
X019181Y016018D01*
X019139Y016120D01*
X018987Y016271D01*
X018789Y016354D01*
X018574Y016354D01*
X018376Y016271D01*
X018224Y016120D01*
X018181Y016018D01*
X018139Y016120D01*
X017987Y016271D01*
X017789Y016354D01*
X017574Y016354D01*
X017376Y016271D01*
X017224Y016120D01*
X017141Y015921D01*
X017141Y015026D01*
X017224Y014828D01*
X017376Y014676D01*
X017574Y014594D01*
X017789Y014594D01*
X017987Y014676D01*
X018139Y014828D01*
X018181Y014930D01*
X018224Y014828D01*
X018376Y014676D01*
X018411Y014661D01*
X018411Y014544D01*
X018235Y014544D01*
X018128Y014544D01*
X018028Y014503D01*
X015794Y012268D01*
X015781Y012274D01*
X015582Y012274D01*
X015398Y012198D01*
X015258Y012057D01*
X015181Y011873D01*
X015181Y011674D01*
X015258Y011490D01*
X015398Y011350D01*
X015582Y011274D01*
X015781Y011274D01*
X015881Y011315D01*
X015881Y011274D01*
X015958Y011090D01*
X016098Y010950D01*
X016282Y010874D01*
X016481Y010874D01*
X016665Y010950D01*
X016781Y011067D01*
X016898Y010950D01*
X017082Y010874D01*
X017281Y010874D01*
X017465Y010950D01*
X017605Y011090D01*
X017681Y011274D01*
X017681Y011473D01*
X017676Y011486D01*
X018269Y012079D01*
X018282Y012074D01*
X018481Y012074D01*
X018665Y012150D01*
X018805Y012290D01*
X018881Y012474D01*
X018881Y012673D01*
X018805Y012857D01*
X018758Y012904D01*
X019735Y012904D01*
X019834Y012945D01*
X019910Y013021D01*
X019951Y013120D01*
X019951Y013227D01*
X019951Y014661D01*
X019987Y014676D01*
X020139Y014828D01*
X020181Y014930D01*
X020224Y014828D01*
X020376Y014676D01*
X020574Y014594D01*
X020789Y014594D01*
X020987Y014676D01*
X021139Y014828D01*
X021181Y014930D01*
X021224Y014828D01*
X021376Y014676D01*
X021574Y014594D01*
X021789Y014594D01*
X021987Y014676D01*
X022139Y014828D01*
X022181Y014930D01*
X022224Y014828D01*
X022376Y014676D01*
X022574Y014594D01*
X022789Y014594D01*
X022987Y014676D01*
X023139Y014828D01*
X023181Y014930D01*
X023224Y014828D01*
X023376Y014676D01*
X023574Y014594D01*
X023789Y014594D01*
X023987Y014676D01*
X024139Y014828D01*
X024192Y014956D01*
X024200Y014934D01*
X024237Y014861D01*
X024285Y014795D01*
X024343Y014737D01*
X024409Y014689D01*
X024482Y014652D01*
X024560Y014626D01*
X024640Y014614D01*
X024681Y014614D01*
X024681Y015473D01*
X024682Y015473D01*
X024682Y014614D01*
X024722Y014614D01*
X024803Y014626D01*
X024881Y014652D01*
X024954Y014689D01*
X025020Y014737D01*
X025078Y014795D01*
X025126Y014861D01*
X025163Y014934D01*
X025170Y014956D01*
X025224Y014828D01*
X025376Y014676D01*
X025574Y014594D01*
X025789Y014594D01*
X025987Y014676D01*
X026139Y014828D01*
X026181Y014930D01*
X026224Y014828D01*
X026376Y014676D01*
X026574Y014594D01*
X026789Y014594D01*
X026987Y014676D01*
X027139Y014828D01*
X027181Y014930D01*
X027224Y014828D01*
X027376Y014676D01*
X027574Y014594D01*
X027789Y014594D01*
X027987Y014676D01*
X028139Y014828D01*
X028181Y014930D01*
X028224Y014828D01*
X028239Y014813D01*
X025294Y011868D01*
X025281Y011874D01*
X025082Y011874D01*
X024898Y011798D01*
X024758Y011657D01*
X024681Y011473D01*
X024681Y011274D01*
X024758Y011090D01*
X024898Y010950D01*
X025011Y010903D01*
X024998Y010898D01*
X024858Y010757D01*
X024781Y010573D01*
X024781Y010374D01*
X024858Y010190D01*
X024998Y010050D01*
X025182Y009974D01*
X025381Y009974D01*
X025565Y010050D01*
X025705Y010190D01*
X025781Y010374D01*
X025781Y010573D01*
X025776Y010586D01*
X029783Y014594D01*
X029789Y014594D01*
X029987Y014676D01*
X030139Y014828D01*
X030181Y014930D01*
X030224Y014828D01*
X030376Y014676D01*
X030411Y014661D01*
X030411Y011685D01*
X029494Y010768D01*
X029481Y010774D01*
X029282Y010774D01*
X029098Y010698D01*
X028958Y010557D01*
X028881Y010373D01*
X028881Y010174D01*
X028958Y009990D01*
X029098Y009850D01*
X029282Y009774D01*
X029481Y009774D01*
X029665Y009850D01*
X029805Y009990D01*
X029881Y010174D01*
X029881Y010373D01*
X029876Y010386D01*
X030834Y011345D01*
X030834Y011345D01*
X030910Y011421D01*
X030951Y011520D01*
X030951Y014661D01*
X030987Y014676D01*
X031139Y014828D01*
X031221Y015026D01*
X031221Y015921D01*
X031139Y016120D01*
X030987Y016271D01*
X030789Y016354D01*
X030574Y016354D01*
X030376Y016271D01*
X030224Y016120D01*
X030181Y016018D01*
X030139Y016120D01*
X029987Y016271D01*
X029789Y016354D01*
X029574Y016354D01*
X029376Y016271D01*
X029224Y016120D01*
X029181Y016018D01*
X029139Y016120D01*
X028987Y016271D01*
X028789Y016354D01*
X028574Y016354D01*
X028376Y016271D01*
X028224Y016120D01*
X028181Y016018D01*
X028139Y016120D01*
X027987Y016271D01*
X027789Y016354D01*
X027574Y016354D01*
X027376Y016271D01*
X027224Y016120D01*
X027181Y016018D01*
X027139Y016120D01*
X026987Y016271D01*
X026789Y016354D01*
X026574Y016354D01*
X026376Y016271D01*
X026224Y016120D01*
X026181Y016018D01*
X026139Y016120D01*
X025987Y016271D01*
X025789Y016354D01*
X025574Y016354D01*
X025376Y016271D01*
X025224Y016120D01*
X025170Y015991D01*
X025163Y016013D01*
X025126Y016086D01*
X025078Y016152D01*
X025020Y016210D01*
X024954Y016258D01*
X024881Y016296D01*
X024803Y016321D01*
X024722Y016334D01*
X024682Y016334D01*
X024682Y015474D01*
X024681Y015474D01*
X024681Y016334D01*
X024640Y016334D01*
X024560Y016321D01*
X024482Y016296D01*
X024409Y016258D01*
X024343Y016210D01*
X024285Y016152D01*
X024237Y016086D01*
X024200Y016013D01*
X024192Y015991D01*
X024139Y016120D01*
X023987Y016271D01*
X023789Y016354D01*
X023574Y016354D01*
X023376Y016271D01*
X023224Y016120D01*
X023181Y016018D01*
X023139Y016120D01*
X023124Y016135D01*
X023393Y016404D01*
X033835Y016404D01*
X033934Y016445D01*
X034010Y016521D01*
X035069Y017579D01*
X035082Y017574D01*
X035281Y017574D01*
X035465Y017650D01*
X035605Y017790D01*
X035681Y017974D01*
X035681Y018173D01*
X035605Y018357D01*
X035465Y018498D01*
X035281Y018574D01*
X035082Y018574D01*
X034898Y018498D01*
X034758Y018357D01*
X034681Y018173D01*
X034681Y017974D01*
X034687Y017961D01*
X033670Y016944D01*
X031851Y016944D01*
X031851Y017027D01*
X031851Y019862D01*
X034710Y022721D01*
X034714Y022729D01*
X034765Y022750D01*
X034905Y022890D01*
X034981Y023074D01*
X034981Y023273D01*
X034905Y023457D01*
X034765Y023598D01*
X034710Y023620D01*
X034710Y023621D01*
X035101Y023621D01*
X035081Y023573D02*
X035081Y023374D01*
X035158Y023190D01*
X035298Y023050D01*
X035482Y022974D01*
X035681Y022974D01*
X035694Y022979D01*
X036103Y022571D01*
X036178Y022495D01*
X036887Y021786D01*
X036881Y021773D01*
X036881Y021574D01*
X036958Y021390D01*
X037098Y021250D01*
X037282Y021174D01*
X037481Y021174D01*
X037665Y021250D01*
X037805Y021390D01*
X037881Y021574D01*
X037881Y021773D01*
X037805Y021957D01*
X037665Y022098D01*
X037481Y022174D01*
X037282Y022174D01*
X037269Y022168D01*
X036713Y022724D01*
X037669Y023679D01*
X037682Y023674D01*
X037881Y023674D01*
X038065Y023750D01*
X038205Y023890D01*
X038281Y024074D01*
X038281Y024273D01*
X038205Y024457D01*
X038065Y024598D01*
X037881Y024674D01*
X037682Y024674D01*
X037498Y024598D01*
X037358Y024457D01*
X037281Y024273D01*
X037281Y024074D01*
X037287Y024061D01*
X036331Y023105D01*
X036076Y023361D01*
X036081Y023374D01*
X036081Y023573D01*
X036005Y023757D01*
X035865Y023898D01*
X035681Y023974D01*
X035482Y023974D01*
X035298Y023898D01*
X035158Y023757D01*
X035081Y023573D01*
X035081Y023462D02*
X034900Y023462D01*
X034969Y023304D02*
X035111Y023304D01*
X035203Y023145D02*
X034981Y023145D01*
X034945Y022987D02*
X035450Y022987D01*
X035845Y022828D02*
X034843Y022828D01*
X034659Y022670D02*
X036004Y022670D01*
X036162Y022511D02*
X034501Y022511D01*
X034342Y022353D02*
X036321Y022353D01*
X036479Y022194D02*
X034184Y022194D01*
X034025Y022036D02*
X036638Y022036D01*
X036796Y021877D02*
X033867Y021877D01*
X033708Y021719D02*
X036881Y021719D01*
X036887Y021560D02*
X033549Y021560D01*
X033391Y021401D02*
X036953Y021401D01*
X037115Y021243D02*
X033232Y021243D01*
X033074Y021084D02*
X038637Y021084D01*
X038636Y021082D02*
X038593Y021008D01*
X038560Y020929D01*
X038538Y020846D01*
X038526Y020761D01*
X038526Y020756D01*
X039143Y020756D01*
X039143Y020680D01*
X038526Y020680D01*
X038526Y020675D01*
X038538Y020590D01*
X038560Y020507D01*
X038593Y020427D01*
X038636Y020353D01*
X038688Y020285D01*
X038749Y020224D01*
X038817Y020172D01*
X038891Y020129D01*
X038970Y020096D01*
X039053Y020074D01*
X039138Y020063D01*
X039143Y020063D01*
X039143Y020679D01*
X039220Y020679D01*
X039220Y020063D01*
X039224Y020063D01*
X039309Y020074D01*
X039392Y020096D01*
X039472Y020129D01*
X039546Y020172D01*
X039614Y020224D01*
X039675Y020285D01*
X039727Y020353D01*
X039770Y020427D01*
X039803Y020507D01*
X039825Y020590D01*
X039836Y020675D01*
X039836Y020680D01*
X039220Y020680D01*
X039220Y020756D01*
X039836Y020756D01*
X039836Y020761D01*
X039825Y020846D01*
X039803Y020929D01*
X039770Y021008D01*
X039727Y021082D01*
X039675Y021151D01*
X039614Y021211D01*
X039546Y021264D01*
X039472Y021306D01*
X039392Y021339D01*
X039309Y021362D01*
X039224Y021373D01*
X039220Y021373D01*
X039220Y020756D01*
X039143Y020756D01*
X039143Y021373D01*
X039138Y021373D01*
X039053Y021362D01*
X038970Y021339D01*
X038891Y021306D01*
X038817Y021264D01*
X038749Y021211D01*
X038688Y021151D01*
X038636Y021082D01*
X038559Y020926D02*
X032915Y020926D01*
X032757Y020767D02*
X038527Y020767D01*
X038535Y020609D02*
X032598Y020609D01*
X032440Y020450D02*
X038583Y020450D01*
X038683Y020292D02*
X032281Y020292D01*
X032123Y020133D02*
X038884Y020133D01*
X039143Y020133D02*
X039220Y020133D01*
X039220Y020292D02*
X039143Y020292D01*
X039143Y020450D02*
X039220Y020450D01*
X039220Y020609D02*
X039143Y020609D01*
X039143Y020767D02*
X039220Y020767D01*
X039220Y020926D02*
X039143Y020926D01*
X039143Y021084D02*
X039220Y021084D01*
X039220Y021243D02*
X039143Y021243D01*
X039047Y021421D02*
X039316Y021421D01*
X039564Y021524D01*
X039754Y021713D01*
X039856Y021961D01*
X039856Y022230D01*
X039754Y022478D01*
X039564Y022668D01*
X039316Y022771D01*
X039047Y022771D01*
X038799Y022668D01*
X038609Y022478D01*
X038506Y022230D01*
X038506Y021961D01*
X038609Y021713D01*
X038799Y021524D01*
X039047Y021421D01*
X038790Y021243D02*
X037648Y021243D01*
X037810Y021401D02*
X042371Y021401D01*
X042371Y021243D02*
X039573Y021243D01*
X039726Y021084D02*
X042371Y021084D01*
X042371Y020926D02*
X039804Y020926D01*
X039836Y020767D02*
X042371Y020767D01*
X042371Y020609D02*
X039828Y020609D01*
X039779Y020450D02*
X042371Y020450D01*
X042371Y020292D02*
X039680Y020292D01*
X039479Y020133D02*
X042371Y020133D01*
X042371Y019975D02*
X031964Y019975D01*
X031851Y019816D02*
X042371Y019816D01*
X042371Y019657D02*
X031851Y019657D01*
X031851Y019499D02*
X042371Y019499D01*
X042371Y019340D02*
X031851Y019340D01*
X031851Y019182D02*
X042371Y019182D01*
X042371Y019023D02*
X031851Y019023D01*
X031851Y018865D02*
X042371Y018865D01*
X042371Y018706D02*
X031851Y018706D01*
X031851Y018548D02*
X035019Y018548D01*
X034790Y018389D02*
X031851Y018389D01*
X031851Y018231D02*
X034705Y018231D01*
X034681Y018072D02*
X031851Y018072D01*
X031851Y017913D02*
X034639Y017913D01*
X034481Y017755D02*
X031851Y017755D01*
X031851Y017596D02*
X034322Y017596D01*
X034164Y017438D02*
X031851Y017438D01*
X031851Y017279D02*
X034005Y017279D01*
X033847Y017121D02*
X031851Y017121D01*
X031851Y016962D02*
X033688Y016962D01*
X034135Y016645D02*
X038506Y016645D01*
X038506Y016487D02*
X033976Y016487D01*
X034293Y016804D02*
X038506Y016804D01*
X038506Y016962D02*
X034452Y016962D01*
X034610Y017121D02*
X038506Y017121D01*
X038506Y017279D02*
X034769Y017279D01*
X034927Y017438D02*
X038506Y017438D01*
X038506Y017532D02*
X038506Y016416D01*
X038624Y016299D01*
X039739Y016299D01*
X039856Y016416D01*
X039856Y017532D01*
X039739Y017649D01*
X038624Y017649D01*
X038506Y017532D01*
X038571Y017596D02*
X035336Y017596D01*
X035570Y017755D02*
X042371Y017755D01*
X042371Y017913D02*
X035656Y017913D01*
X035681Y018072D02*
X042371Y018072D01*
X042371Y018231D02*
X035658Y018231D01*
X035573Y018389D02*
X042371Y018389D01*
X042371Y018548D02*
X035344Y018548D01*
X038594Y016328D02*
X030851Y016328D01*
X031089Y016169D02*
X038803Y016169D01*
X038799Y016168D02*
X038609Y015978D01*
X038506Y015730D01*
X038506Y015461D01*
X038609Y015213D01*
X038799Y015024D01*
X039047Y014921D01*
X039316Y014921D01*
X039564Y015024D01*
X039754Y015213D01*
X039856Y015461D01*
X039856Y015730D01*
X039754Y015978D01*
X039564Y016168D01*
X039316Y016271D01*
X039047Y016271D01*
X038799Y016168D01*
X038642Y016011D02*
X031184Y016011D01*
X031221Y015852D02*
X038557Y015852D01*
X038506Y015694D02*
X031221Y015694D01*
X031221Y015535D02*
X038506Y015535D01*
X038541Y015377D02*
X031221Y015377D01*
X031221Y015218D02*
X038607Y015218D01*
X038763Y015060D02*
X031221Y015060D01*
X031170Y014901D02*
X042371Y014901D01*
X042371Y014743D02*
X039573Y014743D01*
X039546Y014764D02*
X039472Y014806D01*
X039392Y014839D01*
X039309Y014862D01*
X039224Y014873D01*
X039220Y014873D01*
X039220Y014256D01*
X039836Y014256D01*
X039836Y014261D01*
X039825Y014346D01*
X039803Y014429D01*
X039770Y014508D01*
X039727Y014582D01*
X039675Y014651D01*
X039614Y014711D01*
X039546Y014764D01*
X039726Y014584D02*
X042371Y014584D01*
X042371Y014426D02*
X039804Y014426D01*
X039836Y014267D02*
X042371Y014267D01*
X042371Y014108D02*
X039828Y014108D01*
X039825Y014090D02*
X039836Y014175D01*
X039836Y014180D01*
X039220Y014180D01*
X039220Y014256D01*
X039143Y014256D01*
X039143Y014180D01*
X038526Y014180D01*
X038526Y014175D01*
X038538Y014090D01*
X038560Y014007D01*
X038593Y013927D01*
X038636Y013853D01*
X038688Y013785D01*
X038749Y013724D01*
X038817Y013672D01*
X038891Y013629D01*
X038970Y013596D01*
X039053Y013574D01*
X039138Y013563D01*
X039143Y013563D01*
X039143Y014179D01*
X039220Y014179D01*
X039220Y013563D01*
X039224Y013563D01*
X039309Y013574D01*
X039392Y013596D01*
X039472Y013629D01*
X039546Y013672D01*
X039614Y013724D01*
X039675Y013785D01*
X039727Y013853D01*
X039770Y013927D01*
X039803Y014007D01*
X039825Y014090D01*
X039779Y013950D02*
X042371Y013950D01*
X042371Y013791D02*
X039680Y013791D01*
X039478Y013633D02*
X042371Y013633D01*
X042371Y013474D02*
X033481Y013474D01*
X033481Y013573D02*
X033405Y013757D01*
X033265Y013898D01*
X033081Y013974D01*
X032882Y013974D01*
X032698Y013898D01*
X032558Y013757D01*
X032481Y013573D01*
X032481Y013374D01*
X032558Y013190D01*
X032698Y013050D01*
X032711Y013044D01*
X032711Y012703D01*
X032698Y012698D01*
X032558Y012557D01*
X032481Y012373D01*
X032481Y012174D01*
X032558Y011990D01*
X032698Y011850D01*
X032882Y011774D01*
X033081Y011774D01*
X033265Y011850D01*
X033405Y011990D01*
X033481Y012174D01*
X033481Y012373D01*
X033405Y012557D01*
X033265Y012698D01*
X033251Y012703D01*
X033251Y013044D01*
X033265Y013050D01*
X033405Y013190D01*
X033481Y013374D01*
X033481Y013573D01*
X033457Y013633D02*
X038885Y013633D01*
X038683Y013791D02*
X033371Y013791D01*
X033138Y013950D02*
X038583Y013950D01*
X038535Y014108D02*
X030951Y014108D01*
X030951Y013950D02*
X032825Y013950D01*
X032592Y013791D02*
X030951Y013791D01*
X030951Y013633D02*
X032506Y013633D01*
X032481Y013474D02*
X030951Y013474D01*
X030951Y013316D02*
X032506Y013316D01*
X032591Y013157D02*
X030951Y013157D01*
X030951Y012999D02*
X032711Y012999D01*
X032711Y012840D02*
X030951Y012840D01*
X030951Y012682D02*
X032682Y012682D01*
X032544Y012523D02*
X030951Y012523D01*
X030951Y012364D02*
X032481Y012364D01*
X032481Y012206D02*
X030951Y012206D01*
X030951Y012047D02*
X032534Y012047D01*
X032659Y011889D02*
X030951Y011889D01*
X030951Y011730D02*
X042371Y011730D01*
X042371Y011572D02*
X037899Y011572D01*
X037882Y011579D02*
X037681Y011579D01*
X037495Y011502D01*
X037353Y011360D01*
X037276Y011174D01*
X037276Y010973D01*
X037353Y010788D01*
X037461Y010680D01*
X037461Y010268D01*
X037353Y010160D01*
X037276Y009974D01*
X037276Y009773D01*
X037353Y009588D01*
X037495Y009446D01*
X037681Y009369D01*
X037882Y009369D01*
X038067Y009446D01*
X038209Y009588D01*
X038286Y009773D01*
X038286Y009974D01*
X038209Y010160D01*
X038101Y010268D01*
X038101Y010680D01*
X038209Y010788D01*
X038286Y010973D01*
X038286Y011174D01*
X038209Y011360D01*
X038067Y011502D01*
X037882Y011579D01*
X037664Y011572D02*
X030951Y011572D01*
X030903Y011413D02*
X037407Y011413D01*
X037310Y011255D02*
X030744Y011255D01*
X030586Y011096D02*
X037276Y011096D01*
X037291Y010938D02*
X030427Y010938D01*
X030269Y010779D02*
X037362Y010779D01*
X037461Y010620D02*
X030110Y010620D01*
X029951Y010462D02*
X037461Y010462D01*
X037461Y010303D02*
X029881Y010303D01*
X029869Y010145D02*
X037347Y010145D01*
X037281Y009986D02*
X029801Y009986D01*
X029611Y009828D02*
X037276Y009828D01*
X037319Y009669D02*
X010059Y009669D01*
X010217Y009828D02*
X029151Y009828D01*
X028962Y009986D02*
X025411Y009986D01*
X025151Y009986D02*
X010376Y009986D01*
X010534Y010145D02*
X024903Y010145D01*
X024811Y010303D02*
X010693Y010303D01*
X010851Y010462D02*
X024781Y010462D01*
X024801Y010620D02*
X011010Y010620D01*
X011169Y010779D02*
X024880Y010779D01*
X024928Y010938D02*
X017435Y010938D01*
X017608Y011096D02*
X024755Y011096D01*
X024689Y011255D02*
X017673Y011255D01*
X017681Y011413D02*
X024681Y011413D01*
X024722Y011572D02*
X017761Y011572D01*
X017920Y011730D02*
X024831Y011730D01*
X025315Y011889D02*
X018078Y011889D01*
X018237Y012047D02*
X025473Y012047D01*
X025632Y012206D02*
X018721Y012206D01*
X018836Y012364D02*
X025790Y012364D01*
X025949Y012523D02*
X018881Y012523D01*
X018878Y012682D02*
X026107Y012682D01*
X026266Y012840D02*
X018812Y012840D01*
X019888Y012999D02*
X026425Y012999D01*
X026583Y013157D02*
X019951Y013157D01*
X019951Y013316D02*
X026742Y013316D01*
X026900Y013474D02*
X019951Y013474D01*
X019951Y013633D02*
X027059Y013633D01*
X027217Y013791D02*
X019951Y013791D01*
X019951Y013950D02*
X027376Y013950D01*
X027534Y014108D02*
X019951Y014108D01*
X019951Y014267D02*
X027693Y014267D01*
X027851Y014426D02*
X019951Y014426D01*
X019951Y014584D02*
X028010Y014584D01*
X028054Y014743D02*
X028169Y014743D01*
X028170Y014901D02*
X028193Y014901D01*
X027309Y014743D02*
X027054Y014743D01*
X027170Y014901D02*
X027193Y014901D01*
X026309Y014743D02*
X026054Y014743D01*
X026170Y014901D02*
X026193Y014901D01*
X025309Y014743D02*
X025026Y014743D01*
X025146Y014901D02*
X025193Y014901D01*
X024682Y014901D02*
X024681Y014901D01*
X024681Y014743D02*
X024682Y014743D01*
X024681Y015060D02*
X024682Y015060D01*
X024681Y015218D02*
X024682Y015218D01*
X024681Y015377D02*
X024682Y015377D01*
X024681Y015535D02*
X024682Y015535D01*
X024681Y015694D02*
X024682Y015694D01*
X024681Y015852D02*
X024682Y015852D01*
X024681Y016011D02*
X024682Y016011D01*
X024681Y016169D02*
X024682Y016169D01*
X024681Y016328D02*
X024682Y016328D01*
X024758Y016328D02*
X025512Y016328D01*
X025274Y016169D02*
X025061Y016169D01*
X025164Y016011D02*
X025179Y016011D01*
X024605Y016328D02*
X023851Y016328D01*
X024089Y016169D02*
X024302Y016169D01*
X024199Y016011D02*
X024184Y016011D01*
X023512Y016328D02*
X023318Y016328D01*
X023274Y016169D02*
X023159Y016169D01*
X022030Y016804D02*
X020333Y016804D01*
X020492Y016645D02*
X021871Y016645D01*
X021712Y016487D02*
X020650Y016487D01*
X020851Y016328D02*
X021512Y016328D01*
X021274Y016169D02*
X021089Y016169D01*
X020204Y016169D02*
X020089Y016169D01*
X020045Y016328D02*
X019851Y016328D01*
X019512Y016328D02*
X018851Y016328D01*
X019089Y016169D02*
X019274Y016169D01*
X018512Y016328D02*
X017851Y016328D01*
X018089Y016169D02*
X018274Y016169D01*
X017512Y016328D02*
X016718Y016328D01*
X016559Y016169D02*
X017274Y016169D01*
X017179Y016011D02*
X016400Y016011D01*
X016242Y015852D02*
X017141Y015852D01*
X017141Y015694D02*
X016083Y015694D01*
X015925Y015535D02*
X017141Y015535D01*
X017141Y015377D02*
X015766Y015377D01*
X015608Y015218D02*
X017141Y015218D01*
X017141Y015060D02*
X015449Y015060D01*
X015291Y014901D02*
X017193Y014901D01*
X017309Y014743D02*
X015132Y014743D01*
X014974Y014584D02*
X018411Y014584D01*
X018309Y014743D02*
X018054Y014743D01*
X018169Y014901D02*
X018193Y014901D01*
X017951Y014426D02*
X014815Y014426D01*
X014656Y014267D02*
X017793Y014267D01*
X017634Y014108D02*
X014498Y014108D01*
X014339Y013950D02*
X017476Y013950D01*
X017317Y013791D02*
X014181Y013791D01*
X014022Y013633D02*
X017159Y013633D01*
X017000Y013474D02*
X013864Y013474D01*
X013705Y013316D02*
X016842Y013316D01*
X016683Y013157D02*
X013547Y013157D01*
X013388Y012999D02*
X016525Y012999D01*
X016366Y012840D02*
X013230Y012840D01*
X013071Y012682D02*
X016207Y012682D01*
X016049Y012523D02*
X012912Y012523D01*
X012754Y012364D02*
X015890Y012364D01*
X015418Y012206D02*
X012595Y012206D01*
X012437Y012047D02*
X015254Y012047D01*
X015188Y011889D02*
X012278Y011889D01*
X012120Y011730D02*
X015181Y011730D01*
X015224Y011572D02*
X011961Y011572D01*
X011803Y011413D02*
X015335Y011413D01*
X015889Y011255D02*
X011644Y011255D01*
X011486Y011096D02*
X015955Y011096D01*
X016128Y010938D02*
X011327Y010938D01*
X010881Y011255D02*
X003140Y011255D01*
X003181Y011354D02*
X003090Y011134D01*
X002921Y010965D01*
X002701Y010874D01*
X001662Y010874D01*
X001442Y010965D01*
X001273Y011134D01*
X001181Y011354D01*
X001181Y011593D01*
X001273Y011814D01*
X001433Y011974D01*
X001273Y012134D01*
X001181Y012354D01*
X001181Y012593D01*
X001273Y012814D01*
X001433Y012974D01*
X001273Y013134D01*
X001181Y013354D01*
X001181Y013593D01*
X001273Y013814D01*
X001442Y013982D01*
X001460Y013990D01*
X001404Y014031D01*
X001339Y014096D01*
X001285Y014170D01*
X001244Y014251D01*
X001216Y014338D01*
X001201Y014428D01*
X001201Y014444D01*
X002151Y014444D01*
X002151Y014504D01*
X001201Y014504D01*
X001201Y014519D01*
X001216Y014610D01*
X001244Y014696D01*
X001285Y014778D01*
X001339Y014852D01*
X001404Y014916D01*
X001477Y014970D01*
X001559Y015011D01*
X001646Y015039D01*
X001736Y015054D01*
X002151Y015054D01*
X002151Y014504D01*
X002211Y014504D01*
X002211Y015054D01*
X002627Y015054D01*
X002717Y015039D01*
X002804Y015011D01*
X002885Y014970D01*
X002959Y014916D01*
X003024Y014852D01*
X003077Y014778D01*
X003119Y014696D01*
X003147Y014610D01*
X003161Y014519D01*
X003161Y014504D01*
X002212Y014504D01*
X002212Y014444D01*
X003161Y014444D01*
X003161Y014428D01*
X003147Y014338D01*
X003119Y014251D01*
X003077Y014170D01*
X003024Y014096D01*
X002959Y014031D01*
X002902Y013990D01*
X002921Y013982D01*
X003090Y013814D01*
X003181Y013593D01*
X003181Y013354D01*
X003090Y013134D01*
X002930Y012974D01*
X003090Y012814D01*
X003181Y012593D01*
X003181Y012354D01*
X003090Y012134D01*
X002930Y011974D01*
X003090Y011814D01*
X003181Y011593D01*
X003181Y011354D01*
X003181Y011413D02*
X011039Y011413D01*
X011198Y011572D02*
X003181Y011572D01*
X003125Y011730D02*
X011356Y011730D01*
X011515Y011889D02*
X003015Y011889D01*
X003004Y012047D02*
X011673Y012047D01*
X011832Y012206D02*
X003120Y012206D01*
X003181Y012364D02*
X011990Y012364D01*
X012149Y012523D02*
X003181Y012523D01*
X003145Y012682D02*
X012307Y012682D01*
X012466Y012840D02*
X003064Y012840D01*
X002955Y012999D02*
X012625Y012999D01*
X012783Y013157D02*
X003100Y013157D01*
X003165Y013316D02*
X012942Y013316D01*
X013100Y013474D02*
X003181Y013474D01*
X003165Y013633D02*
X013259Y013633D01*
X013417Y013791D02*
X003099Y013791D01*
X002954Y013950D02*
X013576Y013950D01*
X013734Y014108D02*
X003033Y014108D01*
X003124Y014267D02*
X013893Y014267D01*
X014051Y014426D02*
X003161Y014426D01*
X003151Y014584D02*
X014210Y014584D01*
X014369Y014743D02*
X003095Y014743D01*
X002974Y014901D02*
X014527Y014901D01*
X014686Y015060D02*
X000361Y015060D01*
X000361Y015218D02*
X014844Y015218D01*
X015003Y015377D02*
X000361Y015377D01*
X000361Y015535D02*
X015161Y015535D01*
X015320Y015694D02*
X000361Y015694D01*
X000361Y015852D02*
X015478Y015852D01*
X015637Y016011D02*
X000361Y016011D01*
X000361Y016169D02*
X002947Y016169D01*
X002982Y016152D02*
X003060Y016126D01*
X003140Y016114D01*
X003181Y016114D01*
X003181Y016973D01*
X003182Y016973D01*
X003182Y016114D01*
X003222Y016114D01*
X003303Y016126D01*
X003381Y016152D01*
X003454Y016189D01*
X003520Y016237D01*
X003578Y016295D01*
X003626Y016361D01*
X003663Y016434D01*
X003670Y016456D01*
X003724Y016328D01*
X003876Y016176D01*
X004074Y016094D01*
X004289Y016094D01*
X004487Y016176D01*
X004639Y016328D01*
X009724Y016328D01*
X009876Y016176D01*
X010074Y016094D01*
X010289Y016094D01*
X010487Y016176D01*
X010639Y016328D01*
X011724Y016328D01*
X011876Y016176D01*
X012074Y016094D01*
X012289Y016094D01*
X012487Y016176D01*
X012639Y016328D01*
X015954Y016328D01*
X016113Y016487D02*
X012705Y016487D01*
X012721Y016526D02*
X012721Y017421D01*
X012639Y017620D01*
X012487Y017771D01*
X012289Y017854D01*
X012074Y017854D01*
X011876Y017771D01*
X011724Y017620D01*
X011641Y017421D01*
X011641Y016526D01*
X011724Y016328D01*
X011658Y016487D02*
X010705Y016487D01*
X010721Y016526D02*
X010639Y016328D01*
X010721Y016526D02*
X010721Y017421D01*
X010639Y017620D01*
X010487Y017771D01*
X010289Y017854D01*
X010074Y017854D01*
X009876Y017771D01*
X009724Y017620D01*
X009641Y017421D01*
X009641Y016526D01*
X009724Y016328D01*
X009658Y016487D02*
X004705Y016487D01*
X004721Y016526D02*
X004639Y016328D01*
X004721Y016526D02*
X004721Y017421D01*
X004639Y017620D01*
X004487Y017771D01*
X004289Y017854D01*
X004074Y017854D01*
X003876Y017771D01*
X003724Y017620D01*
X003670Y017491D01*
X003663Y017513D01*
X003626Y017586D01*
X003578Y017652D01*
X003520Y017710D01*
X003454Y017758D01*
X003381Y017796D01*
X003303Y017821D01*
X003222Y017834D01*
X003182Y017834D01*
X003182Y016974D01*
X003181Y016974D01*
X003181Y016973D01*
X002661Y016973D01*
X002661Y016593D01*
X002674Y016512D01*
X002700Y016434D01*
X002737Y016361D01*
X002785Y016295D01*
X002843Y016237D01*
X002909Y016189D01*
X002982Y016152D01*
X003181Y016169D02*
X003182Y016169D01*
X003181Y016328D02*
X003182Y016328D01*
X003181Y016487D02*
X003182Y016487D01*
X003181Y016645D02*
X003182Y016645D01*
X003181Y016804D02*
X003182Y016804D01*
X003181Y016962D02*
X003182Y016962D01*
X003181Y016974D02*
X002661Y016974D01*
X002661Y017355D01*
X002674Y017435D01*
X002700Y017513D01*
X002737Y017586D01*
X002785Y017652D01*
X002843Y017710D01*
X002909Y017758D01*
X002982Y017796D01*
X003060Y017821D01*
X003140Y017834D01*
X003181Y017834D01*
X003181Y016974D01*
X003181Y017121D02*
X003182Y017121D01*
X003181Y017279D02*
X003182Y017279D01*
X003181Y017438D02*
X003182Y017438D01*
X003181Y017596D02*
X003182Y017596D01*
X003181Y017755D02*
X003182Y017755D01*
X003459Y017755D02*
X003859Y017755D01*
X003714Y017596D02*
X003619Y017596D01*
X002904Y017755D02*
X000361Y017755D01*
X000361Y017913D02*
X017188Y017913D01*
X017224Y017828D02*
X017376Y017676D01*
X017574Y017594D01*
X017789Y017594D01*
X017987Y017676D01*
X018139Y017828D01*
X018181Y017930D01*
X018224Y017828D01*
X018376Y017676D01*
X018411Y017661D01*
X018411Y017544D01*
X016711Y017544D01*
X016705Y017557D01*
X016565Y017698D01*
X016381Y017774D01*
X016182Y017774D01*
X015998Y017698D01*
X015858Y017557D01*
X015781Y017373D01*
X015781Y017174D01*
X015858Y016990D01*
X015998Y016850D01*
X016182Y016774D01*
X016381Y016774D01*
X016413Y016787D01*
X016271Y016645D02*
X012721Y016645D01*
X012721Y016526D02*
X012639Y016328D01*
X012472Y016169D02*
X015795Y016169D01*
X016110Y016804D02*
X012721Y016804D01*
X012721Y016962D02*
X015886Y016962D01*
X015804Y017121D02*
X012721Y017121D01*
X012721Y017279D02*
X015781Y017279D01*
X015808Y017438D02*
X012714Y017438D01*
X012649Y017596D02*
X015897Y017596D01*
X016137Y017755D02*
X012504Y017755D01*
X011859Y017755D02*
X010504Y017755D01*
X010649Y017596D02*
X011714Y017596D01*
X011648Y017438D02*
X010714Y017438D01*
X010721Y017279D02*
X011641Y017279D01*
X011641Y017121D02*
X010721Y017121D01*
X010721Y016962D02*
X011641Y016962D01*
X011641Y016804D02*
X010721Y016804D01*
X010721Y016645D02*
X011641Y016645D01*
X011891Y016169D02*
X010472Y016169D01*
X009891Y016169D02*
X004472Y016169D01*
X003891Y016169D02*
X003416Y016169D01*
X003602Y016328D02*
X003724Y016328D01*
X002761Y016328D02*
X000361Y016328D01*
X000361Y016487D02*
X002682Y016487D01*
X002661Y016645D02*
X000361Y016645D01*
X000361Y016804D02*
X002661Y016804D01*
X002661Y016962D02*
X000361Y016962D01*
X000361Y017121D02*
X002661Y017121D01*
X002661Y017279D02*
X000361Y017279D01*
X000361Y017438D02*
X002675Y017438D01*
X002744Y017596D02*
X000361Y017596D01*
X000361Y018072D02*
X015976Y018072D01*
X015998Y018050D02*
X016182Y017974D01*
X016381Y017974D01*
X016565Y018050D01*
X016705Y018190D01*
X016711Y018204D01*
X017141Y018204D01*
X017141Y018026D01*
X017224Y017828D01*
X017296Y017755D02*
X016426Y017755D01*
X016666Y017596D02*
X017567Y017596D01*
X017795Y017596D02*
X018411Y017596D01*
X018296Y017755D02*
X018066Y017755D01*
X018175Y017913D02*
X018188Y017913D01*
X018951Y017661D02*
X018951Y017327D01*
X018951Y017220D01*
X018910Y017121D01*
X018951Y017279D02*
X031311Y017279D01*
X031311Y017438D02*
X018951Y017438D01*
X018951Y017596D02*
X025567Y017596D01*
X025795Y017596D02*
X026567Y017596D01*
X026795Y017596D02*
X027567Y017596D01*
X027795Y017596D02*
X028567Y017596D01*
X028795Y017596D02*
X029567Y017596D01*
X029795Y017596D02*
X030567Y017596D01*
X030795Y017596D02*
X031311Y017596D01*
X031311Y017755D02*
X031066Y017755D01*
X031175Y017913D02*
X031311Y017913D01*
X031311Y018072D02*
X031221Y018072D01*
X031221Y018231D02*
X031311Y018231D01*
X031311Y018389D02*
X031221Y018389D01*
X031221Y018548D02*
X031311Y018548D01*
X031311Y018706D02*
X031221Y018706D01*
X031221Y018865D02*
X031311Y018865D01*
X031311Y019023D02*
X031179Y019023D01*
X031077Y019182D02*
X031311Y019182D01*
X031311Y019340D02*
X030821Y019340D01*
X030542Y019340D02*
X029951Y019340D01*
X029951Y019499D02*
X031311Y019499D01*
X031311Y019657D02*
X031172Y019657D01*
X031381Y020155D02*
X031381Y020173D01*
X031340Y020274D01*
X031381Y020274D01*
X031565Y020350D01*
X031705Y020490D01*
X031781Y020674D01*
X031781Y020873D01*
X031705Y021057D01*
X031565Y021198D01*
X031381Y021274D01*
X031182Y021274D01*
X031169Y021268D01*
X029810Y022627D01*
X029781Y022656D01*
X029781Y022673D01*
X029705Y022857D01*
X029565Y022998D01*
X029381Y023074D01*
X029182Y023074D01*
X028998Y022998D01*
X028858Y022857D01*
X028781Y022673D01*
X028781Y022474D01*
X028787Y022461D01*
X027528Y021203D01*
X027453Y021127D01*
X027411Y021027D01*
X027411Y020503D01*
X027398Y020498D01*
X027258Y020357D01*
X027181Y020173D01*
X027181Y019974D01*
X027258Y019790D01*
X027398Y019650D01*
X027411Y019644D01*
X027411Y019286D01*
X027376Y019271D01*
X027224Y019120D01*
X027181Y019018D01*
X027139Y019120D01*
X026987Y019271D01*
X026951Y019286D01*
X026951Y020144D01*
X026965Y020150D01*
X027105Y020290D01*
X027181Y020474D01*
X027181Y020673D01*
X027105Y020857D01*
X026965Y020998D01*
X026951Y021003D01*
X026951Y022362D01*
X027269Y022679D01*
X027282Y022674D01*
X027481Y022674D01*
X027665Y022750D01*
X027805Y022890D01*
X027881Y023074D01*
X027845Y022987D02*
X028987Y022987D01*
X028846Y022828D02*
X027743Y022828D01*
X027259Y022670D02*
X028781Y022670D01*
X028781Y022511D02*
X027101Y022511D01*
X026951Y022353D02*
X028679Y022353D01*
X028520Y022194D02*
X026951Y022194D01*
X026951Y022036D02*
X028362Y022036D01*
X028203Y021877D02*
X026951Y021877D01*
X026951Y021719D02*
X028044Y021719D01*
X027886Y021560D02*
X026951Y021560D01*
X026951Y021401D02*
X027727Y021401D01*
X027569Y021243D02*
X026951Y021243D01*
X026951Y021084D02*
X027435Y021084D01*
X027411Y020926D02*
X027036Y020926D01*
X027142Y020767D02*
X027411Y020767D01*
X027411Y020609D02*
X027181Y020609D01*
X027171Y020450D02*
X027351Y020450D01*
X027231Y020292D02*
X027106Y020292D01*
X027181Y020133D02*
X026951Y020133D01*
X026951Y019975D02*
X027181Y019975D01*
X027247Y019816D02*
X026951Y019816D01*
X026951Y019657D02*
X027391Y019657D01*
X027411Y019499D02*
X026951Y019499D01*
X026951Y019340D02*
X027411Y019340D01*
X027286Y019182D02*
X027077Y019182D01*
X027179Y019023D02*
X027184Y019023D01*
X026411Y019286D02*
X026376Y019271D01*
X026224Y019120D01*
X026181Y019018D01*
X026139Y019120D01*
X025987Y019271D01*
X025789Y019354D01*
X025574Y019354D01*
X025376Y019271D01*
X025224Y019120D01*
X025170Y018991D01*
X025163Y019013D01*
X025126Y019086D01*
X025078Y019152D01*
X025020Y019210D01*
X024954Y019258D01*
X024881Y019296D01*
X024803Y019321D01*
X024722Y019334D01*
X024682Y019334D01*
X024682Y018474D01*
X024681Y018474D01*
X024681Y018473D01*
X024201Y018473D01*
X023682Y018473D01*
X023682Y018474D01*
X024201Y018474D01*
X024681Y018474D01*
X024681Y019334D01*
X024640Y019334D01*
X024560Y019321D01*
X024482Y019296D01*
X024409Y019258D01*
X024343Y019210D01*
X024285Y019152D01*
X024237Y019086D01*
X024200Y019013D01*
X024181Y018957D01*
X024163Y019013D01*
X024126Y019086D01*
X024078Y019152D01*
X024020Y019210D01*
X023954Y019258D01*
X023881Y019296D01*
X023803Y019321D01*
X023722Y019334D01*
X023682Y019334D01*
X023682Y018474D01*
X023681Y018474D01*
X023681Y018473D01*
X023201Y018473D01*
X022682Y018473D01*
X022682Y018474D01*
X023201Y018474D01*
X023681Y018474D01*
X023681Y019334D01*
X023640Y019334D01*
X023560Y019321D01*
X023482Y019296D01*
X023409Y019258D01*
X023343Y019210D01*
X023285Y019152D01*
X023237Y019086D01*
X023200Y019013D01*
X023181Y018958D01*
X023163Y019013D01*
X023126Y019086D01*
X023078Y019152D01*
X023020Y019210D01*
X022954Y019258D01*
X022881Y019296D01*
X022803Y019321D01*
X022722Y019334D01*
X022682Y019334D01*
X022682Y018474D01*
X022681Y018474D01*
X022681Y018473D01*
X022201Y018473D01*
X021682Y018473D01*
X021682Y018474D01*
X022201Y018474D01*
X022681Y018474D01*
X022681Y019334D01*
X022640Y019334D01*
X022560Y019321D01*
X022482Y019296D01*
X022409Y019258D01*
X022343Y019210D01*
X022285Y019152D01*
X022237Y019086D01*
X022200Y019013D01*
X022181Y018958D01*
X022163Y019013D01*
X022126Y019086D01*
X022078Y019152D01*
X022020Y019210D01*
X021954Y019258D01*
X021881Y019296D01*
X021803Y019321D01*
X021722Y019334D01*
X021682Y019334D01*
X021682Y018474D01*
X021681Y018474D01*
X021681Y019334D01*
X021665Y019334D01*
X021681Y019374D01*
X021681Y019573D01*
X021676Y019586D01*
X021893Y019804D01*
X023528Y019804D01*
X023635Y019804D01*
X023734Y019845D01*
X024283Y020394D01*
X024422Y020394D01*
X024732Y020704D01*
X024835Y020704D01*
X024934Y020745D01*
X025010Y020821D01*
X026410Y022221D01*
X026411Y022224D01*
X026411Y021003D01*
X026398Y020998D01*
X026258Y020857D01*
X026181Y020673D01*
X026181Y020474D01*
X026258Y020290D01*
X026398Y020150D01*
X026411Y020144D01*
X026411Y019286D01*
X026411Y019340D02*
X025821Y019340D01*
X025542Y019340D02*
X021667Y019340D01*
X021681Y019182D02*
X021682Y019182D01*
X021681Y019023D02*
X021682Y019023D01*
X021681Y018865D02*
X021682Y018865D01*
X021681Y018706D02*
X021682Y018706D01*
X021681Y018548D02*
X021682Y018548D01*
X021681Y018473D02*
X021201Y018473D01*
X020682Y018473D01*
X020682Y017614D01*
X020722Y017614D01*
X020803Y017626D01*
X020881Y017652D01*
X020954Y017689D01*
X021020Y017737D01*
X021078Y017795D01*
X021126Y017861D01*
X021163Y017934D01*
X021181Y017990D01*
X021200Y017934D01*
X021237Y017861D01*
X021285Y017795D01*
X021343Y017737D01*
X021409Y017689D01*
X021482Y017652D01*
X021560Y017626D01*
X021640Y017614D01*
X021681Y017614D01*
X021681Y018473D01*
X021681Y018389D02*
X021682Y018389D01*
X021681Y018231D02*
X021682Y018231D01*
X021681Y018072D02*
X021682Y018072D01*
X021681Y017913D02*
X021682Y017913D01*
X021681Y017755D02*
X021682Y017755D01*
X022038Y017755D02*
X022325Y017755D01*
X022210Y017913D02*
X022153Y017913D01*
X022681Y017913D02*
X022682Y017913D01*
X022681Y017755D02*
X022682Y017755D01*
X022681Y018072D02*
X022682Y018072D01*
X022681Y018231D02*
X022682Y018231D01*
X022681Y018389D02*
X022682Y018389D01*
X022681Y018548D02*
X022682Y018548D01*
X022681Y018706D02*
X022682Y018706D01*
X022681Y018865D02*
X022682Y018865D01*
X022681Y019023D02*
X022682Y019023D01*
X022681Y019182D02*
X022682Y019182D01*
X023049Y019182D02*
X023314Y019182D01*
X023205Y019023D02*
X023158Y019023D01*
X023681Y019023D02*
X023682Y019023D01*
X023681Y018865D02*
X023682Y018865D01*
X023681Y018706D02*
X023682Y018706D01*
X023681Y018548D02*
X023682Y018548D01*
X023681Y018389D02*
X023682Y018389D01*
X023681Y018231D02*
X023682Y018231D01*
X023681Y018072D02*
X023682Y018072D01*
X023681Y017913D02*
X023682Y017913D01*
X023681Y017755D02*
X023682Y017755D01*
X024038Y017755D02*
X024325Y017755D01*
X024210Y017913D02*
X024153Y017913D01*
X024681Y017913D02*
X024682Y017913D01*
X024681Y017755D02*
X024682Y017755D01*
X024681Y018072D02*
X024682Y018072D01*
X024681Y018231D02*
X024682Y018231D01*
X024681Y018389D02*
X024682Y018389D01*
X024681Y018548D02*
X024682Y018548D01*
X024681Y018706D02*
X024682Y018706D01*
X024681Y018865D02*
X024682Y018865D01*
X024681Y019023D02*
X024682Y019023D01*
X024681Y019182D02*
X024682Y019182D01*
X025049Y019182D02*
X025286Y019182D01*
X025184Y019023D02*
X025158Y019023D01*
X024314Y019182D02*
X024049Y019182D01*
X024158Y019023D02*
X024205Y019023D01*
X023682Y019182D02*
X023681Y019182D01*
X023665Y019816D02*
X026411Y019816D01*
X026411Y019657D02*
X021747Y019657D01*
X021681Y019499D02*
X026411Y019499D01*
X026286Y019182D02*
X026077Y019182D01*
X026179Y019023D02*
X026184Y019023D01*
X026411Y019975D02*
X023864Y019975D01*
X024023Y020133D02*
X026411Y020133D01*
X026257Y020292D02*
X024181Y020292D01*
X024478Y020450D02*
X026191Y020450D01*
X026181Y020609D02*
X024637Y020609D01*
X024957Y020767D02*
X026220Y020767D01*
X026326Y020926D02*
X025115Y020926D01*
X025274Y021084D02*
X026411Y021084D01*
X026411Y021243D02*
X025432Y021243D01*
X025591Y021401D02*
X026411Y021401D01*
X026411Y021560D02*
X025749Y021560D01*
X025908Y021719D02*
X026411Y021719D01*
X026411Y021877D02*
X026067Y021877D01*
X026225Y022036D02*
X026411Y022036D01*
X026411Y022194D02*
X026384Y022194D01*
X025911Y022511D02*
X024436Y022511D01*
X024594Y022353D02*
X025779Y022353D01*
X025620Y022194D02*
X024741Y022194D01*
X024741Y022036D02*
X025462Y022036D01*
X025303Y021877D02*
X024741Y021877D01*
X024718Y021719D02*
X025144Y021719D01*
X024986Y021560D02*
X024560Y021560D01*
X024574Y021401D02*
X024827Y021401D01*
X024201Y022036D02*
X024161Y022036D01*
X024161Y022194D02*
X024201Y022194D01*
X024201Y022353D02*
X024161Y022353D01*
X024161Y022511D02*
X024201Y022511D01*
X023927Y022511D02*
X023464Y022511D01*
X023623Y022353D02*
X023768Y022353D01*
X022899Y022511D02*
X022464Y022511D01*
X022623Y022353D02*
X022740Y022353D01*
X021899Y022511D02*
X012715Y022511D01*
X012721Y022526D02*
X012721Y023421D01*
X012639Y023620D01*
X012487Y023771D01*
X012289Y023854D01*
X012074Y023854D01*
X011876Y023771D01*
X011724Y023620D01*
X011641Y023421D01*
X011641Y022526D01*
X011724Y022328D01*
X011876Y022176D01*
X012074Y022094D01*
X012289Y022094D01*
X012487Y022176D01*
X012639Y022328D01*
X012721Y022526D01*
X012721Y022670D02*
X025911Y022670D01*
X025820Y022828D02*
X012721Y022828D01*
X012721Y022987D02*
X025718Y022987D01*
X025681Y023145D02*
X012721Y023145D01*
X012721Y023304D02*
X025694Y023304D01*
X025763Y023462D02*
X012704Y023462D01*
X012638Y023621D02*
X025955Y023621D01*
X026408Y023621D02*
X027155Y023621D01*
X026963Y023462D02*
X026600Y023462D01*
X026669Y023304D02*
X026894Y023304D01*
X026881Y023145D02*
X026681Y023145D01*
X026645Y022987D02*
X026813Y022987D01*
X026654Y022828D02*
X026543Y022828D01*
X026496Y022670D02*
X026451Y022670D01*
X027608Y023621D02*
X030111Y023621D01*
X030111Y023462D02*
X027800Y023462D01*
X027869Y023304D02*
X030118Y023304D01*
X030228Y023145D02*
X030328Y023104D01*
X030552Y023104D01*
X030558Y023090D01*
X030698Y022950D01*
X030882Y022874D01*
X031081Y022874D01*
X031265Y022950D01*
X031405Y023090D01*
X031481Y023274D01*
X031481Y023473D01*
X031405Y023657D01*
X031265Y023798D01*
X031081Y023874D01*
X030882Y023874D01*
X030698Y023798D01*
X030651Y023751D01*
X030651Y029127D01*
X030610Y029227D01*
X030534Y029303D01*
X030276Y029561D01*
X030281Y029574D01*
X030350Y029487D02*
X042371Y029487D01*
X042371Y029329D02*
X030508Y029329D01*
X030634Y029170D02*
X042371Y029170D01*
X042371Y029011D02*
X030651Y029011D01*
X030651Y028853D02*
X042371Y028853D01*
X042371Y028694D02*
X030651Y028694D01*
X030651Y028536D02*
X031971Y028536D01*
X032062Y028574D02*
X031842Y028482D01*
X031673Y028314D01*
X031581Y028093D01*
X031581Y027854D01*
X031610Y027784D01*
X031394Y027568D01*
X031381Y027574D01*
X031182Y027574D01*
X030998Y027498D01*
X030858Y027357D01*
X030781Y027173D01*
X030781Y026974D01*
X030858Y026790D01*
X030998Y026650D01*
X031182Y026574D01*
X031274Y026574D01*
X031158Y026457D01*
X031081Y026273D01*
X031081Y026074D01*
X031158Y025890D01*
X031298Y025750D01*
X031335Y025734D01*
X031258Y025657D01*
X031181Y025473D01*
X031181Y025274D01*
X031258Y025090D01*
X031398Y024950D01*
X031582Y024874D01*
X031781Y024874D01*
X031965Y024950D01*
X032105Y025090D01*
X032111Y025104D01*
X032335Y025104D01*
X032434Y025145D01*
X032510Y025221D01*
X032669Y025379D01*
X032682Y025374D01*
X032881Y025374D01*
X033065Y025450D01*
X033205Y025590D01*
X033281Y025774D01*
X033281Y025973D01*
X033205Y026157D01*
X033088Y026274D01*
X033205Y026390D01*
X033281Y026574D01*
X033281Y026773D01*
X033205Y026957D01*
X033065Y027098D01*
X032881Y027174D01*
X032682Y027174D01*
X032498Y027098D01*
X032358Y026957D01*
X032352Y026944D01*
X032028Y026944D01*
X031928Y026903D01*
X031853Y026827D01*
X031694Y026668D01*
X031681Y026674D01*
X031588Y026674D01*
X031705Y026790D01*
X031781Y026974D01*
X031781Y027173D01*
X031776Y027186D01*
X031992Y027403D01*
X032062Y027374D01*
X032301Y027374D01*
X032521Y027465D01*
X032690Y027634D01*
X032781Y027854D01*
X032781Y028093D01*
X032690Y028314D01*
X032521Y028482D01*
X032301Y028574D01*
X032062Y028574D01*
X032392Y028536D02*
X033471Y028536D01*
X033562Y028574D02*
X033342Y028482D01*
X033173Y028314D01*
X033081Y028093D01*
X033081Y027854D01*
X033173Y027634D01*
X033342Y027465D01*
X033562Y027374D01*
X033801Y027374D01*
X034021Y027465D01*
X034025Y027469D01*
X034058Y027390D01*
X034198Y027250D01*
X034211Y027244D01*
X034211Y024044D01*
X033535Y024044D01*
X033428Y024044D01*
X033328Y024003D01*
X033094Y023768D01*
X033081Y023774D01*
X032882Y023774D01*
X032698Y023698D01*
X032558Y023557D01*
X032481Y023373D01*
X032481Y023174D01*
X032558Y022990D01*
X032698Y022850D01*
X032882Y022774D01*
X033081Y022774D01*
X033265Y022850D01*
X033405Y022990D01*
X033481Y023174D01*
X033481Y023373D01*
X033476Y023386D01*
X033593Y023504D01*
X034104Y023504D01*
X034058Y023457D01*
X033981Y023273D01*
X033981Y023074D01*
X034058Y022890D01*
X034087Y022861D01*
X031428Y020203D01*
X031381Y020155D01*
X031424Y020292D02*
X031518Y020292D01*
X031665Y020450D02*
X031676Y020450D01*
X031754Y020609D02*
X031835Y020609D01*
X031781Y020767D02*
X031993Y020767D01*
X032152Y020926D02*
X031760Y020926D01*
X031678Y021084D02*
X032310Y021084D01*
X032469Y021243D02*
X031455Y021243D01*
X031035Y021401D02*
X032627Y021401D01*
X032786Y021560D02*
X030877Y021560D01*
X030718Y021719D02*
X032944Y021719D01*
X033103Y021877D02*
X030560Y021877D01*
X030401Y022036D02*
X033262Y022036D01*
X033420Y022194D02*
X030243Y022194D01*
X030084Y022353D02*
X033579Y022353D01*
X033737Y022511D02*
X029926Y022511D01*
X029781Y022670D02*
X033896Y022670D01*
X034054Y022828D02*
X033213Y022828D01*
X033402Y022987D02*
X034018Y022987D01*
X033981Y023145D02*
X033469Y023145D01*
X033481Y023304D02*
X033994Y023304D01*
X034063Y023462D02*
X033552Y023462D01*
X033106Y023780D02*
X031283Y023780D01*
X031420Y023621D02*
X032622Y023621D01*
X032518Y023462D02*
X031481Y023462D01*
X031481Y023304D02*
X032481Y023304D01*
X032493Y023145D02*
X031428Y023145D01*
X031302Y022987D02*
X032561Y022987D01*
X032750Y022828D02*
X029717Y022828D01*
X029575Y022987D02*
X030661Y022987D01*
X030651Y023780D02*
X030680Y023780D01*
X030651Y023938D02*
X033264Y023938D01*
X034211Y024097D02*
X030651Y024097D01*
X030651Y024255D02*
X034211Y024255D01*
X034211Y024414D02*
X030651Y024414D01*
X030651Y024572D02*
X034211Y024572D01*
X034211Y024731D02*
X030651Y024731D01*
X030651Y024889D02*
X031544Y024889D01*
X031819Y024889D02*
X034211Y024889D01*
X034211Y025048D02*
X032063Y025048D01*
X032496Y025206D02*
X034211Y025206D01*
X034211Y025365D02*
X032654Y025365D01*
X033138Y025524D02*
X034211Y025524D01*
X034211Y025682D02*
X033243Y025682D01*
X033281Y025841D02*
X034211Y025841D01*
X034211Y025999D02*
X033271Y025999D01*
X033204Y026158D02*
X034211Y026158D01*
X034211Y026316D02*
X033131Y026316D01*
X033240Y026475D02*
X034211Y026475D01*
X034211Y026633D02*
X033281Y026633D01*
X033274Y026792D02*
X034211Y026792D01*
X034211Y026950D02*
X033208Y026950D01*
X033037Y027109D02*
X034211Y027109D01*
X034180Y027268D02*
X031857Y027268D01*
X031781Y027109D02*
X032526Y027109D01*
X032355Y026950D02*
X031771Y026950D01*
X031818Y026792D02*
X031706Y026792D01*
X031175Y026475D02*
X030651Y026475D01*
X030651Y026633D02*
X031038Y026633D01*
X030857Y026792D02*
X030651Y026792D01*
X030651Y026950D02*
X030791Y026950D01*
X030781Y027109D02*
X030651Y027109D01*
X030651Y027268D02*
X030821Y027268D01*
X030927Y027426D02*
X030651Y027426D01*
X030651Y027585D02*
X031411Y027585D01*
X031569Y027743D02*
X030651Y027743D01*
X030651Y027902D02*
X031581Y027902D01*
X031581Y028060D02*
X030651Y028060D01*
X030651Y028219D02*
X031634Y028219D01*
X031737Y028377D02*
X030651Y028377D01*
X030111Y028377D02*
X028626Y028377D01*
X028690Y028314D02*
X028521Y028482D01*
X028301Y028574D01*
X028062Y028574D01*
X027842Y028482D01*
X027673Y028314D01*
X027581Y028093D01*
X027581Y027854D01*
X027673Y027634D01*
X027842Y027465D01*
X028062Y027374D01*
X028301Y027374D01*
X028521Y027465D01*
X028690Y027634D01*
X028781Y027854D01*
X028781Y028093D01*
X028690Y028314D01*
X028729Y028219D02*
X030111Y028219D01*
X030111Y028060D02*
X028781Y028060D01*
X028781Y027902D02*
X030111Y027902D01*
X030111Y027743D02*
X028735Y027743D01*
X028641Y027585D02*
X030111Y027585D01*
X030111Y027426D02*
X028427Y027426D01*
X027936Y027426D02*
X026927Y027426D01*
X027021Y027465D02*
X026801Y027374D01*
X026562Y027374D01*
X026342Y027465D01*
X026173Y027634D01*
X026081Y027854D01*
X026081Y028093D01*
X026173Y028314D01*
X026211Y028352D01*
X026211Y029562D01*
X025368Y030406D01*
X025252Y030357D01*
X025007Y030357D01*
X024780Y030451D01*
X024607Y030625D01*
X024513Y030851D01*
X024513Y031096D01*
X024607Y031323D01*
X024780Y031496D01*
X025007Y031590D01*
X025252Y031590D01*
X025478Y031496D01*
X025652Y031323D01*
X025746Y031096D01*
X025746Y030851D01*
X025728Y030809D01*
X026634Y029903D01*
X026710Y029827D01*
X026751Y029727D01*
X026751Y028574D01*
X026801Y028574D01*
X027021Y028482D01*
X027190Y028314D01*
X027281Y028093D01*
X027281Y027854D01*
X027190Y027634D01*
X027021Y027465D01*
X027141Y027585D02*
X027722Y027585D01*
X027627Y027743D02*
X027235Y027743D01*
X027281Y027902D02*
X027581Y027902D01*
X027581Y028060D02*
X027281Y028060D01*
X027229Y028219D02*
X027634Y028219D01*
X027737Y028377D02*
X027126Y028377D01*
X026892Y028536D02*
X027971Y028536D01*
X028392Y028536D02*
X030111Y028536D01*
X030111Y028694D02*
X026751Y028694D01*
X026751Y028853D02*
X030111Y028853D01*
X030062Y029011D02*
X026751Y029011D01*
X026751Y029170D02*
X029903Y029170D01*
X029419Y029329D02*
X026751Y029329D01*
X026751Y029487D02*
X028061Y029487D01*
X028098Y029450D02*
X028282Y029374D01*
X028481Y029374D01*
X028665Y029450D01*
X028805Y029590D01*
X028881Y029774D01*
X028881Y029973D01*
X028805Y030157D01*
X028665Y030298D01*
X028481Y030374D01*
X028282Y030374D01*
X028269Y030368D01*
X027710Y030927D01*
X027634Y031003D01*
X027535Y031044D01*
X027411Y031044D01*
X027405Y031057D01*
X027265Y031198D01*
X027081Y031274D01*
X026882Y031274D01*
X026698Y031198D01*
X026558Y031057D01*
X026481Y030873D01*
X026481Y030674D01*
X026558Y030490D01*
X026698Y030350D01*
X026882Y030274D01*
X027081Y030274D01*
X027265Y030350D01*
X027394Y030479D01*
X027887Y029986D01*
X027881Y029973D01*
X027881Y029774D01*
X027958Y029590D01*
X028098Y029450D01*
X027935Y029646D02*
X026751Y029646D01*
X026720Y029804D02*
X027881Y029804D01*
X027881Y029963D02*
X026574Y029963D01*
X026416Y030121D02*
X027752Y030121D01*
X027593Y030280D02*
X027096Y030280D01*
X026867Y030280D02*
X026257Y030280D01*
X026099Y030438D02*
X026610Y030438D01*
X026513Y030597D02*
X025940Y030597D01*
X025781Y030755D02*
X026481Y030755D01*
X026498Y030914D02*
X025746Y030914D01*
X025746Y031073D02*
X026573Y031073D01*
X026779Y031231D02*
X025690Y031231D01*
X025585Y031390D02*
X028495Y031390D01*
X028495Y031473D02*
X028495Y030475D01*
X028612Y030357D01*
X029610Y030357D01*
X029728Y030475D01*
X029728Y031473D01*
X029610Y031590D01*
X028612Y031590D01*
X028495Y031473D01*
X028571Y031548D02*
X025353Y031548D01*
X024906Y031548D02*
X024152Y031548D01*
X024110Y031590D02*
X023112Y031590D01*
X022995Y031473D01*
X022995Y030674D01*
X022882Y030674D01*
X022698Y030598D01*
X022558Y030457D01*
X022481Y030273D01*
X022481Y030074D01*
X022558Y029890D01*
X022671Y029777D01*
X022553Y029660D01*
X022476Y029474D01*
X022476Y029273D01*
X022553Y029088D01*
X022695Y028946D01*
X022881Y028869D01*
X023082Y028869D01*
X023267Y028946D01*
X023376Y029054D01*
X023726Y029054D01*
X023753Y028988D01*
X023861Y028880D01*
X023861Y027068D01*
X023753Y026960D01*
X023676Y026774D01*
X023676Y026573D01*
X023753Y026388D01*
X023895Y026246D01*
X024081Y026169D01*
X024282Y026169D01*
X024467Y026246D01*
X024609Y026388D01*
X024684Y026568D01*
X024758Y026390D01*
X024898Y026250D01*
X025082Y026174D01*
X025281Y026174D01*
X025465Y026250D01*
X025605Y026390D01*
X025681Y026574D01*
X025681Y026773D01*
X025605Y026957D01*
X025465Y027098D01*
X025451Y027103D01*
X025451Y029127D01*
X025410Y029227D01*
X025334Y029303D01*
X024534Y030103D01*
X024435Y030144D01*
X024328Y030144D01*
X023481Y030144D01*
X023481Y030273D01*
X023446Y030357D01*
X024110Y030357D01*
X024228Y030475D01*
X024228Y031473D01*
X024110Y031590D01*
X024228Y031390D02*
X024674Y031390D01*
X024569Y031231D02*
X024228Y031231D01*
X024228Y031073D02*
X024513Y031073D01*
X024513Y030914D02*
X024228Y030914D01*
X024228Y030755D02*
X024553Y030755D01*
X024635Y030597D02*
X024228Y030597D01*
X024191Y030438D02*
X024811Y030438D01*
X024489Y030121D02*
X025652Y030121D01*
X025811Y029963D02*
X024674Y029963D01*
X024833Y029804D02*
X025969Y029804D01*
X026128Y029646D02*
X024991Y029646D01*
X025150Y029487D02*
X026211Y029487D01*
X026211Y029329D02*
X025308Y029329D01*
X025434Y029170D02*
X026211Y029170D01*
X026211Y029011D02*
X025451Y029011D01*
X025451Y028853D02*
X026211Y028853D01*
X026211Y028694D02*
X025451Y028694D01*
X025451Y028536D02*
X026211Y028536D01*
X026211Y028377D02*
X025451Y028377D01*
X025451Y028219D02*
X026134Y028219D01*
X026081Y028060D02*
X025451Y028060D01*
X025451Y027902D02*
X026081Y027902D01*
X026127Y027743D02*
X025451Y027743D01*
X025451Y027585D02*
X026222Y027585D01*
X026436Y027426D02*
X025451Y027426D01*
X025451Y027268D02*
X030111Y027268D01*
X030111Y027109D02*
X025451Y027109D01*
X025608Y026950D02*
X030111Y026950D01*
X030111Y026792D02*
X025674Y026792D01*
X025681Y026633D02*
X030111Y026633D01*
X030111Y026475D02*
X025640Y026475D01*
X025531Y026316D02*
X030111Y026316D01*
X030111Y026158D02*
X002798Y026158D01*
X002798Y026316D02*
X023825Y026316D01*
X023717Y026475D02*
X002726Y026475D01*
X002680Y026520D02*
X002798Y026403D01*
X002798Y025405D01*
X002680Y025287D01*
X001682Y025287D01*
X001565Y025405D01*
X001565Y026403D01*
X001682Y026520D01*
X002680Y026520D01*
X002410Y026869D02*
X002321Y026840D01*
X002228Y026825D01*
X002220Y026825D01*
X002220Y027383D01*
X002220Y027460D01*
X002778Y027460D01*
X002778Y027469D01*
X002763Y027561D01*
X002734Y027651D01*
X002691Y027734D01*
X002636Y027810D01*
X002570Y027876D01*
X002494Y027932D01*
X002410Y027974D01*
X002321Y028003D01*
X002228Y028018D01*
X002220Y028018D01*
X002220Y027460D01*
X002143Y027460D01*
X002143Y027383D01*
X002220Y027383D01*
X002778Y027383D01*
X002778Y027375D01*
X002763Y027282D01*
X002734Y027193D01*
X002691Y027109D01*
X023861Y027109D01*
X023861Y027268D02*
X002758Y027268D01*
X002691Y027109D02*
X002636Y027033D01*
X002570Y026967D01*
X002494Y026912D01*
X002410Y026869D01*
X002547Y026950D02*
X023749Y026950D01*
X023684Y026792D02*
X000361Y026792D01*
X000361Y026950D02*
X001816Y026950D01*
X001793Y026967D02*
X001869Y026912D01*
X001953Y026869D01*
X002042Y026840D01*
X002134Y026825D01*
X002143Y026825D01*
X002143Y027383D01*
X001585Y027383D01*
X001585Y027375D01*
X001600Y027282D01*
X001629Y027193D01*
X001671Y027109D01*
X001727Y027033D01*
X001793Y026967D01*
X001672Y027109D02*
X000361Y027109D01*
X000361Y027268D02*
X001605Y027268D01*
X001585Y027460D02*
X002143Y027460D01*
X002143Y028018D01*
X002134Y028018D01*
X002042Y028003D01*
X001953Y027974D01*
X001869Y027932D01*
X001793Y027876D01*
X001727Y027810D01*
X001671Y027734D01*
X001629Y027651D01*
X001600Y027561D01*
X001585Y027469D01*
X001585Y027460D01*
X001607Y027585D02*
X000361Y027585D01*
X000361Y027743D02*
X001678Y027743D01*
X001828Y027902D02*
X000361Y027902D01*
X000361Y028060D02*
X016581Y028060D01*
X016581Y028093D02*
X016581Y027854D01*
X016673Y027634D01*
X016842Y027465D01*
X017062Y027374D01*
X017301Y027374D01*
X017521Y027465D01*
X017690Y027634D01*
X017781Y027854D01*
X017781Y028093D01*
X017690Y028314D01*
X017521Y028482D01*
X017301Y028574D01*
X017062Y028574D01*
X016842Y028482D01*
X016673Y028314D01*
X016581Y028093D01*
X016634Y028219D02*
X000361Y028219D01*
X000361Y028377D02*
X016737Y028377D01*
X016971Y028536D02*
X000361Y028536D01*
X000361Y028694D02*
X020411Y028694D01*
X020411Y028536D02*
X017392Y028536D01*
X017626Y028377D02*
X020411Y028377D01*
X020411Y028227D02*
X020411Y028120D01*
X020453Y028021D01*
X020528Y027945D01*
X020581Y027923D01*
X020581Y027854D01*
X020673Y027634D01*
X020842Y027465D01*
X021062Y027374D01*
X021301Y027374D01*
X021521Y027465D01*
X021690Y027634D01*
X021781Y027854D01*
X021781Y028093D01*
X021690Y028314D01*
X021521Y028482D01*
X021301Y028574D01*
X021062Y028574D01*
X020951Y028528D01*
X020951Y030440D01*
X020978Y030451D01*
X020981Y030454D01*
X020981Y030374D01*
X021058Y030190D01*
X021198Y030050D01*
X021211Y030044D01*
X021211Y029703D01*
X021198Y029698D01*
X021058Y029557D01*
X020981Y029373D01*
X020981Y029174D01*
X021058Y028990D01*
X021198Y028850D01*
X021382Y028774D01*
X021581Y028774D01*
X021765Y028850D01*
X021905Y028990D01*
X021981Y029174D01*
X021981Y029373D01*
X021905Y029557D01*
X021765Y029698D01*
X021751Y029703D01*
X021751Y030044D01*
X021765Y030050D01*
X021905Y030190D01*
X021981Y030374D01*
X021981Y030573D01*
X021905Y030757D01*
X021765Y030898D01*
X021581Y030974D01*
X021382Y030974D01*
X021246Y030917D01*
X021246Y031096D01*
X021152Y031323D01*
X020978Y031496D01*
X020752Y031590D01*
X020507Y031590D01*
X020280Y031496D01*
X020107Y031323D01*
X020013Y031096D01*
X020013Y030851D01*
X020107Y030625D01*
X020280Y030451D01*
X020411Y030397D01*
X020411Y028227D01*
X020411Y028219D02*
X017729Y028219D01*
X017781Y028060D02*
X020436Y028060D01*
X020581Y027902D02*
X017781Y027902D01*
X017735Y027743D02*
X020627Y027743D01*
X020722Y027585D02*
X017641Y027585D01*
X017427Y027426D02*
X020936Y027426D01*
X021427Y027426D02*
X022436Y027426D01*
X022342Y027465D02*
X022562Y027374D01*
X022801Y027374D01*
X023021Y027465D01*
X023190Y027634D01*
X023281Y027854D01*
X023281Y028093D01*
X023190Y028314D01*
X023021Y028482D01*
X022801Y028574D01*
X022562Y028574D01*
X022342Y028482D01*
X022173Y028314D01*
X022081Y028093D01*
X022081Y027854D01*
X022173Y027634D01*
X022342Y027465D01*
X022222Y027585D02*
X021641Y027585D01*
X021735Y027743D02*
X022127Y027743D01*
X022081Y027902D02*
X021781Y027902D01*
X021781Y028060D02*
X022081Y028060D01*
X022134Y028219D02*
X021729Y028219D01*
X021626Y028377D02*
X022237Y028377D01*
X022471Y028536D02*
X021392Y028536D01*
X021195Y028853D02*
X020951Y028853D01*
X020951Y029011D02*
X021049Y029011D01*
X020983Y029170D02*
X020951Y029170D01*
X020951Y029329D02*
X020981Y029329D01*
X020951Y029487D02*
X021029Y029487D01*
X020951Y029646D02*
X021146Y029646D01*
X021211Y029804D02*
X020951Y029804D01*
X020951Y029963D02*
X021211Y029963D01*
X021127Y030121D02*
X020951Y030121D01*
X020951Y030280D02*
X021020Y030280D01*
X020981Y030438D02*
X020951Y030438D01*
X020411Y030280D02*
X003340Y030280D01*
X003262Y030145D02*
X003439Y030453D01*
X003531Y030796D01*
X003531Y031151D01*
X003439Y031495D01*
X003262Y031803D01*
X003010Y032054D01*
X002702Y032232D01*
X002359Y032324D01*
X002004Y032324D01*
X001660Y032232D01*
X001352Y032054D01*
X001101Y031803D01*
X000923Y031495D01*
X000831Y031151D01*
X000831Y030796D01*
X000923Y030453D01*
X001101Y030145D01*
X001352Y029893D01*
X001660Y029716D01*
X002004Y029624D01*
X002359Y029624D01*
X002702Y029716D01*
X003010Y029893D01*
X003262Y030145D01*
X003238Y030121D02*
X020411Y030121D01*
X020411Y029963D02*
X003080Y029963D01*
X002856Y029804D02*
X020411Y029804D01*
X020411Y029646D02*
X002441Y029646D01*
X001922Y029646D02*
X000361Y029646D01*
X000361Y029804D02*
X001507Y029804D01*
X001283Y029963D02*
X000361Y029963D01*
X000361Y030121D02*
X001125Y030121D01*
X001023Y030280D02*
X000361Y030280D01*
X000361Y030438D02*
X000932Y030438D01*
X000885Y030597D02*
X000361Y030597D01*
X000361Y030755D02*
X000842Y030755D01*
X000831Y030914D02*
X000361Y030914D01*
X000361Y031073D02*
X000831Y031073D01*
X000853Y031231D02*
X000361Y031231D01*
X000361Y031390D02*
X000895Y031390D01*
X000954Y031548D02*
X000361Y031548D01*
X000361Y031707D02*
X001046Y031707D01*
X001164Y031865D02*
X000361Y031865D01*
X000361Y032024D02*
X001322Y032024D01*
X001575Y032182D02*
X000361Y032182D01*
X002788Y032182D02*
X040075Y032182D01*
X039822Y032024D02*
X003040Y032024D01*
X003199Y031865D02*
X039664Y031865D01*
X039546Y031707D02*
X003317Y031707D01*
X003409Y031548D02*
X006330Y031548D01*
X006324Y031546D02*
X006134Y031356D01*
X006031Y031108D01*
X006031Y030839D01*
X006134Y030591D01*
X006324Y030401D01*
X006572Y030299D01*
X007791Y030299D01*
X008039Y030401D01*
X008229Y030591D01*
X008331Y030839D01*
X008331Y031108D01*
X008229Y031356D01*
X008039Y031546D01*
X007791Y031649D01*
X006572Y031649D01*
X006324Y031546D01*
X006168Y031390D02*
X003468Y031390D01*
X003510Y031231D02*
X006082Y031231D01*
X006031Y031073D02*
X003531Y031073D01*
X003531Y030914D02*
X006031Y030914D01*
X006066Y030755D02*
X003521Y030755D01*
X003478Y030597D02*
X006132Y030597D01*
X006287Y030438D02*
X003431Y030438D01*
X002535Y027902D02*
X016581Y027902D01*
X016627Y027743D02*
X002685Y027743D01*
X002755Y027585D02*
X016722Y027585D01*
X016936Y027426D02*
X002220Y027426D01*
X002143Y027426D02*
X000361Y027426D01*
X000361Y026633D02*
X023676Y026633D01*
X023861Y027426D02*
X022927Y027426D01*
X023141Y027585D02*
X023861Y027585D01*
X023861Y027743D02*
X023235Y027743D01*
X023281Y027902D02*
X023861Y027902D01*
X023861Y028060D02*
X023281Y028060D01*
X023229Y028219D02*
X023861Y028219D01*
X023861Y028377D02*
X023126Y028377D01*
X022892Y028536D02*
X023861Y028536D01*
X023861Y028694D02*
X020951Y028694D01*
X020951Y028536D02*
X020971Y028536D01*
X020411Y028853D02*
X000361Y028853D01*
X000361Y029011D02*
X020411Y029011D01*
X020411Y029170D02*
X000361Y029170D01*
X000361Y029329D02*
X020411Y029329D01*
X020411Y029487D02*
X000361Y029487D01*
X002143Y027902D02*
X002220Y027902D01*
X002220Y027743D02*
X002143Y027743D01*
X002143Y027585D02*
X002220Y027585D01*
X002220Y027268D02*
X002143Y027268D01*
X002143Y027109D02*
X002220Y027109D01*
X002220Y026950D02*
X002143Y026950D01*
X001637Y026475D02*
X000361Y026475D01*
X000361Y026316D02*
X001565Y026316D01*
X001565Y026158D02*
X000361Y026158D01*
X000361Y025999D02*
X001565Y025999D01*
X001565Y025841D02*
X000361Y025841D01*
X000361Y025682D02*
X001565Y025682D01*
X001565Y025524D02*
X000361Y025524D01*
X000361Y025365D02*
X001605Y025365D01*
X002758Y025365D02*
X004691Y025365D01*
X004671Y025345D02*
X004571Y025104D01*
X004571Y024843D01*
X004671Y024603D01*
X004855Y024418D01*
X005096Y024319D01*
X006267Y024319D01*
X006507Y024418D01*
X006692Y024603D01*
X006791Y024843D01*
X006791Y025104D01*
X006692Y025345D01*
X006507Y025529D01*
X006267Y025629D01*
X005096Y025629D01*
X004855Y025529D01*
X004671Y025345D01*
X004614Y025206D02*
X000361Y025206D01*
X000361Y025048D02*
X004571Y025048D01*
X004571Y024889D02*
X000361Y024889D01*
X000361Y024731D02*
X004618Y024731D01*
X004701Y024572D02*
X000361Y024572D01*
X000361Y024414D02*
X004867Y024414D01*
X004487Y023771D02*
X004289Y023854D01*
X004074Y023854D01*
X003876Y023771D01*
X003724Y023620D01*
X003681Y023518D01*
X003639Y023620D01*
X003487Y023771D01*
X003289Y023854D01*
X003074Y023854D01*
X002876Y023771D01*
X002724Y023620D01*
X002641Y023421D01*
X002641Y022526D01*
X002724Y022328D01*
X002876Y022176D01*
X003074Y022094D01*
X003289Y022094D01*
X003487Y022176D01*
X003639Y022328D01*
X003681Y022430D01*
X003724Y022328D01*
X003876Y022176D01*
X004074Y022094D01*
X004289Y022094D01*
X004487Y022176D01*
X004639Y022328D01*
X004721Y022526D01*
X004721Y023421D01*
X004639Y023620D01*
X004487Y023771D01*
X004468Y023780D02*
X009950Y023780D01*
X009982Y023796D02*
X009909Y023758D01*
X009843Y023710D01*
X009785Y023652D01*
X009737Y023586D01*
X009700Y023513D01*
X009674Y023435D01*
X009661Y023355D01*
X009661Y022974D01*
X010181Y022974D01*
X010181Y022973D01*
X010182Y022973D01*
X010182Y022974D01*
X010701Y022974D01*
X010701Y023355D01*
X010689Y023435D01*
X010663Y023513D01*
X010626Y023586D01*
X010578Y023652D01*
X010520Y023710D01*
X010454Y023758D01*
X010381Y023796D01*
X010303Y023821D01*
X010222Y023834D01*
X010182Y023834D01*
X010182Y022974D01*
X010181Y022974D01*
X010181Y023834D01*
X010140Y023834D01*
X010060Y023821D01*
X009982Y023796D01*
X010181Y023780D02*
X010182Y023780D01*
X010181Y023621D02*
X010182Y023621D01*
X010181Y023462D02*
X010182Y023462D01*
X010181Y023304D02*
X010182Y023304D01*
X010181Y023145D02*
X010182Y023145D01*
X010181Y022987D02*
X010182Y022987D01*
X010182Y022973D02*
X010701Y022973D01*
X010701Y022593D01*
X010689Y022512D01*
X010663Y022434D01*
X010626Y022361D01*
X010578Y022295D01*
X010520Y022237D01*
X010454Y022189D01*
X010381Y022152D01*
X010303Y022126D01*
X010222Y022114D01*
X010182Y022114D01*
X010182Y022973D01*
X010181Y022973D02*
X010181Y022114D01*
X010140Y022114D01*
X010060Y022126D01*
X009982Y022152D01*
X009909Y022189D01*
X009843Y022237D01*
X009785Y022295D01*
X009737Y022361D01*
X009700Y022434D01*
X009674Y022512D01*
X009661Y022593D01*
X009661Y022973D01*
X010181Y022973D01*
X010181Y022828D02*
X010182Y022828D01*
X010181Y022670D02*
X010182Y022670D01*
X010181Y022511D02*
X010182Y022511D01*
X010181Y022353D02*
X010182Y022353D01*
X010181Y022194D02*
X010182Y022194D01*
X010461Y022194D02*
X011857Y022194D01*
X011713Y022353D02*
X010620Y022353D01*
X010688Y022511D02*
X011648Y022511D01*
X011641Y022670D02*
X010701Y022670D01*
X010701Y022828D02*
X011641Y022828D01*
X011641Y022987D02*
X010701Y022987D01*
X010701Y023145D02*
X011641Y023145D01*
X011641Y023304D02*
X010701Y023304D01*
X010680Y023462D02*
X011659Y023462D01*
X011725Y023621D02*
X010601Y023621D01*
X010412Y023780D02*
X011895Y023780D01*
X012468Y023780D02*
X030111Y023780D01*
X030111Y023938D02*
X000361Y023938D01*
X000361Y023780D02*
X002895Y023780D01*
X002725Y023621D02*
X000361Y023621D01*
X000361Y023462D02*
X002659Y023462D01*
X002641Y023304D02*
X000361Y023304D01*
X000361Y023145D02*
X002641Y023145D01*
X002641Y022987D02*
X000361Y022987D01*
X000361Y022828D02*
X002641Y022828D01*
X002641Y022670D02*
X000361Y022670D01*
X000361Y022511D02*
X002648Y022511D01*
X002713Y022353D02*
X000361Y022353D01*
X000361Y022194D02*
X002857Y022194D01*
X003506Y022194D02*
X003857Y022194D01*
X003713Y022353D02*
X003649Y022353D01*
X004506Y022194D02*
X009902Y022194D01*
X009743Y022353D02*
X004649Y022353D01*
X004715Y022511D02*
X009674Y022511D01*
X009661Y022670D02*
X004721Y022670D01*
X004721Y022828D02*
X009661Y022828D01*
X009661Y022987D02*
X004721Y022987D01*
X004721Y023145D02*
X009661Y023145D01*
X009661Y023304D02*
X004721Y023304D01*
X004704Y023462D02*
X009683Y023462D01*
X009762Y023621D02*
X004638Y023621D01*
X003895Y023780D02*
X003468Y023780D01*
X003638Y023621D02*
X003725Y023621D01*
X002798Y025524D02*
X004850Y025524D01*
X006513Y025524D02*
X010907Y025524D01*
X010894Y025517D02*
X010813Y025458D01*
X010742Y025387D01*
X010683Y025306D01*
X010638Y025217D01*
X010607Y025122D01*
X010593Y025031D01*
X011624Y025031D01*
X011624Y024916D01*
X011739Y024916D01*
X011739Y024339D01*
X012186Y024339D01*
X012285Y024354D01*
X012380Y024385D01*
X012469Y024431D01*
X012550Y024489D01*
X012621Y024560D01*
X012679Y024641D01*
X012725Y024730D01*
X012756Y024825D01*
X012770Y024916D01*
X011739Y024916D01*
X011739Y025031D01*
X012770Y025031D01*
X012756Y025122D01*
X012725Y025217D01*
X012679Y025306D01*
X012621Y025387D01*
X012550Y025458D01*
X012469Y025517D01*
X012380Y025562D01*
X012285Y025593D01*
X012186Y025609D01*
X011739Y025609D01*
X011739Y025031D01*
X011624Y025031D01*
X011624Y025609D01*
X011176Y025609D01*
X011078Y025593D01*
X010983Y025562D01*
X010894Y025517D01*
X010726Y025365D02*
X006671Y025365D01*
X006749Y025206D02*
X010634Y025206D01*
X010595Y025048D02*
X006791Y025048D01*
X006791Y024889D02*
X010597Y024889D01*
X010593Y024916D02*
X010607Y024825D01*
X010638Y024730D01*
X010683Y024641D01*
X010742Y024560D01*
X010813Y024489D01*
X010894Y024431D01*
X010983Y024385D01*
X011078Y024354D01*
X011176Y024339D01*
X011624Y024339D01*
X011624Y024916D01*
X010593Y024916D01*
X010638Y024731D02*
X006745Y024731D01*
X006661Y024572D02*
X010733Y024572D01*
X010927Y024414D02*
X006496Y024414D01*
X002798Y025682D02*
X030111Y025682D01*
X030111Y025524D02*
X012456Y025524D01*
X012637Y025365D02*
X030111Y025365D01*
X030111Y025206D02*
X012728Y025206D01*
X012768Y025048D02*
X030111Y025048D01*
X030111Y024889D02*
X012766Y024889D01*
X012725Y024731D02*
X030111Y024731D01*
X030111Y024572D02*
X012630Y024572D01*
X012436Y024414D02*
X030111Y024414D01*
X030111Y024255D02*
X000361Y024255D01*
X000361Y024097D02*
X030111Y024097D01*
X030651Y025048D02*
X031300Y025048D01*
X031209Y025206D02*
X030651Y025206D01*
X030651Y025365D02*
X031181Y025365D01*
X031202Y025524D02*
X030651Y025524D01*
X030651Y025682D02*
X031283Y025682D01*
X031207Y025841D02*
X030651Y025841D01*
X030651Y025999D02*
X031112Y025999D01*
X031081Y026158D02*
X030651Y026158D01*
X030651Y026316D02*
X031099Y026316D01*
X030111Y025999D02*
X002798Y025999D01*
X002798Y025841D02*
X030111Y025841D01*
X032427Y027426D02*
X033436Y027426D01*
X033222Y027585D02*
X032641Y027585D01*
X032735Y027743D02*
X033127Y027743D01*
X033081Y027902D02*
X032781Y027902D01*
X032781Y028060D02*
X033081Y028060D01*
X033134Y028219D02*
X032729Y028219D01*
X032626Y028377D02*
X033237Y028377D01*
X033562Y028574D02*
X033801Y028574D01*
X034021Y028482D01*
X034190Y028314D01*
X034268Y028126D01*
X034382Y028174D01*
X034581Y028174D01*
X034765Y028098D01*
X034905Y027957D01*
X034981Y027773D01*
X034981Y027574D01*
X034905Y027390D01*
X034765Y027250D01*
X034751Y027244D01*
X034751Y023827D01*
X034751Y023720D01*
X034710Y023621D01*
X034751Y023780D02*
X035180Y023780D01*
X035396Y023938D02*
X034751Y023938D01*
X034751Y024097D02*
X037281Y024097D01*
X037281Y024255D02*
X034751Y024255D01*
X034751Y024414D02*
X037340Y024414D01*
X037473Y024572D02*
X034751Y024572D01*
X034751Y024731D02*
X042371Y024731D01*
X042371Y024889D02*
X034751Y024889D01*
X034751Y025048D02*
X042371Y025048D01*
X042371Y025206D02*
X034751Y025206D01*
X034751Y025365D02*
X042371Y025365D01*
X042371Y025524D02*
X034751Y025524D01*
X034751Y025682D02*
X042371Y025682D01*
X042371Y025841D02*
X034751Y025841D01*
X034751Y025999D02*
X042371Y025999D01*
X042371Y026158D02*
X034751Y026158D01*
X034751Y026316D02*
X042371Y026316D01*
X042371Y026475D02*
X034751Y026475D01*
X034751Y026633D02*
X042371Y026633D01*
X042371Y026792D02*
X034751Y026792D01*
X034751Y026950D02*
X042371Y026950D01*
X042371Y027109D02*
X034751Y027109D01*
X034782Y027268D02*
X042371Y027268D01*
X042371Y027426D02*
X037927Y027426D01*
X038021Y027465D02*
X038190Y027634D01*
X038281Y027854D01*
X038281Y028093D01*
X038190Y028314D01*
X038021Y028482D01*
X037801Y028574D01*
X037562Y028574D01*
X037342Y028482D01*
X037173Y028314D01*
X037081Y028093D01*
X037081Y027854D01*
X037173Y027634D01*
X037342Y027465D01*
X037562Y027374D01*
X037801Y027374D01*
X038021Y027465D01*
X038141Y027585D02*
X042371Y027585D01*
X042371Y027743D02*
X038235Y027743D01*
X038281Y027902D02*
X042371Y027902D01*
X042371Y028060D02*
X038281Y028060D01*
X038229Y028219D02*
X042371Y028219D01*
X042371Y028377D02*
X038126Y028377D01*
X037892Y028536D02*
X042371Y028536D01*
X040007Y029804D02*
X030269Y029804D01*
X030199Y029963D02*
X039783Y029963D01*
X039625Y030121D02*
X030007Y030121D01*
X030280Y030451D02*
X030507Y030357D01*
X030752Y030357D01*
X030978Y030451D01*
X031152Y030625D01*
X031246Y030851D01*
X031246Y031096D01*
X031152Y031323D01*
X030978Y031496D01*
X030752Y031590D01*
X030507Y031590D01*
X030280Y031496D01*
X030107Y031323D01*
X030013Y031096D01*
X030013Y030851D01*
X030107Y030625D01*
X030280Y030451D01*
X030311Y030438D02*
X029691Y030438D01*
X029728Y030597D02*
X030135Y030597D01*
X030053Y030755D02*
X029728Y030755D01*
X029728Y030914D02*
X030013Y030914D01*
X030013Y031073D02*
X029728Y031073D01*
X029728Y031231D02*
X030069Y031231D01*
X030174Y031390D02*
X029728Y031390D01*
X029652Y031548D02*
X030406Y031548D01*
X030853Y031548D02*
X033071Y031548D01*
X033112Y031590D02*
X032995Y031473D01*
X032995Y030475D01*
X033112Y030357D01*
X034110Y030357D01*
X034228Y030475D01*
X034228Y031473D01*
X034110Y031590D01*
X033112Y031590D01*
X032995Y031390D02*
X031085Y031390D01*
X031190Y031231D02*
X032995Y031231D01*
X032995Y031073D02*
X031246Y031073D01*
X031246Y030914D02*
X032995Y030914D01*
X032995Y030755D02*
X031206Y030755D01*
X031124Y030597D02*
X032995Y030597D01*
X033031Y030438D02*
X030947Y030438D01*
X029556Y030121D02*
X028820Y030121D01*
X028881Y029963D02*
X029363Y029963D01*
X029294Y029804D02*
X028881Y029804D01*
X028828Y029646D02*
X029281Y029646D01*
X029317Y029487D02*
X028702Y029487D01*
X028682Y030280D02*
X039523Y030280D01*
X039432Y030438D02*
X035447Y030438D01*
X035478Y030451D02*
X035652Y030625D01*
X035746Y030851D01*
X035746Y031096D01*
X035652Y031323D01*
X035478Y031496D01*
X035252Y031590D01*
X035007Y031590D01*
X034780Y031496D01*
X034607Y031323D01*
X034513Y031096D01*
X034513Y030851D01*
X034607Y030625D01*
X034780Y030451D01*
X035007Y030357D01*
X035252Y030357D01*
X035478Y030451D01*
X035624Y030597D02*
X039385Y030597D01*
X039342Y030755D02*
X035706Y030755D01*
X035746Y030914D02*
X039331Y030914D01*
X039331Y031073D02*
X035746Y031073D01*
X035690Y031231D02*
X039353Y031231D01*
X039395Y031390D02*
X035585Y031390D01*
X035353Y031548D02*
X039454Y031548D01*
X037471Y028536D02*
X033892Y028536D01*
X034126Y028377D02*
X037237Y028377D01*
X037134Y028219D02*
X034229Y028219D01*
X034802Y028060D02*
X037081Y028060D01*
X037081Y027902D02*
X034928Y027902D01*
X034981Y027743D02*
X037127Y027743D01*
X037222Y027585D02*
X034981Y027585D01*
X034920Y027426D02*
X037436Y027426D01*
X038090Y024572D02*
X042371Y024572D01*
X042371Y024414D02*
X038223Y024414D01*
X038281Y024255D02*
X042371Y024255D01*
X042371Y024097D02*
X039791Y024097D01*
X039739Y024149D02*
X038624Y024149D01*
X038506Y024032D01*
X038506Y022916D01*
X038624Y022799D01*
X039739Y022799D01*
X039856Y022916D01*
X039856Y024032D01*
X039739Y024149D01*
X039856Y023938D02*
X042371Y023938D01*
X042371Y023780D02*
X039856Y023780D01*
X039856Y023621D02*
X042371Y023621D01*
X042371Y023462D02*
X039856Y023462D01*
X039856Y023304D02*
X042371Y023304D01*
X042371Y023145D02*
X039856Y023145D01*
X039856Y022987D02*
X042371Y022987D01*
X042371Y022828D02*
X039769Y022828D01*
X039559Y022670D02*
X042371Y022670D01*
X042371Y022511D02*
X039720Y022511D01*
X039806Y022353D02*
X042371Y022353D01*
X042371Y022194D02*
X039856Y022194D01*
X039856Y022036D02*
X042371Y022036D01*
X042371Y021877D02*
X039821Y021877D01*
X039756Y021719D02*
X042371Y021719D01*
X042371Y021560D02*
X039600Y021560D01*
X038763Y021560D02*
X037875Y021560D01*
X037881Y021719D02*
X038607Y021719D01*
X038541Y021877D02*
X037838Y021877D01*
X037727Y022036D02*
X038506Y022036D01*
X038506Y022194D02*
X037243Y022194D01*
X037084Y022353D02*
X038557Y022353D01*
X038642Y022511D02*
X036926Y022511D01*
X036767Y022670D02*
X038803Y022670D01*
X038594Y022828D02*
X036818Y022828D01*
X036976Y022987D02*
X038506Y022987D01*
X038506Y023145D02*
X037135Y023145D01*
X037293Y023304D02*
X038506Y023304D01*
X038506Y023462D02*
X037452Y023462D01*
X037611Y023621D02*
X038506Y023621D01*
X038506Y023780D02*
X038094Y023780D01*
X038225Y023938D02*
X038506Y023938D01*
X038572Y024097D02*
X038281Y024097D01*
X037164Y023938D02*
X035767Y023938D01*
X035983Y023780D02*
X037006Y023780D01*
X036847Y023621D02*
X036062Y023621D01*
X036081Y023462D02*
X036688Y023462D01*
X036530Y023304D02*
X036133Y023304D01*
X036291Y023145D02*
X036371Y023145D01*
X034043Y027426D02*
X033927Y027426D01*
X034191Y030438D02*
X034811Y030438D01*
X034635Y030597D02*
X034228Y030597D01*
X034228Y030755D02*
X034553Y030755D01*
X034513Y030914D02*
X034228Y030914D01*
X034228Y031073D02*
X034513Y031073D01*
X034569Y031231D02*
X034228Y031231D01*
X034228Y031390D02*
X034674Y031390D01*
X034906Y031548D02*
X034152Y031548D01*
X028495Y031231D02*
X027184Y031231D01*
X027390Y031073D02*
X028495Y031073D01*
X028495Y030914D02*
X027723Y030914D01*
X027881Y030755D02*
X028495Y030755D01*
X028495Y030597D02*
X028040Y030597D01*
X028199Y030438D02*
X028531Y030438D01*
X027435Y030438D02*
X027353Y030438D01*
X025493Y030280D02*
X023479Y030280D01*
X022995Y030755D02*
X021906Y030755D01*
X021972Y030597D02*
X022698Y030597D01*
X022550Y030438D02*
X021981Y030438D01*
X021942Y030280D02*
X022484Y030280D01*
X022481Y030121D02*
X021836Y030121D01*
X021751Y029963D02*
X022528Y029963D01*
X022644Y029804D02*
X021751Y029804D01*
X021816Y029646D02*
X022548Y029646D01*
X022482Y029487D02*
X021934Y029487D01*
X021981Y029329D02*
X022476Y029329D01*
X022519Y029170D02*
X021980Y029170D01*
X021914Y029011D02*
X022629Y029011D01*
X023333Y029011D02*
X023743Y029011D01*
X023861Y028853D02*
X021768Y028853D01*
X020311Y030438D02*
X019691Y030438D01*
X019728Y030475D02*
X019610Y030357D01*
X018612Y030357D01*
X018495Y030475D01*
X018495Y031473D01*
X018612Y031590D01*
X019610Y031590D01*
X019728Y031473D01*
X019728Y030475D01*
X019728Y030597D02*
X020135Y030597D01*
X020053Y030755D02*
X019728Y030755D01*
X019728Y030914D02*
X020013Y030914D01*
X020013Y031073D02*
X019728Y031073D01*
X019728Y031231D02*
X020069Y031231D01*
X020174Y031390D02*
X019728Y031390D01*
X019652Y031548D02*
X020406Y031548D01*
X020853Y031548D02*
X023071Y031548D01*
X022995Y031390D02*
X021085Y031390D01*
X021190Y031231D02*
X022995Y031231D01*
X022995Y031073D02*
X021246Y031073D01*
X021725Y030914D02*
X022995Y030914D01*
X018571Y031548D02*
X014033Y031548D01*
X014039Y031546D02*
X013791Y031649D01*
X012572Y031649D01*
X012324Y031546D01*
X012134Y031356D01*
X012031Y031108D01*
X012031Y030839D01*
X012134Y030591D01*
X012324Y030401D01*
X012572Y030299D01*
X013791Y030299D01*
X014039Y030401D01*
X014229Y030591D01*
X014331Y030839D01*
X014331Y031108D01*
X014229Y031356D01*
X014039Y031546D01*
X014195Y031390D02*
X018495Y031390D01*
X018495Y031231D02*
X014280Y031231D01*
X014331Y031073D02*
X018495Y031073D01*
X018495Y030914D02*
X014331Y030914D01*
X014297Y030755D02*
X018495Y030755D01*
X018495Y030597D02*
X014231Y030597D01*
X014076Y030438D02*
X018531Y030438D01*
X024538Y026316D02*
X024832Y026316D01*
X024723Y026475D02*
X024646Y026475D01*
X021740Y022353D02*
X012649Y022353D01*
X012506Y022194D02*
X021601Y022194D01*
X021601Y022036D02*
X000361Y022036D01*
X000361Y021877D02*
X021601Y021877D01*
X021616Y021719D02*
X000361Y021719D01*
X000361Y021560D02*
X021775Y021560D01*
X021789Y021401D02*
X000361Y021401D01*
X000361Y021243D02*
X021630Y021243D01*
X021601Y021084D02*
X000361Y021084D01*
X000361Y020926D02*
X021601Y020926D01*
X021601Y020767D02*
X000361Y020767D01*
X000361Y020609D02*
X021726Y020609D01*
X021885Y020450D02*
X000361Y020450D01*
X000361Y020292D02*
X021618Y020292D01*
X021459Y020133D02*
X000361Y020133D01*
X000361Y019975D02*
X021300Y019975D01*
X020817Y019816D02*
X000361Y019816D01*
X000361Y019657D02*
X020716Y019657D01*
X020681Y019499D02*
X000361Y019499D01*
X000361Y019340D02*
X017542Y019340D01*
X017574Y019354D02*
X017376Y019271D01*
X017224Y019120D01*
X017141Y018921D01*
X017141Y018744D01*
X016711Y018744D01*
X016705Y018757D01*
X016565Y018898D01*
X016381Y018974D01*
X016182Y018974D01*
X015998Y018898D01*
X015858Y018757D01*
X015781Y018573D01*
X015781Y018374D01*
X015858Y018190D01*
X015998Y018050D01*
X015841Y018231D02*
X000361Y018231D01*
X000361Y018389D02*
X015781Y018389D01*
X015781Y018548D02*
X000361Y018548D01*
X000361Y018706D02*
X015837Y018706D01*
X015965Y018865D02*
X000361Y018865D01*
X000361Y019023D02*
X017184Y019023D01*
X017141Y018865D02*
X016597Y018865D01*
X017286Y019182D02*
X000361Y019182D01*
X004504Y017755D02*
X009859Y017755D01*
X009714Y017596D02*
X004649Y017596D01*
X004714Y017438D02*
X009648Y017438D01*
X009641Y017279D02*
X004721Y017279D01*
X004721Y017121D02*
X009641Y017121D01*
X009641Y016962D02*
X004721Y016962D01*
X004721Y016804D02*
X009641Y016804D01*
X009641Y016645D02*
X004721Y016645D01*
X002211Y014901D02*
X002151Y014901D01*
X002151Y014743D02*
X002211Y014743D01*
X002211Y014584D02*
X002151Y014584D01*
X001389Y014901D02*
X000361Y014901D01*
X000361Y014743D02*
X001267Y014743D01*
X001212Y014584D02*
X000361Y014584D01*
X000361Y014426D02*
X001202Y014426D01*
X001239Y014267D02*
X000361Y014267D01*
X000361Y014108D02*
X001330Y014108D01*
X001409Y013950D02*
X000361Y013950D01*
X000361Y013791D02*
X001264Y013791D01*
X001198Y013633D02*
X000361Y013633D01*
X000361Y013474D02*
X001181Y013474D01*
X001197Y013316D02*
X000361Y013316D01*
X000361Y013157D02*
X001263Y013157D01*
X001408Y012999D02*
X000361Y012999D01*
X000361Y012840D02*
X001299Y012840D01*
X001218Y012682D02*
X000361Y012682D01*
X000361Y012523D02*
X001181Y012523D01*
X001181Y012364D02*
X000361Y012364D01*
X000361Y012206D02*
X001243Y012206D01*
X001359Y012047D02*
X000361Y012047D01*
X000361Y011889D02*
X001348Y011889D01*
X001238Y011730D02*
X000361Y011730D01*
X000361Y011572D02*
X001181Y011572D01*
X001181Y011413D02*
X000361Y011413D01*
X000361Y011255D02*
X001223Y011255D01*
X001310Y011096D02*
X000361Y011096D01*
X000361Y010938D02*
X001508Y010938D01*
X000361Y010779D02*
X010405Y010779D01*
X010564Y010938D02*
X002855Y010938D01*
X003052Y011096D02*
X010722Y011096D01*
X010246Y010620D02*
X000361Y010620D01*
X000361Y010462D02*
X010088Y010462D01*
X009929Y010303D02*
X000361Y010303D01*
X000361Y010145D02*
X009771Y010145D01*
X009612Y009986D02*
X000361Y009986D01*
X000361Y009828D02*
X009454Y009828D01*
X009295Y009669D02*
X000361Y009669D01*
X000361Y009511D02*
X009137Y009511D01*
X008978Y009352D02*
X000361Y009352D01*
X000361Y009194D02*
X008820Y009194D01*
X008661Y009035D02*
X000361Y009035D01*
X000361Y008876D02*
X008502Y008876D01*
X008344Y008718D02*
X000361Y008718D01*
X000361Y008559D02*
X008185Y008559D01*
X008632Y008242D02*
X038789Y008242D01*
X038817Y008264D02*
X038749Y008211D01*
X038688Y008151D01*
X038636Y008082D01*
X038593Y008008D01*
X038560Y007929D01*
X038538Y007846D01*
X038526Y007761D01*
X038526Y007756D01*
X039143Y007756D01*
X039143Y007680D01*
X038526Y007680D01*
X038526Y007675D01*
X038538Y007590D01*
X038560Y007507D01*
X038593Y007427D01*
X038636Y007353D01*
X038688Y007285D01*
X038749Y007224D01*
X038817Y007172D01*
X038891Y007129D01*
X038970Y007096D01*
X039053Y007074D01*
X039138Y007063D01*
X039143Y007063D01*
X039143Y007679D01*
X039220Y007679D01*
X039220Y007063D01*
X039224Y007063D01*
X039309Y007074D01*
X039392Y007096D01*
X039472Y007129D01*
X039546Y007172D01*
X039614Y007224D01*
X039675Y007285D01*
X039727Y007353D01*
X039770Y007427D01*
X039803Y007507D01*
X039825Y007590D01*
X039836Y007675D01*
X039836Y007680D01*
X039220Y007680D01*
X039220Y007756D01*
X039836Y007756D01*
X039836Y007761D01*
X039825Y007846D01*
X039803Y007929D01*
X039770Y008008D01*
X039727Y008082D01*
X039675Y008151D01*
X039614Y008211D01*
X039546Y008264D01*
X039472Y008306D01*
X039392Y008339D01*
X039309Y008362D01*
X039224Y008373D01*
X039220Y008373D01*
X039220Y007756D01*
X039143Y007756D01*
X039143Y008373D01*
X039138Y008373D01*
X039053Y008362D01*
X038970Y008339D01*
X038891Y008306D01*
X038817Y008264D01*
X038637Y008084D02*
X008477Y008084D01*
X008481Y007925D02*
X038559Y007925D01*
X038527Y007767D02*
X008437Y007767D01*
X008323Y007608D02*
X038535Y007608D01*
X038584Y007450D02*
X003046Y007450D01*
X003070Y007467D02*
X003136Y007533D01*
X003191Y007609D01*
X003234Y007693D01*
X003263Y007782D01*
X003278Y007875D01*
X003278Y007883D01*
X002720Y007883D01*
X002720Y007960D01*
X003278Y007960D01*
X003278Y007969D01*
X003263Y008061D01*
X003234Y008151D01*
X003191Y008234D01*
X003136Y008310D01*
X003070Y008376D01*
X002994Y008432D01*
X002910Y008474D01*
X002821Y008503D01*
X002728Y008518D01*
X002720Y008518D01*
X002720Y007960D01*
X002643Y007960D01*
X002643Y007883D01*
X002720Y007883D01*
X002720Y007325D01*
X002728Y007325D01*
X002821Y007340D01*
X002910Y007369D01*
X002994Y007412D01*
X003070Y007467D01*
X003191Y007608D02*
X007640Y007608D01*
X007526Y007767D02*
X003258Y007767D01*
X003256Y008084D02*
X007486Y008084D01*
X007481Y007925D02*
X002720Y007925D01*
X002643Y007925D02*
X000361Y007925D01*
X000361Y007767D02*
X002105Y007767D01*
X002100Y007782D02*
X002129Y007693D01*
X002171Y007609D01*
X002227Y007533D01*
X002293Y007467D01*
X002369Y007412D01*
X002453Y007369D01*
X002542Y007340D01*
X002634Y007325D01*
X002643Y007325D01*
X002643Y007883D01*
X002085Y007883D01*
X002085Y007875D01*
X002100Y007782D01*
X002085Y007960D02*
X002643Y007960D01*
X002643Y008518D01*
X002634Y008518D01*
X002542Y008503D01*
X002453Y008474D01*
X002369Y008432D01*
X002293Y008376D01*
X002227Y008310D01*
X002171Y008234D01*
X002129Y008151D01*
X002100Y008061D01*
X002085Y007969D01*
X002085Y007960D01*
X002107Y008084D02*
X000361Y008084D01*
X000361Y008242D02*
X002177Y008242D01*
X002327Y008401D02*
X000361Y008401D01*
X000361Y007608D02*
X002172Y007608D01*
X002317Y007450D02*
X000361Y007450D01*
X000361Y007291D02*
X038683Y007291D01*
X038885Y007133D02*
X000361Y007133D01*
X000361Y006974D02*
X002136Y006974D01*
X002182Y007020D02*
X002065Y006903D01*
X002065Y005905D01*
X002182Y005787D01*
X003180Y005787D01*
X003298Y005905D01*
X003298Y006903D01*
X003180Y007020D01*
X002182Y007020D01*
X002065Y006815D02*
X000361Y006815D01*
X000361Y006657D02*
X002065Y006657D01*
X002065Y006498D02*
X000361Y006498D01*
X000361Y006340D02*
X002065Y006340D01*
X002065Y006181D02*
X000361Y006181D01*
X000361Y006023D02*
X002065Y006023D01*
X002106Y005864D02*
X000361Y005864D01*
X000361Y005706D02*
X028306Y005706D01*
X028258Y005657D02*
X028398Y005798D01*
X028582Y005874D01*
X028781Y005874D01*
X028965Y005798D01*
X029105Y005657D01*
X029181Y005473D01*
X029181Y005274D01*
X029176Y005261D01*
X031288Y003149D01*
X031438Y003149D01*
X031686Y003046D01*
X031876Y002856D01*
X031978Y002608D01*
X031978Y002339D01*
X031876Y002091D01*
X031686Y001901D01*
X031438Y001799D01*
X031169Y001799D01*
X030921Y001901D01*
X030731Y002091D01*
X030628Y002339D01*
X030628Y002608D01*
X030731Y002856D01*
X030774Y002899D01*
X029181Y004492D01*
X029181Y004474D01*
X029176Y004461D01*
X029934Y003703D01*
X030010Y003627D01*
X030051Y003527D01*
X030051Y003149D01*
X030060Y003149D01*
X030308Y003046D01*
X030498Y002856D01*
X030600Y002608D01*
X030600Y002339D01*
X030498Y002091D01*
X030308Y001901D01*
X030060Y001799D01*
X029791Y001799D01*
X029543Y001901D01*
X029353Y002091D01*
X029251Y002339D01*
X029251Y002608D01*
X029353Y002856D01*
X029511Y003014D01*
X029511Y003362D01*
X028794Y004079D01*
X028781Y004074D01*
X028582Y004074D01*
X028398Y004150D01*
X028258Y004290D01*
X028181Y004474D01*
X028181Y004673D01*
X028258Y004857D01*
X028374Y004974D01*
X028258Y005090D01*
X028181Y005274D01*
X028181Y005473D01*
X028258Y005657D01*
X028212Y005547D02*
X022545Y005547D01*
X022481Y005574D02*
X022282Y005574D01*
X022098Y005498D01*
X021958Y005357D01*
X021911Y005244D01*
X021611Y005244D01*
X021605Y005257D01*
X021465Y005398D01*
X021281Y005474D01*
X021082Y005474D01*
X020898Y005398D01*
X020758Y005257D01*
X020681Y005073D01*
X020681Y004874D01*
X020758Y004690D01*
X020898Y004550D01*
X021082Y004474D01*
X021281Y004474D01*
X021465Y004550D01*
X021605Y004690D01*
X021611Y004704D01*
X022044Y004704D01*
X022098Y004650D01*
X022282Y004574D01*
X022481Y004574D01*
X022665Y004650D01*
X022805Y004790D01*
X022881Y004974D01*
X022881Y005173D01*
X022805Y005357D01*
X022665Y005498D01*
X022481Y005574D01*
X022218Y005547D02*
X000361Y005547D01*
X000361Y005389D02*
X020889Y005389D01*
X020746Y005230D02*
X000361Y005230D01*
X000361Y005071D02*
X020681Y005071D01*
X020681Y004913D02*
X000361Y004913D01*
X000361Y004754D02*
X020731Y004754D01*
X020852Y004596D02*
X000361Y004596D01*
X000361Y004437D02*
X022839Y004437D01*
X022859Y004457D02*
X022698Y004297D01*
X022611Y004087D01*
X022611Y003860D01*
X022698Y003651D01*
X022859Y003490D01*
X023068Y003404D01*
X023295Y003404D01*
X023504Y003490D01*
X023665Y003651D01*
X023751Y003860D01*
X023751Y004087D01*
X023665Y004297D01*
X023504Y004457D01*
X023295Y004544D01*
X023068Y004544D01*
X022859Y004457D01*
X022691Y004279D02*
X000361Y004279D01*
X000361Y004120D02*
X022625Y004120D01*
X022611Y003962D02*
X000361Y003962D01*
X000361Y003803D02*
X001927Y003803D01*
X002004Y003824D02*
X001660Y003732D01*
X001352Y003554D01*
X001101Y003303D01*
X000923Y002995D01*
X000831Y002651D01*
X000831Y002296D01*
X000923Y001953D01*
X001101Y001645D01*
X001352Y001393D01*
X001660Y001216D01*
X002004Y001124D01*
X002359Y001124D01*
X002702Y001216D01*
X003010Y001393D01*
X003262Y001645D01*
X003439Y001953D01*
X003531Y002296D01*
X003531Y002651D01*
X003439Y002995D01*
X003262Y003303D01*
X003010Y003554D01*
X002702Y003732D01*
X002359Y003824D01*
X002004Y003824D01*
X002436Y003803D02*
X022635Y003803D01*
X022704Y003645D02*
X002853Y003645D01*
X003078Y003486D02*
X022869Y003486D01*
X023494Y003486D02*
X029387Y003486D01*
X029511Y003327D02*
X012076Y003327D01*
X012021Y003382D02*
X011801Y003474D01*
X011562Y003474D01*
X011342Y003382D01*
X011181Y003222D01*
X011021Y003382D01*
X010801Y003474D01*
X010562Y003474D01*
X010342Y003382D01*
X010181Y003222D01*
X010021Y003382D01*
X009801Y003474D01*
X009562Y003474D01*
X009342Y003382D01*
X009181Y003222D01*
X009021Y003382D01*
X008801Y003474D01*
X008562Y003474D01*
X008342Y003382D01*
X008173Y003214D01*
X008165Y003195D01*
X008124Y003252D01*
X008059Y003316D01*
X007985Y003370D01*
X007904Y003411D01*
X007817Y003439D01*
X007727Y003454D01*
X007711Y003454D01*
X007711Y002504D01*
X007651Y002504D01*
X007651Y002444D01*
X007261Y002444D01*
X006712Y002444D01*
X006712Y002504D01*
X007261Y002504D01*
X007651Y002504D01*
X007651Y003454D01*
X007636Y003454D01*
X007546Y003439D01*
X007459Y003411D01*
X007377Y003370D01*
X007304Y003316D01*
X007239Y003252D01*
X007185Y003178D01*
X007181Y003170D01*
X007177Y003178D01*
X007124Y003252D01*
X007059Y003316D01*
X006985Y003370D01*
X006904Y003411D01*
X006817Y003439D01*
X006727Y003454D01*
X006711Y003454D01*
X006711Y002504D01*
X006651Y002504D01*
X006651Y002444D01*
X006101Y002444D01*
X006101Y002028D01*
X006116Y001938D01*
X006144Y001851D01*
X006185Y001770D01*
X006239Y001696D01*
X006304Y001631D01*
X006377Y001578D01*
X006459Y001536D01*
X006546Y001508D01*
X006636Y001494D01*
X006651Y001494D01*
X006651Y002443D01*
X006711Y002443D01*
X006711Y001494D01*
X006727Y001494D01*
X006817Y001508D01*
X006904Y001536D01*
X006985Y001578D01*
X007059Y001631D01*
X007124Y001696D01*
X007177Y001770D01*
X007181Y001777D01*
X007185Y001770D01*
X007239Y001696D01*
X007304Y001631D01*
X007377Y001578D01*
X007459Y001536D01*
X007546Y001508D01*
X007636Y001494D01*
X007651Y001494D01*
X007651Y002443D01*
X007711Y002443D01*
X007711Y001494D01*
X007727Y001494D01*
X007817Y001508D01*
X007904Y001536D01*
X007985Y001578D01*
X008059Y001631D01*
X008124Y001696D01*
X008165Y001753D01*
X008173Y001734D01*
X008342Y001565D01*
X008562Y001474D01*
X008801Y001474D01*
X009021Y001565D01*
X009181Y001725D01*
X009342Y001565D01*
X009562Y001474D01*
X009801Y001474D01*
X010021Y001565D01*
X010181Y001725D01*
X010342Y001565D01*
X010562Y001474D01*
X010801Y001474D01*
X011021Y001565D01*
X011181Y001725D01*
X011342Y001565D01*
X011562Y001474D01*
X011801Y001474D01*
X012021Y001565D01*
X012190Y001734D01*
X012281Y001954D01*
X012281Y002993D01*
X012190Y003214D01*
X012021Y003382D01*
X012209Y003169D02*
X029511Y003169D01*
X029508Y003010D02*
X021856Y003010D01*
X021856Y003032D02*
X021739Y003149D01*
X020624Y003149D01*
X020506Y003032D01*
X020506Y001916D01*
X020624Y001799D01*
X021739Y001799D01*
X021856Y001916D01*
X021856Y003032D01*
X021856Y002852D02*
X029352Y002852D01*
X029286Y002693D02*
X021856Y002693D01*
X021856Y002535D02*
X023047Y002535D01*
X023068Y002544D02*
X022859Y002457D01*
X022698Y002297D01*
X022611Y002087D01*
X022611Y001860D01*
X022698Y001651D01*
X022859Y001490D01*
X023068Y001404D01*
X023295Y001404D01*
X023504Y001490D01*
X023665Y001651D01*
X023751Y001860D01*
X023751Y002087D01*
X023665Y002297D01*
X023504Y002457D01*
X023295Y002544D01*
X023068Y002544D01*
X023316Y002535D02*
X029251Y002535D01*
X029251Y002376D02*
X023585Y002376D01*
X023697Y002218D02*
X029301Y002218D01*
X029385Y002059D02*
X023751Y002059D01*
X023751Y001901D02*
X029545Y001901D01*
X030306Y001901D02*
X030923Y001901D01*
X030763Y002059D02*
X030466Y002059D01*
X030550Y002218D02*
X030679Y002218D01*
X030628Y002376D02*
X030600Y002376D01*
X030600Y002535D02*
X030628Y002535D01*
X030664Y002693D02*
X030565Y002693D01*
X030499Y002852D02*
X030730Y002852D01*
X030663Y003010D02*
X030343Y003010D01*
X030504Y003169D02*
X030051Y003169D01*
X030051Y003327D02*
X030346Y003327D01*
X030187Y003486D02*
X030051Y003486D01*
X030029Y003645D02*
X029992Y003645D01*
X029870Y003803D02*
X029834Y003803D01*
X029712Y003962D02*
X029675Y003962D01*
X029553Y004120D02*
X029517Y004120D01*
X029395Y004279D02*
X029358Y004279D01*
X029236Y004437D02*
X029200Y004437D01*
X029524Y004913D02*
X042371Y004913D01*
X042371Y005071D02*
X029365Y005071D01*
X029207Y005230D02*
X042371Y005230D01*
X042371Y005389D02*
X029181Y005389D01*
X029151Y005547D02*
X042371Y005547D01*
X042371Y005706D02*
X029057Y005706D01*
X028804Y005864D02*
X042371Y005864D01*
X042371Y006023D02*
X003298Y006023D01*
X003298Y006181D02*
X042371Y006181D01*
X042371Y006340D02*
X003298Y006340D01*
X003298Y006498D02*
X042371Y006498D01*
X042371Y006657D02*
X003298Y006657D01*
X003298Y006815D02*
X042371Y006815D01*
X042371Y006974D02*
X003226Y006974D01*
X002720Y007450D02*
X002643Y007450D01*
X002643Y007608D02*
X002720Y007608D01*
X002720Y007767D02*
X002643Y007767D01*
X002643Y008084D02*
X002720Y008084D01*
X002720Y008242D02*
X002643Y008242D01*
X002643Y008401D02*
X002720Y008401D01*
X003036Y008401D02*
X007706Y008401D01*
X007551Y008242D02*
X003185Y008242D01*
X003257Y005864D02*
X028559Y005864D01*
X028181Y005389D02*
X022774Y005389D01*
X022858Y005230D02*
X028200Y005230D01*
X028277Y005071D02*
X022881Y005071D01*
X022856Y004913D02*
X028314Y004913D01*
X028215Y004754D02*
X022769Y004754D01*
X022534Y004596D02*
X028181Y004596D01*
X028197Y004437D02*
X023524Y004437D01*
X023672Y004279D02*
X028269Y004279D01*
X028470Y004120D02*
X023738Y004120D01*
X023751Y003962D02*
X028912Y003962D01*
X029070Y003803D02*
X023728Y003803D01*
X023658Y003645D02*
X029229Y003645D01*
X030158Y004279D02*
X034191Y004279D01*
X034198Y004297D02*
X034111Y004087D01*
X034111Y003860D01*
X034198Y003651D01*
X034359Y003490D01*
X034568Y003404D01*
X034795Y003404D01*
X035004Y003490D01*
X035165Y003651D01*
X035251Y003860D01*
X035251Y004087D01*
X035165Y004297D01*
X035004Y004457D01*
X034795Y004544D01*
X034568Y004544D01*
X034359Y004457D01*
X034198Y004297D01*
X034125Y004120D02*
X030317Y004120D01*
X030475Y003962D02*
X034111Y003962D01*
X034135Y003803D02*
X030634Y003803D01*
X030792Y003645D02*
X034204Y003645D01*
X034369Y003486D02*
X030951Y003486D01*
X031109Y003327D02*
X039626Y003327D01*
X039601Y003303D02*
X039852Y003554D01*
X040160Y003732D01*
X040504Y003824D01*
X040859Y003824D01*
X041202Y003732D01*
X041510Y003554D01*
X041762Y003303D01*
X041939Y002995D01*
X042031Y002651D01*
X042031Y002296D01*
X041939Y001953D01*
X041762Y001645D01*
X041510Y001393D01*
X041202Y001216D01*
X040859Y001124D01*
X040504Y001124D01*
X040160Y001216D01*
X039852Y001393D01*
X039601Y001645D01*
X039423Y001953D01*
X039331Y002296D01*
X039331Y002651D01*
X039423Y002995D01*
X039601Y003303D01*
X039524Y003169D02*
X031268Y003169D01*
X031721Y003010D02*
X032006Y003010D01*
X032006Y003032D02*
X032124Y003149D01*
X033239Y003149D01*
X033356Y003032D01*
X033356Y001916D01*
X033239Y001799D01*
X032124Y001799D01*
X032006Y001916D01*
X032006Y003032D01*
X032006Y002852D02*
X031877Y002852D01*
X031943Y002693D02*
X032006Y002693D01*
X032006Y002535D02*
X031978Y002535D01*
X031978Y002376D02*
X032006Y002376D01*
X032006Y002218D02*
X031928Y002218D01*
X032006Y002059D02*
X031843Y002059D01*
X031684Y001901D02*
X032022Y001901D01*
X033341Y001901D02*
X034111Y001901D01*
X034111Y001860D02*
X034198Y001651D01*
X034359Y001490D01*
X034568Y001404D01*
X034795Y001404D01*
X035004Y001490D01*
X035165Y001651D01*
X035251Y001860D01*
X035251Y002087D01*
X035165Y002297D01*
X035004Y002457D01*
X034795Y002544D01*
X034568Y002544D01*
X034359Y002457D01*
X034198Y002297D01*
X034111Y002087D01*
X034111Y001860D01*
X034160Y001742D02*
X023702Y001742D01*
X023597Y001584D02*
X034265Y001584D01*
X034517Y001425D02*
X023346Y001425D01*
X023017Y001425D02*
X003042Y001425D01*
X003200Y001584D02*
X006369Y001584D01*
X006205Y001742D02*
X003318Y001742D01*
X003409Y001901D02*
X006128Y001901D01*
X006101Y002059D02*
X003468Y002059D01*
X003510Y002218D02*
X006101Y002218D01*
X006101Y002376D02*
X003531Y002376D01*
X003531Y002535D02*
X006101Y002535D01*
X006101Y002504D02*
X006651Y002504D01*
X006651Y003454D01*
X006636Y003454D01*
X006546Y003439D01*
X006459Y003411D01*
X006377Y003370D01*
X006304Y003316D01*
X006239Y003252D01*
X006185Y003178D01*
X006144Y003096D01*
X006116Y003010D01*
X003430Y003010D01*
X003478Y002852D02*
X006101Y002852D01*
X006101Y002919D02*
X006101Y002504D01*
X006101Y002693D02*
X003520Y002693D01*
X003339Y003169D02*
X006181Y003169D01*
X006116Y003010D02*
X006101Y002919D01*
X006651Y002852D02*
X006711Y002852D01*
X006711Y003010D02*
X006651Y003010D01*
X006651Y003169D02*
X006711Y003169D01*
X006711Y003327D02*
X006651Y003327D01*
X006319Y003327D02*
X003237Y003327D01*
X001509Y003645D02*
X000361Y003645D01*
X000361Y003486D02*
X001285Y003486D01*
X001126Y003327D02*
X000361Y003327D01*
X000361Y003169D02*
X001024Y003169D01*
X000932Y003010D02*
X000361Y003010D01*
X000361Y002852D02*
X000885Y002852D01*
X000843Y002693D02*
X000361Y002693D01*
X000361Y002535D02*
X000831Y002535D01*
X000831Y002376D02*
X000361Y002376D01*
X000361Y002218D02*
X000852Y002218D01*
X000895Y002059D02*
X000361Y002059D01*
X000361Y001901D02*
X000953Y001901D01*
X001045Y001742D02*
X000361Y001742D01*
X000361Y001584D02*
X001162Y001584D01*
X001321Y001425D02*
X000361Y001425D01*
X000361Y001266D02*
X001572Y001266D01*
X002790Y001266D02*
X040072Y001266D01*
X039821Y001425D02*
X034846Y001425D01*
X035097Y001584D02*
X039662Y001584D01*
X039545Y001742D02*
X035202Y001742D01*
X035251Y001901D02*
X039453Y001901D01*
X039395Y002059D02*
X035251Y002059D01*
X035197Y002218D02*
X039352Y002218D01*
X039331Y002376D02*
X035085Y002376D01*
X034816Y002535D02*
X039331Y002535D01*
X039343Y002693D02*
X033356Y002693D01*
X033356Y002535D02*
X034547Y002535D01*
X034278Y002376D02*
X033356Y002376D01*
X033356Y002218D02*
X034166Y002218D01*
X034111Y002059D02*
X033356Y002059D01*
X033356Y002852D02*
X039385Y002852D01*
X039432Y003010D02*
X033356Y003010D01*
X034994Y003486D02*
X039785Y003486D01*
X040009Y003645D02*
X035158Y003645D01*
X035228Y003803D02*
X040427Y003803D01*
X040936Y003803D02*
X042371Y003803D01*
X042371Y003645D02*
X041353Y003645D01*
X041578Y003486D02*
X042371Y003486D01*
X042371Y003327D02*
X041737Y003327D01*
X041839Y003169D02*
X042371Y003169D01*
X042371Y003010D02*
X041930Y003010D01*
X041978Y002852D02*
X042371Y002852D01*
X042371Y002693D02*
X042020Y002693D01*
X042031Y002535D02*
X042371Y002535D01*
X042371Y002376D02*
X042031Y002376D01*
X042010Y002218D02*
X042371Y002218D01*
X042371Y002059D02*
X041968Y002059D01*
X041909Y001901D02*
X042371Y001901D01*
X042371Y001742D02*
X041818Y001742D01*
X041700Y001584D02*
X042371Y001584D01*
X042371Y001425D02*
X041542Y001425D01*
X041290Y001266D02*
X042371Y001266D01*
X042371Y001108D02*
X000361Y001108D01*
X000361Y000949D02*
X042371Y000949D01*
X042371Y000791D02*
X000361Y000791D01*
X006651Y001584D02*
X006711Y001584D01*
X006711Y001742D02*
X006651Y001742D01*
X006651Y001901D02*
X006711Y001901D01*
X006711Y002059D02*
X006651Y002059D01*
X006651Y002218D02*
X006711Y002218D01*
X006711Y002376D02*
X006651Y002376D01*
X006651Y002535D02*
X006711Y002535D01*
X006711Y002693D02*
X006651Y002693D01*
X007044Y003327D02*
X007319Y003327D01*
X007651Y003327D02*
X007711Y003327D01*
X007711Y003169D02*
X007651Y003169D01*
X007651Y003010D02*
X007711Y003010D01*
X007711Y002852D02*
X007651Y002852D01*
X007651Y002693D02*
X007711Y002693D01*
X007711Y002535D02*
X007651Y002535D01*
X007651Y002376D02*
X007711Y002376D01*
X007711Y002218D02*
X007651Y002218D01*
X007651Y002059D02*
X007711Y002059D01*
X007711Y001901D02*
X007651Y001901D01*
X007651Y001742D02*
X007711Y001742D01*
X007711Y001584D02*
X007651Y001584D01*
X007369Y001584D02*
X006993Y001584D01*
X007157Y001742D02*
X007205Y001742D01*
X007993Y001584D02*
X008323Y001584D01*
X008169Y001742D02*
X008157Y001742D01*
X009040Y001584D02*
X009323Y001584D01*
X010040Y001584D02*
X010323Y001584D01*
X011040Y001584D02*
X011323Y001584D01*
X012040Y001584D02*
X022765Y001584D01*
X022660Y001742D02*
X012193Y001742D01*
X012259Y001901D02*
X018045Y001901D01*
X018043Y001901D02*
X018291Y001799D01*
X018560Y001799D01*
X018808Y001901D01*
X018998Y002091D01*
X019100Y002339D01*
X019100Y002608D01*
X018998Y002856D01*
X018808Y003046D01*
X018560Y003149D01*
X018291Y003149D01*
X018043Y003046D01*
X017853Y002856D01*
X017751Y002608D01*
X017751Y002339D01*
X017853Y002091D01*
X018043Y001901D01*
X017885Y002059D02*
X012281Y002059D01*
X012281Y002218D02*
X017801Y002218D01*
X017751Y002376D02*
X012281Y002376D01*
X012281Y002535D02*
X017751Y002535D01*
X017786Y002693D02*
X012281Y002693D01*
X012281Y002852D02*
X017852Y002852D01*
X018008Y003010D02*
X012274Y003010D01*
X011287Y003327D02*
X011076Y003327D01*
X010287Y003327D02*
X010076Y003327D01*
X009287Y003327D02*
X009076Y003327D01*
X008287Y003327D02*
X008044Y003327D01*
X008790Y008401D02*
X042371Y008401D01*
X042371Y008559D02*
X039600Y008559D01*
X039564Y008524D02*
X039754Y008713D01*
X039856Y008961D01*
X039856Y009230D01*
X039754Y009478D01*
X039564Y009668D01*
X039316Y009771D01*
X039047Y009771D01*
X038799Y009668D01*
X038609Y009478D01*
X038506Y009230D01*
X038506Y008961D01*
X038609Y008713D01*
X038799Y008524D01*
X039047Y008421D01*
X039316Y008421D01*
X039564Y008524D01*
X039756Y008718D02*
X042371Y008718D01*
X042371Y008876D02*
X039821Y008876D01*
X039856Y009035D02*
X042371Y009035D01*
X042371Y009194D02*
X039856Y009194D01*
X039806Y009352D02*
X042371Y009352D01*
X042371Y009511D02*
X039721Y009511D01*
X039561Y009669D02*
X042371Y009669D01*
X042371Y009828D02*
X039768Y009828D01*
X039739Y009799D02*
X039856Y009916D01*
X039856Y011032D01*
X039739Y011149D01*
X038624Y011149D01*
X038506Y011032D01*
X038506Y009916D01*
X038624Y009799D01*
X039739Y009799D01*
X039856Y009986D02*
X042371Y009986D01*
X042371Y010145D02*
X039856Y010145D01*
X039856Y010303D02*
X042371Y010303D01*
X042371Y010462D02*
X039856Y010462D01*
X039856Y010620D02*
X042371Y010620D01*
X042371Y010779D02*
X039856Y010779D01*
X039856Y010938D02*
X042371Y010938D01*
X042371Y011096D02*
X039792Y011096D01*
X038571Y011096D02*
X038286Y011096D01*
X038272Y010938D02*
X038506Y010938D01*
X038506Y010779D02*
X038201Y010779D01*
X038101Y010620D02*
X038506Y010620D01*
X038506Y010462D02*
X038101Y010462D01*
X038101Y010303D02*
X038506Y010303D01*
X038506Y010145D02*
X038216Y010145D01*
X038281Y009986D02*
X038506Y009986D01*
X038594Y009828D02*
X038286Y009828D01*
X038243Y009669D02*
X038802Y009669D01*
X038642Y009511D02*
X038133Y009511D01*
X038557Y009352D02*
X009742Y009352D01*
X009900Y009511D02*
X037430Y009511D01*
X038506Y009194D02*
X009583Y009194D01*
X009425Y009035D02*
X038506Y009035D01*
X038542Y008876D02*
X009266Y008876D01*
X009107Y008718D02*
X038607Y008718D01*
X038763Y008559D02*
X008949Y008559D01*
X016635Y010938D02*
X016928Y010938D01*
X020054Y014743D02*
X020309Y014743D01*
X020193Y014901D02*
X020169Y014901D01*
X021054Y014743D02*
X021309Y014743D01*
X021193Y014901D02*
X021169Y014901D01*
X022054Y014743D02*
X022309Y014743D01*
X022193Y014901D02*
X022170Y014901D01*
X023054Y014743D02*
X023309Y014743D01*
X023193Y014901D02*
X023170Y014901D01*
X024054Y014743D02*
X024337Y014743D01*
X024216Y014901D02*
X024170Y014901D01*
X026089Y016169D02*
X026274Y016169D01*
X026512Y016328D02*
X025851Y016328D01*
X026851Y016328D02*
X027512Y016328D01*
X027274Y016169D02*
X027089Y016169D01*
X027851Y016328D02*
X028512Y016328D01*
X028274Y016169D02*
X028089Y016169D01*
X028851Y016328D02*
X029512Y016328D01*
X029274Y016169D02*
X029089Y016169D01*
X029851Y016328D02*
X030512Y016328D01*
X030274Y016169D02*
X030089Y016169D01*
X030170Y014901D02*
X030193Y014901D01*
X030309Y014743D02*
X030054Y014743D01*
X029774Y014584D02*
X030411Y014584D01*
X030411Y014426D02*
X029615Y014426D01*
X029456Y014267D02*
X030411Y014267D01*
X030411Y014108D02*
X029298Y014108D01*
X029139Y013950D02*
X030411Y013950D01*
X030411Y013791D02*
X028981Y013791D01*
X028822Y013633D02*
X030411Y013633D01*
X030411Y013474D02*
X028664Y013474D01*
X028505Y013316D02*
X030411Y013316D01*
X030411Y013157D02*
X028347Y013157D01*
X028188Y012999D02*
X030411Y012999D01*
X030411Y012840D02*
X028030Y012840D01*
X027871Y012682D02*
X030411Y012682D01*
X030411Y012523D02*
X027713Y012523D01*
X027554Y012364D02*
X030411Y012364D01*
X030411Y012206D02*
X027395Y012206D01*
X027237Y012047D02*
X030411Y012047D01*
X030411Y011889D02*
X027078Y011889D01*
X026920Y011730D02*
X030411Y011730D01*
X030298Y011572D02*
X026761Y011572D01*
X026603Y011413D02*
X030139Y011413D01*
X029981Y011255D02*
X026444Y011255D01*
X026286Y011096D02*
X029822Y011096D01*
X029664Y010938D02*
X026127Y010938D01*
X025969Y010779D02*
X029505Y010779D01*
X029021Y010620D02*
X025810Y010620D01*
X025781Y010462D02*
X028918Y010462D01*
X028881Y010303D02*
X025752Y010303D01*
X025660Y010145D02*
X028894Y010145D01*
X033304Y011889D02*
X042371Y011889D01*
X042371Y012047D02*
X033429Y012047D01*
X033481Y012206D02*
X042371Y012206D01*
X042371Y012364D02*
X033481Y012364D01*
X033419Y012523D02*
X042371Y012523D01*
X042371Y012682D02*
X033281Y012682D01*
X033251Y012840D02*
X042371Y012840D01*
X042371Y012999D02*
X033251Y012999D01*
X033372Y013157D02*
X042371Y013157D01*
X042371Y013316D02*
X033457Y013316D01*
X030951Y014267D02*
X038527Y014267D01*
X038526Y014261D02*
X038526Y014256D01*
X039143Y014256D01*
X039143Y014873D01*
X039138Y014873D01*
X039053Y014862D01*
X038970Y014839D01*
X038891Y014806D01*
X038817Y014764D01*
X038749Y014711D01*
X038688Y014651D01*
X038636Y014582D01*
X038593Y014508D01*
X038560Y014429D01*
X038538Y014346D01*
X038526Y014261D01*
X038559Y014426D02*
X030951Y014426D01*
X030951Y014584D02*
X038637Y014584D01*
X038789Y014743D02*
X031054Y014743D01*
X030296Y017755D02*
X030066Y017755D01*
X030175Y017913D02*
X030188Y017913D01*
X029296Y017755D02*
X029066Y017755D01*
X029175Y017913D02*
X029188Y017913D01*
X028296Y017755D02*
X028066Y017755D01*
X028175Y017913D02*
X028188Y017913D01*
X027296Y017755D02*
X027066Y017755D01*
X027175Y017913D02*
X027188Y017913D01*
X026296Y017755D02*
X026066Y017755D01*
X026175Y017913D02*
X026188Y017913D01*
X025296Y017755D02*
X025038Y017755D01*
X025153Y017913D02*
X025188Y017913D01*
X023325Y017755D02*
X023038Y017755D01*
X023153Y017913D02*
X023210Y017913D01*
X022205Y019023D02*
X022158Y019023D01*
X022049Y019182D02*
X022314Y019182D01*
X021210Y017913D02*
X021153Y017913D01*
X021038Y017755D02*
X021325Y017755D01*
X020682Y017755D02*
X020681Y017755D01*
X020681Y017614D02*
X020681Y018473D01*
X020682Y018473D01*
X020682Y018474D01*
X020681Y018474D01*
X020681Y018473D01*
X020201Y018473D01*
X019682Y018473D01*
X019682Y017614D01*
X019722Y017614D01*
X019803Y017626D01*
X019881Y017652D01*
X019954Y017689D01*
X020020Y017737D01*
X020078Y017795D01*
X020126Y017861D01*
X020163Y017934D01*
X020181Y017990D01*
X020200Y017934D01*
X020237Y017861D01*
X020285Y017795D01*
X020343Y017737D01*
X020409Y017689D01*
X020482Y017652D01*
X020560Y017626D01*
X020640Y017614D01*
X020681Y017614D01*
X020681Y017913D02*
X020682Y017913D01*
X020681Y018072D02*
X020682Y018072D01*
X020681Y018231D02*
X020682Y018231D01*
X020681Y018389D02*
X020682Y018389D01*
X020681Y018474D02*
X020201Y018474D01*
X019682Y018474D01*
X019682Y018473D01*
X019681Y018473D01*
X019681Y017614D01*
X019640Y017614D01*
X019560Y017626D01*
X019482Y017652D01*
X019409Y017689D01*
X019343Y017737D01*
X019285Y017795D01*
X019237Y017861D01*
X019200Y017934D01*
X019192Y017956D01*
X019139Y017828D01*
X018987Y017676D01*
X018951Y017661D01*
X019066Y017755D02*
X019325Y017755D01*
X019210Y017913D02*
X019175Y017913D01*
X019681Y017913D02*
X019682Y017913D01*
X019681Y017755D02*
X019682Y017755D01*
X019681Y018072D02*
X019682Y018072D01*
X019681Y018231D02*
X019682Y018231D01*
X019681Y018389D02*
X019682Y018389D01*
X019681Y018474D02*
X019681Y019334D01*
X019640Y019334D01*
X019560Y019321D01*
X019482Y019296D01*
X019409Y019258D01*
X019343Y019210D01*
X019285Y019152D01*
X019237Y019086D01*
X019200Y019013D01*
X019192Y018991D01*
X019139Y019120D01*
X018987Y019271D01*
X018789Y019354D01*
X018574Y019354D01*
X018376Y019271D01*
X018224Y019120D01*
X018181Y019018D01*
X018139Y019120D01*
X017987Y019271D01*
X017789Y019354D01*
X017574Y019354D01*
X017821Y019340D02*
X018542Y019340D01*
X018821Y019340D02*
X020695Y019340D01*
X020681Y019334D02*
X020640Y019334D01*
X020560Y019321D01*
X020482Y019296D01*
X020409Y019258D01*
X020343Y019210D01*
X020285Y019152D01*
X020237Y019086D01*
X020200Y019013D01*
X020181Y018958D01*
X020163Y019013D01*
X020126Y019086D01*
X020078Y019152D01*
X020020Y019210D01*
X019954Y019258D01*
X019881Y019296D01*
X019803Y019321D01*
X019722Y019334D01*
X019682Y019334D01*
X019682Y018474D01*
X019681Y018474D01*
X019681Y018548D02*
X019682Y018548D01*
X019681Y018706D02*
X019682Y018706D01*
X019681Y018865D02*
X019682Y018865D01*
X019681Y019023D02*
X019682Y019023D01*
X019681Y019182D02*
X019682Y019182D01*
X020049Y019182D02*
X020314Y019182D01*
X020205Y019023D02*
X020158Y019023D01*
X020681Y019023D02*
X020682Y019023D01*
X020681Y018865D02*
X020682Y018865D01*
X020681Y018706D02*
X020682Y018706D01*
X020681Y018548D02*
X020682Y018548D01*
X020681Y018474D02*
X020681Y019334D01*
X020681Y019182D02*
X020682Y019182D01*
X020210Y017913D02*
X020153Y017913D01*
X020038Y017755D02*
X020325Y017755D01*
X019205Y019023D02*
X019179Y019023D01*
X019077Y019182D02*
X019314Y019182D01*
X018286Y019182D02*
X018077Y019182D01*
X018179Y019023D02*
X018184Y019023D01*
X017141Y018072D02*
X016587Y018072D01*
X022478Y020450D02*
X022885Y020450D01*
X022726Y020609D02*
X022637Y020609D01*
X023478Y020450D02*
X023576Y020450D01*
X023637Y020609D02*
X023726Y020609D01*
X030077Y019182D02*
X030286Y019182D01*
X030184Y019023D02*
X030179Y019023D01*
X030372Y019657D02*
X030591Y019657D01*
X039143Y014743D02*
X039220Y014743D01*
X039220Y014584D02*
X039143Y014584D01*
X039143Y014426D02*
X039220Y014426D01*
X039220Y014267D02*
X039143Y014267D01*
X039143Y014108D02*
X039220Y014108D01*
X039220Y013950D02*
X039143Y013950D01*
X039143Y013791D02*
X039220Y013791D01*
X039220Y013633D02*
X039143Y013633D01*
X039600Y015060D02*
X042371Y015060D01*
X042371Y015218D02*
X039756Y015218D01*
X039821Y015377D02*
X042371Y015377D01*
X042371Y015535D02*
X039856Y015535D01*
X039856Y015694D02*
X042371Y015694D01*
X042371Y015852D02*
X039806Y015852D01*
X039721Y016011D02*
X042371Y016011D01*
X042371Y016169D02*
X039560Y016169D01*
X039769Y016328D02*
X042371Y016328D01*
X042371Y016487D02*
X039856Y016487D01*
X039856Y016645D02*
X042371Y016645D01*
X042371Y016804D02*
X039856Y016804D01*
X039856Y016962D02*
X042371Y016962D01*
X042371Y017121D02*
X039856Y017121D01*
X039856Y017279D02*
X042371Y017279D01*
X042371Y017438D02*
X039856Y017438D01*
X039792Y017596D02*
X042371Y017596D01*
X042371Y011413D02*
X038156Y011413D01*
X038253Y011255D02*
X042371Y011255D01*
X042371Y008242D02*
X039574Y008242D01*
X039726Y008084D02*
X042371Y008084D01*
X042371Y007925D02*
X039804Y007925D01*
X039836Y007767D02*
X042371Y007767D01*
X042371Y007608D02*
X039828Y007608D01*
X039779Y007450D02*
X042371Y007450D01*
X042371Y007291D02*
X039680Y007291D01*
X039478Y007133D02*
X042371Y007133D01*
X042371Y004754D02*
X029682Y004754D01*
X029841Y004596D02*
X042371Y004596D01*
X042371Y004437D02*
X035024Y004437D01*
X035172Y004279D02*
X042371Y004279D01*
X042371Y004120D02*
X035238Y004120D01*
X035251Y003962D02*
X042371Y003962D01*
X039220Y007133D02*
X039143Y007133D01*
X039143Y007291D02*
X039220Y007291D01*
X039220Y007450D02*
X039143Y007450D01*
X039143Y007608D02*
X039220Y007608D01*
X039220Y007767D02*
X039143Y007767D01*
X039143Y007925D02*
X039220Y007925D01*
X039220Y008084D02*
X039143Y008084D01*
X039143Y008242D02*
X039220Y008242D01*
X034339Y004437D02*
X030000Y004437D01*
X022778Y002376D02*
X021856Y002376D01*
X021856Y002218D02*
X022666Y002218D01*
X022611Y002059D02*
X021856Y002059D01*
X021841Y001901D02*
X022611Y001901D01*
X020522Y001901D02*
X020184Y001901D01*
X020186Y001901D02*
X020376Y002091D01*
X020478Y002339D01*
X020478Y002608D01*
X020376Y002856D01*
X020186Y003046D01*
X019938Y003149D01*
X019669Y003149D01*
X019421Y003046D01*
X019231Y002856D01*
X019128Y002608D01*
X019128Y002339D01*
X019231Y002091D01*
X019421Y001901D01*
X019669Y001799D01*
X019938Y001799D01*
X020186Y001901D01*
X020343Y002059D02*
X020506Y002059D01*
X020506Y002218D02*
X020428Y002218D01*
X020478Y002376D02*
X020506Y002376D01*
X020506Y002535D02*
X020478Y002535D01*
X020506Y002693D02*
X020443Y002693D01*
X020506Y002852D02*
X020377Y002852D01*
X020506Y003010D02*
X020221Y003010D01*
X019386Y003010D02*
X018843Y003010D01*
X018999Y002852D02*
X019230Y002852D01*
X019164Y002693D02*
X019065Y002693D01*
X019100Y002535D02*
X019128Y002535D01*
X019128Y002376D02*
X019100Y002376D01*
X019050Y002218D02*
X019179Y002218D01*
X019263Y002059D02*
X018966Y002059D01*
X018806Y001901D02*
X019423Y001901D01*
X021511Y004596D02*
X022229Y004596D01*
X021989Y005389D02*
X021474Y005389D01*
X011739Y024414D02*
X011624Y024414D01*
X011624Y024572D02*
X011739Y024572D01*
X011739Y024731D02*
X011624Y024731D01*
X011624Y024889D02*
X011739Y024889D01*
X011739Y025048D02*
X011624Y025048D01*
X011624Y025206D02*
X011739Y025206D01*
X011739Y025365D02*
X011624Y025365D01*
X011624Y025524D02*
X011739Y025524D01*
X012287Y030438D02*
X008076Y030438D01*
X008231Y030597D02*
X012132Y030597D01*
X012066Y030755D02*
X008297Y030755D01*
X008331Y030914D02*
X012031Y030914D01*
X012031Y031073D02*
X008331Y031073D01*
X008280Y031231D02*
X012082Y031231D01*
X012168Y031390D02*
X008195Y031390D01*
X008033Y031548D02*
X012330Y031548D01*
D23*
X010381Y028774D03*
X022981Y029374D03*
X024181Y029274D03*
X024181Y026674D03*
X035281Y021574D03*
X035581Y015974D03*
X035681Y014074D03*
X037781Y011074D03*
X037781Y009874D03*
X035581Y009474D03*
X033881Y007274D03*
X027881Y006974D03*
X021181Y006874D03*
X018981Y010574D03*
X007881Y014174D03*
D24*
X024181Y026674D02*
X024181Y029274D01*
X024081Y029374D01*
X022981Y029374D01*
X037781Y011074D02*
X037781Y009874D01*
D25*
X032981Y012274D02*
X032981Y013474D01*
X030681Y011574D02*
X030681Y015474D01*
X029681Y015474D02*
X029681Y014874D01*
X025281Y010474D01*
X025181Y011374D02*
X028681Y014874D01*
X028681Y015474D01*
X031581Y016974D02*
X022581Y016974D01*
X021681Y016074D01*
X021681Y015474D01*
X020681Y015474D02*
X020681Y016074D01*
X020081Y016674D01*
X016681Y016674D01*
X007981Y007974D01*
X015681Y011774D02*
X018181Y014274D01*
X018681Y014274D01*
X018681Y015474D01*
X019681Y015474D02*
X019681Y013174D01*
X018181Y013174D01*
X016381Y011374D01*
X017181Y011374D02*
X018381Y012574D01*
X022681Y015474D02*
X022681Y016074D01*
X023281Y016674D01*
X033781Y016674D01*
X035181Y018074D01*
X031581Y016974D02*
X031581Y019974D01*
X034481Y022874D01*
X034481Y023174D01*
X034481Y023774D02*
X033481Y023774D01*
X032981Y023274D01*
X034481Y023774D02*
X034481Y027674D01*
X032781Y026674D02*
X032081Y026674D01*
X031581Y026174D01*
X031681Y025374D02*
X032281Y025374D01*
X032781Y025874D01*
X031281Y027074D02*
X032181Y027974D01*
X030381Y029074D02*
X030381Y023374D01*
X030981Y023374D01*
X029581Y022474D02*
X029281Y022474D01*
X029281Y022574D01*
X027681Y020974D01*
X027681Y020074D01*
X027681Y018474D01*
X026681Y018474D02*
X026681Y020574D01*
X026681Y022474D01*
X027381Y023174D01*
X026181Y023174D02*
X026181Y022374D01*
X024781Y020974D01*
X024481Y020974D01*
X024181Y020974D01*
X024481Y020974D02*
X023581Y020074D01*
X021781Y020074D01*
X021181Y019474D01*
X018681Y018474D02*
X018681Y017274D01*
X016281Y017274D01*
X016281Y018474D02*
X017681Y018474D01*
X028681Y018474D02*
X028681Y019474D01*
X029281Y020074D01*
X029881Y020674D01*
X030281Y020674D01*
X030881Y020074D01*
X030081Y020074D02*
X029681Y019674D01*
X029681Y018474D01*
X031281Y020774D02*
X029581Y022474D01*
X025181Y026674D02*
X025181Y029074D01*
X024381Y029874D01*
X023281Y029874D01*
X022981Y030174D01*
X021481Y030474D02*
X021481Y029274D01*
X020781Y028174D02*
X020981Y027974D01*
X021181Y027974D01*
X020781Y028174D02*
X020681Y028174D01*
X020681Y030974D01*
X020629Y030974D01*
X025129Y030974D02*
X025181Y030974D01*
X026481Y029674D01*
X026481Y027974D01*
X026681Y027974D01*
X028381Y029874D02*
X027481Y030774D01*
X026981Y030774D01*
X029781Y029674D02*
X030381Y029074D01*
X035581Y023474D02*
X036331Y022724D01*
X037781Y024174D01*
X036331Y022724D02*
X037381Y021674D01*
X030681Y011574D02*
X029381Y010274D01*
X028681Y005374D02*
X031281Y002774D01*
X031281Y002474D01*
X031303Y002474D01*
X029926Y002474D02*
X029781Y002474D01*
X029781Y003474D01*
X028681Y004574D01*
X022381Y005074D02*
X022281Y004974D01*
X021181Y004974D01*
D26*
X021181Y004974D03*
X022381Y005074D03*
X028681Y005374D03*
X028681Y004574D03*
X029381Y010274D03*
X032981Y012274D03*
X032981Y013474D03*
X035181Y018074D03*
X030881Y020074D03*
X030081Y020074D03*
X029281Y020074D03*
X027681Y020074D03*
X026681Y020574D03*
X029281Y022574D03*
X030981Y023374D03*
X032981Y023274D03*
X034481Y023174D03*
X035581Y023474D03*
X037781Y024174D03*
X037381Y021674D03*
X032781Y025874D03*
X032781Y026674D03*
X031581Y026174D03*
X031681Y025374D03*
X031281Y027074D03*
X029781Y029674D03*
X028381Y029874D03*
X026981Y030774D03*
X022981Y030174D03*
X021481Y030474D03*
X021481Y029274D03*
X025181Y026674D03*
X026181Y023174D03*
X027381Y023174D03*
X031281Y020774D03*
X034481Y027674D03*
X021181Y019474D03*
X016281Y018474D03*
X016281Y017274D03*
X018381Y012574D03*
X017181Y011374D03*
X016381Y011374D03*
X015681Y011774D03*
X007981Y007974D03*
X025281Y010474D03*
X025181Y011374D03*
M02*
