G75*
G70*
%OFA0B0*%
%FSLAX24Y24*%
%IPPOS*%
%LPD*%
%AMOC8*
5,1,8,0,0,1.08239X$1,22.5*
%
%ADD10C,0.0060*%
%ADD11C,0.0040*%
%ADD12C,0.0030*%
%ADD13C,0.0080*%
%ADD14R,0.0200X0.1000*%
%ADD15R,0.0750X0.0300*%
%ADD16C,0.0001*%
%ADD17C,0.0020*%
%ADD18C,0.0050*%
%ADD19C,0.0010*%
%ADD20C,0.0157*%
%ADD21C,0.0100*%
%ADD22R,0.0200X0.1400*%
%ADD23R,0.0650X0.0420*%
%ADD24R,0.0200X0.0050*%
%ADD25R,0.0300X0.2200*%
%ADD26R,0.0350X0.0500*%
D10*
X000831Y002474D02*
X000833Y002547D01*
X000839Y002620D01*
X000849Y002692D01*
X000863Y002764D01*
X000880Y002835D01*
X000902Y002905D01*
X000927Y002974D01*
X000956Y003041D01*
X000988Y003106D01*
X001024Y003170D01*
X001064Y003232D01*
X001106Y003291D01*
X001152Y003348D01*
X001201Y003402D01*
X001253Y003454D01*
X001307Y003503D01*
X001364Y003549D01*
X001423Y003591D01*
X001485Y003631D01*
X001549Y003667D01*
X001614Y003699D01*
X001681Y003728D01*
X001750Y003753D01*
X001820Y003775D01*
X001891Y003792D01*
X001963Y003806D01*
X002035Y003816D01*
X002108Y003822D01*
X002181Y003824D01*
X002254Y003822D01*
X002327Y003816D01*
X002399Y003806D01*
X002471Y003792D01*
X002542Y003775D01*
X002612Y003753D01*
X002681Y003728D01*
X002748Y003699D01*
X002813Y003667D01*
X002877Y003631D01*
X002939Y003591D01*
X002998Y003549D01*
X003055Y003503D01*
X003109Y003454D01*
X003161Y003402D01*
X003210Y003348D01*
X003256Y003291D01*
X003298Y003232D01*
X003338Y003170D01*
X003374Y003106D01*
X003406Y003041D01*
X003435Y002974D01*
X003460Y002905D01*
X003482Y002835D01*
X003499Y002764D01*
X003513Y002692D01*
X003523Y002620D01*
X003529Y002547D01*
X003531Y002474D01*
X003529Y002401D01*
X003523Y002328D01*
X003513Y002256D01*
X003499Y002184D01*
X003482Y002113D01*
X003460Y002043D01*
X003435Y001974D01*
X003406Y001907D01*
X003374Y001842D01*
X003338Y001778D01*
X003298Y001716D01*
X003256Y001657D01*
X003210Y001600D01*
X003161Y001546D01*
X003109Y001494D01*
X003055Y001445D01*
X002998Y001399D01*
X002939Y001357D01*
X002877Y001317D01*
X002813Y001281D01*
X002748Y001249D01*
X002681Y001220D01*
X002612Y001195D01*
X002542Y001173D01*
X002471Y001156D01*
X002399Y001142D01*
X002327Y001132D01*
X002254Y001126D01*
X002181Y001124D01*
X002108Y001126D01*
X002035Y001132D01*
X001963Y001142D01*
X001891Y001156D01*
X001820Y001173D01*
X001750Y001195D01*
X001681Y001220D01*
X001614Y001249D01*
X001549Y001281D01*
X001485Y001317D01*
X001423Y001357D01*
X001364Y001399D01*
X001307Y001445D01*
X001253Y001494D01*
X001201Y001546D01*
X001152Y001600D01*
X001106Y001657D01*
X001064Y001716D01*
X001024Y001778D01*
X000988Y001842D01*
X000956Y001907D01*
X000927Y001974D01*
X000902Y002043D01*
X000880Y002113D01*
X000863Y002184D01*
X000849Y002256D01*
X000839Y002328D01*
X000833Y002401D01*
X000831Y002474D01*
X005121Y005914D02*
X005441Y005914D01*
X005441Y006134D01*
X005441Y006814D02*
X005441Y007034D01*
X005121Y007034D01*
X006511Y005613D02*
X006618Y005720D01*
X007045Y005720D01*
X007151Y005613D01*
X007151Y005293D01*
X006511Y005293D01*
X006511Y005613D01*
X006511Y005075D02*
X007151Y005075D01*
X006511Y004648D01*
X007151Y004648D01*
X007045Y004431D02*
X006831Y004431D01*
X006831Y004217D01*
X006618Y004004D02*
X007045Y004004D01*
X007151Y004110D01*
X007151Y004324D01*
X007045Y004431D01*
X006618Y004431D02*
X006511Y004324D01*
X006511Y004110D01*
X006618Y004004D01*
X007511Y004110D02*
X007618Y004004D01*
X008045Y004004D01*
X008151Y004110D01*
X008151Y004324D01*
X008045Y004431D01*
X007618Y004431D02*
X007511Y004324D01*
X007511Y004110D01*
X007511Y004648D02*
X007511Y005075D01*
X007511Y004862D02*
X008151Y004862D01*
X008511Y005075D02*
X008511Y004648D01*
X008831Y004648D01*
X008724Y004862D01*
X008724Y004968D01*
X008831Y005075D01*
X009045Y005075D01*
X009151Y004968D01*
X009151Y004755D01*
X009045Y004648D01*
X008831Y004431D02*
X008831Y004004D01*
X008618Y004217D02*
X009045Y004217D01*
X009511Y004324D02*
X009618Y004431D01*
X009831Y004431D01*
X009938Y004324D01*
X009938Y004004D01*
X009938Y004217D02*
X010151Y004431D01*
X010151Y004648D02*
X009511Y005075D01*
X009511Y004648D02*
X010151Y005075D01*
X010511Y005075D02*
X011151Y004648D01*
X011511Y004648D02*
X011511Y005075D01*
X011511Y004862D02*
X012151Y004862D01*
X012151Y005293D02*
X011511Y005293D01*
X011511Y005613D01*
X011618Y005720D01*
X011831Y005720D01*
X011938Y005613D01*
X011938Y005293D01*
X011938Y005506D02*
X012151Y005720D01*
X011151Y005075D02*
X010511Y004648D01*
X010511Y004431D02*
X010511Y004004D01*
X010511Y004217D02*
X011151Y004217D01*
X011511Y004324D02*
X011511Y004004D01*
X012151Y004004D01*
X012151Y004324D01*
X012045Y004431D01*
X011618Y004431D01*
X011511Y004324D01*
X010151Y004004D02*
X009511Y004004D01*
X009511Y004324D01*
X008938Y005293D02*
X009151Y005506D01*
X008938Y005720D01*
X008511Y005720D01*
X008151Y005613D02*
X008151Y005399D01*
X008045Y005293D01*
X007831Y005399D02*
X007724Y005293D01*
X007618Y005293D01*
X007511Y005399D01*
X007511Y005613D01*
X007618Y005720D01*
X007831Y005613D02*
X007938Y005720D01*
X008045Y005720D01*
X008151Y005613D01*
X007831Y005613D02*
X007831Y005399D01*
X008511Y005293D02*
X008938Y005293D01*
X014211Y005307D02*
X014211Y004880D01*
X014211Y005094D02*
X014851Y005094D01*
X014851Y005525D02*
X014211Y005525D01*
X014211Y005845D01*
X014318Y005952D01*
X014531Y005952D01*
X014638Y005845D01*
X014638Y005525D01*
X014638Y005738D02*
X014851Y005952D01*
X014745Y006169D02*
X014318Y006169D01*
X014211Y006276D01*
X014211Y006490D01*
X014318Y006596D01*
X014745Y006596D01*
X014851Y006490D01*
X014851Y006276D01*
X014745Y006169D01*
X014851Y006814D02*
X014211Y006814D01*
X014851Y006814D02*
X014851Y007241D01*
X014424Y008103D02*
X014851Y008316D01*
X014424Y008530D01*
X014424Y009392D02*
X014211Y009606D01*
X014851Y009606D01*
X014851Y009819D02*
X014851Y009392D01*
X014851Y010037D02*
X014851Y010143D01*
X014745Y010143D01*
X014745Y010037D01*
X014851Y010037D01*
X014745Y010359D02*
X014851Y010466D01*
X014851Y010679D01*
X014745Y010786D01*
X014638Y010786D01*
X014531Y010679D01*
X014531Y010572D01*
X014531Y010679D02*
X014424Y010786D01*
X014318Y010786D01*
X014211Y010679D01*
X014211Y010466D01*
X014318Y010359D01*
X017445Y012856D02*
X017445Y013092D01*
X017918Y013092D02*
X017918Y012856D01*
X016881Y015874D02*
X031481Y015874D01*
X031481Y018074D01*
X016881Y018074D01*
X016881Y017224D01*
X016911Y017222D01*
X016941Y017217D01*
X016970Y017208D01*
X016997Y017195D01*
X017023Y017180D01*
X017047Y017161D01*
X017068Y017140D01*
X017087Y017116D01*
X017102Y017090D01*
X017115Y017063D01*
X017124Y017034D01*
X017129Y017004D01*
X017131Y016974D01*
X017129Y016944D01*
X017124Y016914D01*
X017115Y016885D01*
X017102Y016858D01*
X017087Y016832D01*
X017068Y016808D01*
X017047Y016787D01*
X017023Y016768D01*
X016997Y016753D01*
X016970Y016740D01*
X016941Y016731D01*
X016911Y016726D01*
X016881Y016724D01*
X016881Y015874D01*
X018181Y009174D02*
X018181Y007774D01*
X018183Y007757D01*
X018187Y007740D01*
X018194Y007724D01*
X018204Y007710D01*
X018217Y007697D01*
X018231Y007687D01*
X018247Y007680D01*
X018264Y007676D01*
X018281Y007674D01*
X018631Y007674D02*
X018731Y007674D01*
X019131Y007674D02*
X019231Y007674D01*
X019631Y007674D02*
X019731Y007674D01*
X020081Y007674D02*
X020098Y007676D01*
X020115Y007680D01*
X020131Y007687D01*
X020145Y007697D01*
X020158Y007710D01*
X020168Y007724D01*
X020175Y007740D01*
X020179Y007757D01*
X020181Y007774D01*
X020181Y009174D01*
X020179Y009191D01*
X020175Y009208D01*
X020168Y009224D01*
X020158Y009238D01*
X020145Y009251D01*
X020131Y009261D01*
X020115Y009268D01*
X020098Y009272D01*
X020081Y009274D01*
X019731Y009274D02*
X019631Y009274D01*
X019231Y009274D02*
X019131Y009274D01*
X018731Y009274D02*
X018631Y009274D01*
X018281Y009274D02*
X018264Y009272D01*
X018247Y009268D01*
X018231Y009261D01*
X018217Y009251D01*
X018204Y009238D01*
X018194Y009224D01*
X018187Y009208D01*
X018183Y009191D01*
X018181Y009174D01*
X018331Y008074D02*
X018333Y008098D01*
X018339Y008122D01*
X018348Y008144D01*
X018361Y008164D01*
X018377Y008182D01*
X018396Y008197D01*
X018417Y008210D01*
X018439Y008218D01*
X018463Y008223D01*
X018487Y008224D01*
X018511Y008221D01*
X018534Y008214D01*
X018556Y008204D01*
X018576Y008190D01*
X018593Y008173D01*
X018608Y008154D01*
X018619Y008133D01*
X018627Y008110D01*
X018631Y008086D01*
X018631Y008062D01*
X018627Y008038D01*
X018619Y008015D01*
X018608Y007994D01*
X018593Y007975D01*
X018576Y007958D01*
X018556Y007944D01*
X018534Y007934D01*
X018511Y007927D01*
X018487Y007924D01*
X018463Y007925D01*
X018439Y007930D01*
X018417Y007938D01*
X018396Y007951D01*
X018377Y007966D01*
X018361Y007984D01*
X018348Y008004D01*
X018339Y008026D01*
X018333Y008050D01*
X018331Y008074D01*
X022121Y008534D02*
X022441Y008534D01*
X022441Y008314D01*
X022441Y007634D02*
X022441Y007414D01*
X022121Y007414D01*
X022121Y006534D02*
X022441Y006534D01*
X022441Y006314D01*
X022441Y005634D02*
X022441Y005414D01*
X022121Y005414D01*
X027621Y005414D02*
X027941Y005414D01*
X027941Y005634D01*
X027941Y006314D02*
X027941Y006534D01*
X027621Y006534D01*
X027621Y007414D02*
X027941Y007414D01*
X027941Y007634D01*
X027941Y008314D02*
X027941Y008534D01*
X027621Y008534D01*
X029681Y009174D02*
X029681Y007774D01*
X029683Y007757D01*
X029687Y007740D01*
X029694Y007724D01*
X029704Y007710D01*
X029717Y007697D01*
X029731Y007687D01*
X029747Y007680D01*
X029764Y007676D01*
X029781Y007674D01*
X030131Y007674D02*
X030231Y007674D01*
X030631Y007674D02*
X030731Y007674D01*
X031131Y007674D02*
X031231Y007674D01*
X031581Y007674D02*
X031598Y007676D01*
X031615Y007680D01*
X031631Y007687D01*
X031645Y007697D01*
X031658Y007710D01*
X031668Y007724D01*
X031675Y007740D01*
X031679Y007757D01*
X031681Y007774D01*
X031681Y009174D01*
X031679Y009191D01*
X031675Y009208D01*
X031668Y009224D01*
X031658Y009238D01*
X031645Y009251D01*
X031631Y009261D01*
X031615Y009268D01*
X031598Y009272D01*
X031581Y009274D01*
X031231Y009274D02*
X031131Y009274D01*
X030731Y009274D02*
X030631Y009274D01*
X030231Y009274D02*
X030131Y009274D01*
X029781Y009274D02*
X029764Y009272D01*
X029747Y009268D01*
X029731Y009261D01*
X029717Y009251D01*
X029704Y009238D01*
X029694Y009224D01*
X029687Y009208D01*
X029683Y009191D01*
X029681Y009174D01*
X029831Y008074D02*
X029833Y008098D01*
X029839Y008122D01*
X029848Y008144D01*
X029861Y008164D01*
X029877Y008182D01*
X029896Y008197D01*
X029917Y008210D01*
X029939Y008218D01*
X029963Y008223D01*
X029987Y008224D01*
X030011Y008221D01*
X030034Y008214D01*
X030056Y008204D01*
X030076Y008190D01*
X030093Y008173D01*
X030108Y008154D01*
X030119Y008133D01*
X030127Y008110D01*
X030131Y008086D01*
X030131Y008062D01*
X030127Y008038D01*
X030119Y008015D01*
X030108Y007994D01*
X030093Y007975D01*
X030076Y007958D01*
X030056Y007944D01*
X030034Y007934D01*
X030011Y007927D01*
X029987Y007924D01*
X029963Y007925D01*
X029939Y007930D01*
X029917Y007938D01*
X029896Y007951D01*
X029877Y007966D01*
X029861Y007984D01*
X029848Y008004D01*
X029839Y008026D01*
X029833Y008050D01*
X029831Y008074D01*
X029300Y010737D02*
X029063Y010737D01*
X029063Y011210D02*
X029300Y011210D01*
X029831Y012024D02*
X025531Y012024D01*
X025514Y012026D01*
X025497Y012030D01*
X025481Y012037D01*
X025467Y012047D01*
X025454Y012060D01*
X025444Y012074D01*
X025437Y012090D01*
X025433Y012107D01*
X025431Y012124D01*
X025431Y012524D01*
X025431Y013424D02*
X025431Y013824D01*
X025433Y013841D01*
X025437Y013858D01*
X025444Y013874D01*
X025454Y013888D01*
X025467Y013901D01*
X025481Y013911D01*
X025497Y013918D01*
X025514Y013922D01*
X025531Y013924D01*
X029831Y013924D01*
X029848Y013922D01*
X029865Y013918D01*
X029881Y013911D01*
X029895Y013901D01*
X029908Y013888D01*
X029918Y013874D01*
X029925Y013858D01*
X029929Y013841D01*
X029931Y013824D01*
X029931Y013424D01*
X029931Y012524D02*
X029931Y012124D01*
X029929Y012107D01*
X029925Y012090D01*
X029918Y012074D01*
X029908Y012060D01*
X029895Y012047D01*
X029881Y012037D01*
X029865Y012030D01*
X029848Y012026D01*
X029831Y012024D01*
X027931Y012724D02*
X027931Y012974D01*
X027931Y013224D01*
X027781Y013224D02*
X027781Y012724D01*
X027581Y012724D01*
X027581Y013224D01*
X027781Y013224D01*
X027431Y013224D02*
X027431Y012974D01*
X027431Y012724D01*
X026300Y011210D02*
X026063Y011210D01*
X026063Y010737D02*
X026300Y010737D01*
X036121Y008234D02*
X036121Y007914D01*
X036121Y008234D02*
X036341Y008234D01*
X037021Y008234D02*
X037241Y008234D01*
X037241Y007914D01*
X039331Y002474D02*
X039333Y002547D01*
X039339Y002620D01*
X039349Y002692D01*
X039363Y002764D01*
X039380Y002835D01*
X039402Y002905D01*
X039427Y002974D01*
X039456Y003041D01*
X039488Y003106D01*
X039524Y003170D01*
X039564Y003232D01*
X039606Y003291D01*
X039652Y003348D01*
X039701Y003402D01*
X039753Y003454D01*
X039807Y003503D01*
X039864Y003549D01*
X039923Y003591D01*
X039985Y003631D01*
X040049Y003667D01*
X040114Y003699D01*
X040181Y003728D01*
X040250Y003753D01*
X040320Y003775D01*
X040391Y003792D01*
X040463Y003806D01*
X040535Y003816D01*
X040608Y003822D01*
X040681Y003824D01*
X040754Y003822D01*
X040827Y003816D01*
X040899Y003806D01*
X040971Y003792D01*
X041042Y003775D01*
X041112Y003753D01*
X041181Y003728D01*
X041248Y003699D01*
X041313Y003667D01*
X041377Y003631D01*
X041439Y003591D01*
X041498Y003549D01*
X041555Y003503D01*
X041609Y003454D01*
X041661Y003402D01*
X041710Y003348D01*
X041756Y003291D01*
X041798Y003232D01*
X041838Y003170D01*
X041874Y003106D01*
X041906Y003041D01*
X041935Y002974D01*
X041960Y002905D01*
X041982Y002835D01*
X041999Y002764D01*
X042013Y002692D01*
X042023Y002620D01*
X042029Y002547D01*
X042031Y002474D01*
X042029Y002401D01*
X042023Y002328D01*
X042013Y002256D01*
X041999Y002184D01*
X041982Y002113D01*
X041960Y002043D01*
X041935Y001974D01*
X041906Y001907D01*
X041874Y001842D01*
X041838Y001778D01*
X041798Y001716D01*
X041756Y001657D01*
X041710Y001600D01*
X041661Y001546D01*
X041609Y001494D01*
X041555Y001445D01*
X041498Y001399D01*
X041439Y001357D01*
X041377Y001317D01*
X041313Y001281D01*
X041248Y001249D01*
X041181Y001220D01*
X041112Y001195D01*
X041042Y001173D01*
X040971Y001156D01*
X040899Y001142D01*
X040827Y001132D01*
X040754Y001126D01*
X040681Y001124D01*
X040608Y001126D01*
X040535Y001132D01*
X040463Y001142D01*
X040391Y001156D01*
X040320Y001173D01*
X040250Y001195D01*
X040181Y001220D01*
X040114Y001249D01*
X040049Y001281D01*
X039985Y001317D01*
X039923Y001357D01*
X039864Y001399D01*
X039807Y001445D01*
X039753Y001494D01*
X039701Y001546D01*
X039652Y001600D01*
X039606Y001657D01*
X039564Y001716D01*
X039524Y001778D01*
X039488Y001842D01*
X039456Y001907D01*
X039427Y001974D01*
X039402Y002043D01*
X039380Y002113D01*
X039363Y002184D01*
X039349Y002256D01*
X039339Y002328D01*
X039333Y002401D01*
X039331Y002474D01*
X037241Y014414D02*
X037241Y014734D01*
X037021Y014734D01*
X036341Y014734D02*
X036121Y014734D01*
X036121Y014414D01*
X036121Y020914D02*
X036121Y021234D01*
X036341Y021234D01*
X037021Y021234D02*
X037241Y021234D01*
X037241Y020914D01*
X033918Y022856D02*
X033918Y023092D01*
X033445Y023092D02*
X033445Y022856D01*
X032501Y022279D02*
X032501Y023669D01*
X032499Y023692D01*
X032494Y023715D01*
X032485Y023737D01*
X032472Y023757D01*
X032457Y023775D01*
X032439Y023790D01*
X032419Y023803D01*
X032397Y023812D01*
X032374Y023817D01*
X032351Y023819D01*
X028011Y023819D01*
X027988Y023817D01*
X027965Y023812D01*
X027943Y023803D01*
X027923Y023790D01*
X027905Y023775D01*
X027890Y023757D01*
X027877Y023737D01*
X027868Y023715D01*
X027863Y023692D01*
X027861Y023669D01*
X027861Y022279D01*
X027863Y022256D01*
X027868Y022233D01*
X027877Y022211D01*
X027890Y022191D01*
X027905Y022173D01*
X027923Y022158D01*
X027943Y022145D01*
X027965Y022136D01*
X027988Y022131D01*
X028011Y022129D01*
X032351Y022129D01*
X032374Y022131D01*
X032397Y022136D01*
X032419Y022145D01*
X032439Y022158D01*
X032457Y022173D01*
X032472Y022191D01*
X032485Y022211D01*
X032494Y022233D01*
X032499Y022256D01*
X032501Y022279D01*
X027861Y022474D02*
X027905Y022476D01*
X027948Y022482D01*
X027990Y022491D01*
X028032Y022504D01*
X028072Y022521D01*
X028111Y022541D01*
X028148Y022564D01*
X028182Y022591D01*
X028215Y022620D01*
X028244Y022653D01*
X028271Y022687D01*
X028294Y022724D01*
X028314Y022763D01*
X028331Y022803D01*
X028344Y022845D01*
X028353Y022887D01*
X028359Y022930D01*
X028361Y022974D01*
X028359Y023018D01*
X028353Y023061D01*
X028344Y023103D01*
X028331Y023145D01*
X028314Y023185D01*
X028294Y023224D01*
X028271Y023261D01*
X028244Y023295D01*
X028215Y023328D01*
X028182Y023357D01*
X028148Y023384D01*
X028111Y023407D01*
X028072Y023427D01*
X028032Y023444D01*
X027990Y023457D01*
X027948Y023466D01*
X027905Y023472D01*
X027861Y023474D01*
X029381Y027474D02*
X029381Y028474D01*
X030981Y028474D01*
X030981Y027474D01*
X029381Y027474D01*
X029931Y027974D02*
X030181Y027974D01*
X030181Y027724D01*
X030181Y027974D02*
X030181Y028224D01*
X030181Y027974D02*
X030581Y028224D01*
X030581Y027724D01*
X030181Y027974D01*
X030781Y027974D01*
X031945Y029356D02*
X031945Y029592D01*
X032418Y029592D02*
X032418Y029356D01*
X032331Y031004D02*
X032331Y031431D01*
X032118Y031217D02*
X032545Y031217D01*
X034881Y028474D02*
X034881Y027474D01*
X036481Y027474D01*
X036481Y028474D01*
X034881Y028474D01*
X035431Y027974D02*
X035681Y027974D01*
X035681Y027724D01*
X035681Y027974D02*
X035681Y028224D01*
X035681Y027974D02*
X036081Y028224D01*
X036081Y027724D01*
X035681Y027974D01*
X036281Y027974D01*
X039331Y030974D02*
X039333Y031047D01*
X039339Y031120D01*
X039349Y031192D01*
X039363Y031264D01*
X039380Y031335D01*
X039402Y031405D01*
X039427Y031474D01*
X039456Y031541D01*
X039488Y031606D01*
X039524Y031670D01*
X039564Y031732D01*
X039606Y031791D01*
X039652Y031848D01*
X039701Y031902D01*
X039753Y031954D01*
X039807Y032003D01*
X039864Y032049D01*
X039923Y032091D01*
X039985Y032131D01*
X040049Y032167D01*
X040114Y032199D01*
X040181Y032228D01*
X040250Y032253D01*
X040320Y032275D01*
X040391Y032292D01*
X040463Y032306D01*
X040535Y032316D01*
X040608Y032322D01*
X040681Y032324D01*
X040754Y032322D01*
X040827Y032316D01*
X040899Y032306D01*
X040971Y032292D01*
X041042Y032275D01*
X041112Y032253D01*
X041181Y032228D01*
X041248Y032199D01*
X041313Y032167D01*
X041377Y032131D01*
X041439Y032091D01*
X041498Y032049D01*
X041555Y032003D01*
X041609Y031954D01*
X041661Y031902D01*
X041710Y031848D01*
X041756Y031791D01*
X041798Y031732D01*
X041838Y031670D01*
X041874Y031606D01*
X041906Y031541D01*
X041935Y031474D01*
X041960Y031405D01*
X041982Y031335D01*
X041999Y031264D01*
X042013Y031192D01*
X042023Y031120D01*
X042029Y031047D01*
X042031Y030974D01*
X042029Y030901D01*
X042023Y030828D01*
X042013Y030756D01*
X041999Y030684D01*
X041982Y030613D01*
X041960Y030543D01*
X041935Y030474D01*
X041906Y030407D01*
X041874Y030342D01*
X041838Y030278D01*
X041798Y030216D01*
X041756Y030157D01*
X041710Y030100D01*
X041661Y030046D01*
X041609Y029994D01*
X041555Y029945D01*
X041498Y029899D01*
X041439Y029857D01*
X041377Y029817D01*
X041313Y029781D01*
X041248Y029749D01*
X041181Y029720D01*
X041112Y029695D01*
X041042Y029673D01*
X040971Y029656D01*
X040899Y029642D01*
X040827Y029632D01*
X040754Y029626D01*
X040681Y029624D01*
X040608Y029626D01*
X040535Y029632D01*
X040463Y029642D01*
X040391Y029656D01*
X040320Y029673D01*
X040250Y029695D01*
X040181Y029720D01*
X040114Y029749D01*
X040049Y029781D01*
X039985Y029817D01*
X039923Y029857D01*
X039864Y029899D01*
X039807Y029945D01*
X039753Y029994D01*
X039701Y030046D01*
X039652Y030100D01*
X039606Y030157D01*
X039564Y030216D01*
X039524Y030278D01*
X039488Y030342D01*
X039456Y030407D01*
X039427Y030474D01*
X039402Y030543D01*
X039380Y030613D01*
X039363Y030684D01*
X039349Y030756D01*
X039339Y030828D01*
X039333Y030901D01*
X039331Y030974D01*
X027918Y029592D02*
X027918Y029356D01*
X027445Y029356D02*
X027445Y029592D01*
X027331Y031004D02*
X027331Y031431D01*
X027118Y031217D02*
X027545Y031217D01*
X025481Y028474D02*
X023881Y028474D01*
X023881Y027474D01*
X025481Y027474D01*
X025481Y028474D01*
X025081Y028224D02*
X024681Y027974D01*
X024681Y027724D01*
X024681Y027974D02*
X024431Y027974D01*
X024681Y027974D02*
X024681Y028224D01*
X024681Y027974D02*
X025281Y027974D01*
X025081Y028224D02*
X025081Y027724D01*
X024681Y027974D01*
X022418Y029356D02*
X022418Y029592D01*
X021945Y029592D02*
X021945Y029356D01*
X022331Y031004D02*
X022331Y031431D01*
X022118Y031217D02*
X022545Y031217D01*
X019981Y028474D02*
X018381Y028474D01*
X018381Y027474D01*
X019981Y027474D01*
X019981Y028474D01*
X019581Y028224D02*
X019181Y027974D01*
X019181Y027724D01*
X019181Y027974D02*
X019181Y028224D01*
X019181Y027974D02*
X019781Y027974D01*
X019581Y028224D02*
X019581Y027724D01*
X019181Y027974D01*
X018931Y027974D01*
X017918Y029356D02*
X017918Y029592D01*
X017445Y029592D02*
X017445Y029356D01*
X017831Y031004D02*
X017831Y031431D01*
X017618Y031217D02*
X018045Y031217D01*
X012181Y032074D02*
X012181Y029874D01*
X008181Y029874D01*
X008181Y032074D01*
X012181Y032074D01*
X011081Y030974D02*
X010181Y030974D01*
X010181Y030744D01*
X010181Y030974D02*
X009681Y030974D01*
X010181Y030974D02*
X010181Y031204D01*
X010181Y030974D02*
X010631Y030744D01*
X010631Y031204D01*
X010181Y030974D01*
X004331Y025931D02*
X004331Y025504D01*
X004118Y025717D02*
X004545Y025717D01*
X006881Y025674D02*
X006881Y024274D01*
X010481Y024274D01*
X010481Y025674D01*
X006881Y025674D01*
X000831Y030974D02*
X000833Y031047D01*
X000839Y031120D01*
X000849Y031192D01*
X000863Y031264D01*
X000880Y031335D01*
X000902Y031405D01*
X000927Y031474D01*
X000956Y031541D01*
X000988Y031606D01*
X001024Y031670D01*
X001064Y031732D01*
X001106Y031791D01*
X001152Y031848D01*
X001201Y031902D01*
X001253Y031954D01*
X001307Y032003D01*
X001364Y032049D01*
X001423Y032091D01*
X001485Y032131D01*
X001549Y032167D01*
X001614Y032199D01*
X001681Y032228D01*
X001750Y032253D01*
X001820Y032275D01*
X001891Y032292D01*
X001963Y032306D01*
X002035Y032316D01*
X002108Y032322D01*
X002181Y032324D01*
X002254Y032322D01*
X002327Y032316D01*
X002399Y032306D01*
X002471Y032292D01*
X002542Y032275D01*
X002612Y032253D01*
X002681Y032228D01*
X002748Y032199D01*
X002813Y032167D01*
X002877Y032131D01*
X002939Y032091D01*
X002998Y032049D01*
X003055Y032003D01*
X003109Y031954D01*
X003161Y031902D01*
X003210Y031848D01*
X003256Y031791D01*
X003298Y031732D01*
X003338Y031670D01*
X003374Y031606D01*
X003406Y031541D01*
X003435Y031474D01*
X003460Y031405D01*
X003482Y031335D01*
X003499Y031264D01*
X003513Y031192D01*
X003523Y031120D01*
X003529Y031047D01*
X003531Y030974D01*
X003529Y030901D01*
X003523Y030828D01*
X003513Y030756D01*
X003499Y030684D01*
X003482Y030613D01*
X003460Y030543D01*
X003435Y030474D01*
X003406Y030407D01*
X003374Y030342D01*
X003338Y030278D01*
X003298Y030216D01*
X003256Y030157D01*
X003210Y030100D01*
X003161Y030046D01*
X003109Y029994D01*
X003055Y029945D01*
X002998Y029899D01*
X002939Y029857D01*
X002877Y029817D01*
X002813Y029781D01*
X002748Y029749D01*
X002681Y029720D01*
X002612Y029695D01*
X002542Y029673D01*
X002471Y029656D01*
X002399Y029642D01*
X002327Y029632D01*
X002254Y029626D01*
X002181Y029624D01*
X002108Y029626D01*
X002035Y029632D01*
X001963Y029642D01*
X001891Y029656D01*
X001820Y029673D01*
X001750Y029695D01*
X001681Y029720D01*
X001614Y029749D01*
X001549Y029781D01*
X001485Y029817D01*
X001423Y029857D01*
X001364Y029899D01*
X001307Y029945D01*
X001253Y029994D01*
X001201Y030046D01*
X001152Y030100D01*
X001106Y030157D01*
X001064Y030216D01*
X001024Y030278D01*
X000988Y030342D01*
X000956Y030407D01*
X000927Y030474D01*
X000902Y030543D01*
X000880Y030613D01*
X000863Y030684D01*
X000849Y030756D01*
X000839Y030828D01*
X000833Y030901D01*
X000831Y030974D01*
X003818Y014644D02*
X003711Y014537D01*
X003711Y014110D01*
X003818Y014004D01*
X004032Y014004D01*
X004138Y014110D01*
X004138Y014324D01*
X003925Y014324D01*
X004138Y014537D02*
X004032Y014644D01*
X003818Y014644D01*
X004356Y014644D02*
X004356Y014004D01*
X004463Y013644D02*
X004356Y013537D01*
X004356Y013110D01*
X004463Y013004D01*
X004676Y013004D01*
X004783Y013110D01*
X005000Y013004D02*
X005427Y013004D01*
X005214Y012644D02*
X005427Y012431D01*
X005427Y012004D01*
X005427Y012324D02*
X005000Y012324D01*
X005000Y012431D02*
X005214Y012644D01*
X005000Y012431D02*
X005000Y012004D01*
X004783Y012110D02*
X004783Y012537D01*
X004676Y012644D01*
X004356Y012644D01*
X004356Y012004D01*
X004676Y012004D01*
X004783Y012110D01*
X004783Y011644D02*
X004356Y011644D01*
X004356Y011324D01*
X004569Y011431D01*
X004676Y011431D01*
X004783Y011324D01*
X004783Y011110D01*
X004676Y011004D01*
X004463Y011004D01*
X004356Y011110D01*
X004138Y011324D02*
X003711Y011324D01*
X003925Y011537D02*
X003925Y011110D01*
X005000Y011217D02*
X005000Y011644D01*
X005427Y011644D02*
X005427Y011217D01*
X005214Y011004D01*
X005000Y011217D01*
X004138Y012110D02*
X004032Y012004D01*
X003818Y012004D01*
X003711Y012110D01*
X003818Y012324D02*
X004032Y012324D01*
X004138Y012217D01*
X004138Y012110D01*
X003818Y012324D02*
X003711Y012431D01*
X003711Y012537D01*
X003818Y012644D01*
X004032Y012644D01*
X004138Y012537D01*
X004032Y013004D02*
X003818Y013004D01*
X003711Y013110D01*
X003818Y013324D02*
X004032Y013324D01*
X004138Y013217D01*
X004138Y013110D01*
X004032Y013004D01*
X003818Y013324D02*
X003711Y013431D01*
X003711Y013537D01*
X003818Y013644D01*
X004032Y013644D01*
X004138Y013537D01*
X004463Y013644D02*
X004676Y013644D01*
X004783Y013537D01*
X005000Y013644D02*
X005000Y013004D01*
X005000Y014004D02*
X005321Y014004D01*
X005427Y014110D01*
X005427Y014537D01*
X005321Y014644D01*
X005000Y014644D01*
X005000Y014004D01*
X004783Y014004D02*
X004783Y014644D01*
X004356Y014644D02*
X004783Y014004D01*
X008063Y011710D02*
X008300Y011710D01*
X008300Y011237D02*
X008063Y011237D01*
X014211Y004663D02*
X014851Y004663D01*
X014211Y004236D01*
X014851Y004236D01*
X014745Y004018D02*
X014318Y004018D01*
X014211Y003911D01*
X014211Y003698D01*
X014318Y003591D01*
X014745Y003591D01*
X014851Y003698D01*
X014851Y003911D01*
X014745Y004018D01*
X014745Y003374D02*
X014851Y003267D01*
X014851Y003053D01*
X014745Y002947D01*
X014318Y002947D01*
X014211Y003053D01*
X014211Y003267D01*
X014318Y003374D01*
X014318Y002085D02*
X014531Y002085D01*
X014638Y001978D01*
X014638Y001658D01*
X014638Y001871D02*
X014851Y002085D01*
X014318Y002085D02*
X014211Y001978D01*
X014211Y001658D01*
X014851Y001658D01*
X014745Y001440D02*
X014318Y001440D01*
X014211Y001333D01*
X014211Y001120D01*
X014318Y001013D01*
X014745Y001013D01*
X014851Y001120D01*
X014851Y001333D01*
X014745Y001440D01*
X014745Y000796D02*
X014318Y000796D01*
X014211Y000689D01*
X014211Y000475D01*
X014318Y000369D01*
X014745Y000369D01*
X014851Y000475D01*
X014851Y000689D01*
X014745Y000796D01*
X014745Y000151D02*
X014318Y000151D01*
X014211Y000044D01*
X014211Y-000276D01*
X014851Y-000276D01*
X014851Y000044D01*
X014745Y000151D01*
D11*
X003234Y004994D02*
X003234Y005514D01*
X003061Y005514D02*
X003408Y005514D01*
X002892Y005514D02*
X002892Y004994D01*
X002545Y005514D01*
X002545Y004994D01*
X002375Y004994D02*
X002201Y004994D01*
X002288Y004994D02*
X002288Y005514D01*
X002201Y005514D02*
X002375Y005514D01*
X017071Y020194D02*
X016402Y020863D01*
X016402Y021100D01*
X016402Y021848D02*
X016402Y022084D01*
X017071Y022753D01*
X018961Y022753D01*
X018961Y021848D01*
X018961Y021100D02*
X018961Y020194D01*
X017071Y020194D01*
X016520Y021848D02*
X016542Y021912D01*
X016569Y021975D01*
X016599Y022037D01*
X016632Y022096D01*
X016668Y022154D01*
X016708Y022210D01*
X016751Y022263D01*
X016796Y022314D01*
X016844Y022362D01*
X016895Y022407D01*
X016949Y022450D01*
X017005Y022489D01*
X017062Y022526D01*
X017122Y022559D01*
X017184Y022588D01*
X017247Y022614D01*
X017311Y022637D01*
X017377Y022656D01*
X017444Y022671D01*
X017511Y022682D01*
X017579Y022690D01*
X017647Y022694D01*
X017715Y022694D01*
X017783Y022690D01*
X017851Y022682D01*
X017918Y022671D01*
X017985Y022656D01*
X018051Y022637D01*
X018115Y022614D01*
X018178Y022588D01*
X018240Y022559D01*
X018300Y022526D01*
X018357Y022489D01*
X018413Y022450D01*
X018467Y022407D01*
X018518Y022362D01*
X018566Y022314D01*
X018611Y022263D01*
X018654Y022210D01*
X018694Y022154D01*
X018730Y022096D01*
X018763Y022037D01*
X018793Y021975D01*
X018820Y021912D01*
X018842Y021848D01*
X018842Y021100D02*
X018820Y021036D01*
X018793Y020973D01*
X018763Y020911D01*
X018730Y020852D01*
X018694Y020794D01*
X018654Y020738D01*
X018611Y020685D01*
X018566Y020634D01*
X018518Y020586D01*
X018467Y020541D01*
X018413Y020498D01*
X018357Y020459D01*
X018300Y020422D01*
X018240Y020389D01*
X018178Y020360D01*
X018115Y020334D01*
X018051Y020311D01*
X017985Y020292D01*
X017918Y020277D01*
X017851Y020266D01*
X017783Y020258D01*
X017715Y020254D01*
X017647Y020254D01*
X017579Y020258D01*
X017511Y020266D01*
X017444Y020277D01*
X017377Y020292D01*
X017311Y020311D01*
X017247Y020334D01*
X017184Y020360D01*
X017122Y020389D01*
X017062Y020422D01*
X017005Y020459D01*
X016949Y020498D01*
X016895Y020541D01*
X016844Y020586D01*
X016796Y020634D01*
X016751Y020685D01*
X016708Y020738D01*
X016668Y020794D01*
X016632Y020852D01*
X016599Y020911D01*
X016569Y020973D01*
X016542Y021036D01*
X016520Y021100D01*
X037701Y018954D02*
X037701Y018494D01*
X038008Y018494D01*
X038162Y018494D02*
X038162Y018954D01*
X038469Y018494D01*
X038469Y018954D01*
X038622Y018954D02*
X038852Y018954D01*
X038929Y018877D01*
X038929Y018570D01*
X038852Y018494D01*
X038622Y018494D01*
X038622Y018954D01*
X039082Y018877D02*
X039082Y018801D01*
X039159Y018724D01*
X039313Y018724D01*
X039389Y018647D01*
X039389Y018570D01*
X039313Y018494D01*
X039159Y018494D01*
X039082Y018570D01*
X039082Y018877D02*
X039159Y018954D01*
X039313Y018954D01*
X039389Y018877D01*
X039543Y018954D02*
X039850Y018954D01*
X039696Y018954D02*
X039696Y018494D01*
X040003Y018570D02*
X040080Y018494D01*
X040233Y018494D01*
X040310Y018570D01*
X040310Y018877D01*
X040233Y018954D01*
X040080Y018954D01*
X040003Y018877D01*
X040003Y018570D01*
X040464Y018494D02*
X040464Y018954D01*
X040694Y018954D01*
X040770Y018877D01*
X040770Y018724D01*
X040694Y018647D01*
X040464Y018647D01*
X041384Y018647D02*
X041691Y018647D01*
X041691Y018801D02*
X041614Y018801D01*
X041384Y018801D01*
X041461Y018954D02*
X041461Y018494D01*
X041614Y018494D02*
X041614Y018954D01*
X041845Y018877D02*
X041921Y018954D01*
X042075Y018954D01*
X042151Y018877D01*
X042151Y018801D01*
X041845Y018494D01*
X042151Y018494D01*
X038008Y018954D02*
X037701Y018954D01*
X037701Y018724D02*
X037855Y018724D01*
X037701Y012454D02*
X037701Y011994D01*
X038008Y011994D01*
X038162Y011994D02*
X038162Y012454D01*
X038469Y011994D01*
X038469Y012454D01*
X038622Y012454D02*
X038622Y011994D01*
X038852Y011994D01*
X038929Y012070D01*
X038929Y012377D01*
X038852Y012454D01*
X038622Y012454D01*
X039082Y012377D02*
X039082Y012301D01*
X039159Y012224D01*
X039313Y012224D01*
X039389Y012147D01*
X039389Y012070D01*
X039313Y011994D01*
X039159Y011994D01*
X039082Y012070D01*
X039082Y012377D02*
X039159Y012454D01*
X039313Y012454D01*
X039389Y012377D01*
X039543Y012454D02*
X039850Y012454D01*
X039696Y012454D02*
X039696Y011994D01*
X040003Y012070D02*
X040003Y012377D01*
X040080Y012454D01*
X040233Y012454D01*
X040310Y012377D01*
X040310Y012070D01*
X040233Y011994D01*
X040080Y011994D01*
X040003Y012070D01*
X040464Y011994D02*
X040464Y012454D01*
X040694Y012454D01*
X040770Y012377D01*
X040770Y012224D01*
X040694Y012147D01*
X040464Y012147D01*
X041384Y012147D02*
X041691Y012147D01*
X041691Y012301D02*
X041614Y012301D01*
X041384Y012301D01*
X041461Y012454D02*
X041461Y011994D01*
X041614Y011994D02*
X041614Y012454D01*
X041845Y012377D02*
X041921Y012454D01*
X042075Y012454D01*
X042151Y012377D01*
X042151Y012301D01*
X042075Y012224D01*
X042151Y012147D01*
X042151Y012070D01*
X042075Y011994D01*
X041921Y011994D01*
X041845Y012070D01*
X041998Y012224D02*
X042075Y012224D01*
X038008Y012454D02*
X037701Y012454D01*
X037701Y012224D02*
X037855Y012224D01*
X037701Y025494D02*
X038008Y025494D01*
X038162Y025494D02*
X038162Y025954D01*
X038469Y025494D01*
X038469Y025954D01*
X038622Y025954D02*
X038852Y025954D01*
X038929Y025877D01*
X038929Y025570D01*
X038852Y025494D01*
X038622Y025494D01*
X038622Y025954D01*
X039082Y025877D02*
X039082Y025801D01*
X039159Y025724D01*
X039313Y025724D01*
X039389Y025647D01*
X039389Y025570D01*
X039313Y025494D01*
X039159Y025494D01*
X039082Y025570D01*
X039082Y025877D02*
X039159Y025954D01*
X039313Y025954D01*
X039389Y025877D01*
X039543Y025954D02*
X039850Y025954D01*
X039696Y025954D02*
X039696Y025494D01*
X040003Y025570D02*
X040080Y025494D01*
X040233Y025494D01*
X040310Y025570D01*
X040310Y025877D01*
X040233Y025954D01*
X040080Y025954D01*
X040003Y025877D01*
X040003Y025570D01*
X040464Y025494D02*
X040464Y025954D01*
X040694Y025954D01*
X040770Y025877D01*
X040770Y025724D01*
X040694Y025647D01*
X040464Y025647D01*
X041384Y025647D02*
X041691Y025647D01*
X041691Y025801D02*
X041614Y025801D01*
X041384Y025801D01*
X041461Y025954D02*
X041461Y025494D01*
X041614Y025494D02*
X041614Y025954D01*
X041845Y025801D02*
X041998Y025954D01*
X041998Y025494D01*
X041845Y025494D02*
X042151Y025494D01*
X038008Y025954D02*
X037701Y025954D01*
X037701Y025494D01*
X037701Y025724D02*
X037855Y025724D01*
D12*
X040696Y023859D02*
X040820Y023859D01*
X040758Y023859D02*
X040758Y023489D01*
X040696Y023489D02*
X040820Y023489D01*
X040942Y023489D02*
X040942Y023859D01*
X041189Y023489D01*
X041189Y023859D01*
X041250Y022359D02*
X041126Y022359D01*
X041065Y022297D01*
X040943Y022174D02*
X040696Y022174D01*
X040820Y022297D02*
X040820Y022050D01*
X041065Y021989D02*
X041312Y022236D01*
X041312Y022297D01*
X041250Y022359D01*
X041433Y022174D02*
X041680Y022174D01*
X041801Y022112D02*
X041925Y021989D01*
X042048Y022112D01*
X042048Y022359D01*
X041801Y022359D02*
X041801Y022112D01*
X041618Y021989D02*
X041618Y022359D01*
X041433Y022174D01*
X041312Y021989D02*
X041065Y021989D01*
X041065Y020859D02*
X041312Y020489D01*
X041312Y020859D01*
X041433Y020859D02*
X041618Y020859D01*
X041680Y020797D01*
X041680Y020550D01*
X041618Y020489D01*
X041433Y020489D01*
X041433Y020859D01*
X041065Y020859D02*
X041065Y020489D01*
X040943Y020550D02*
X040943Y020674D01*
X040820Y020674D01*
X040943Y020797D02*
X040882Y020859D01*
X040758Y020859D01*
X040696Y020797D01*
X040696Y020550D01*
X040758Y020489D01*
X040882Y020489D01*
X040943Y020550D01*
X040942Y017359D02*
X041189Y016989D01*
X041189Y017359D01*
X040942Y017359D02*
X040942Y016989D01*
X040820Y016989D02*
X040696Y016989D01*
X040758Y016989D02*
X040758Y017359D01*
X040696Y017359D02*
X040820Y017359D01*
X041126Y015859D02*
X041065Y015797D01*
X041126Y015859D02*
X041250Y015859D01*
X041312Y015797D01*
X041312Y015736D01*
X041065Y015489D01*
X041312Y015489D01*
X041433Y015674D02*
X041680Y015674D01*
X041801Y015612D02*
X041925Y015489D01*
X042048Y015612D01*
X042048Y015859D01*
X041801Y015859D02*
X041801Y015612D01*
X041618Y015489D02*
X041618Y015859D01*
X041433Y015674D01*
X040943Y015674D02*
X040696Y015674D01*
X040820Y015797D02*
X040820Y015550D01*
X040758Y014359D02*
X040696Y014297D01*
X040696Y014050D01*
X040758Y013989D01*
X040882Y013989D01*
X040943Y014050D01*
X040943Y014174D01*
X040820Y014174D01*
X040943Y014297D02*
X040882Y014359D01*
X040758Y014359D01*
X041065Y014359D02*
X041312Y013989D01*
X041312Y014359D01*
X041433Y014359D02*
X041618Y014359D01*
X041680Y014297D01*
X041680Y014050D01*
X041618Y013989D01*
X041433Y013989D01*
X041433Y014359D01*
X041065Y014359D02*
X041065Y013989D01*
X040942Y010859D02*
X041189Y010489D01*
X041189Y010859D01*
X040942Y010859D02*
X040942Y010489D01*
X040820Y010489D02*
X040696Y010489D01*
X040758Y010489D02*
X040758Y010859D01*
X040696Y010859D02*
X040820Y010859D01*
X041126Y009359D02*
X041065Y009297D01*
X041126Y009359D02*
X041250Y009359D01*
X041312Y009297D01*
X041312Y009236D01*
X041065Y008989D01*
X041312Y008989D01*
X041433Y009174D02*
X041680Y009174D01*
X041801Y009112D02*
X041925Y008989D01*
X042048Y009112D01*
X042048Y009359D01*
X041801Y009359D02*
X041801Y009112D01*
X041618Y008989D02*
X041618Y009359D01*
X041433Y009174D01*
X040943Y009174D02*
X040696Y009174D01*
X040820Y009297D02*
X040820Y009050D01*
X040758Y007859D02*
X040696Y007797D01*
X040696Y007550D01*
X040758Y007489D01*
X040882Y007489D01*
X040943Y007550D01*
X040943Y007674D01*
X040820Y007674D01*
X040943Y007797D02*
X040882Y007859D01*
X040758Y007859D01*
X041065Y007859D02*
X041312Y007489D01*
X041312Y007859D01*
X041433Y007859D02*
X041618Y007859D01*
X041680Y007797D01*
X041680Y007550D01*
X041618Y007489D01*
X041433Y007489D01*
X041433Y007859D01*
X041065Y007859D02*
X041065Y007489D01*
X033258Y000859D02*
X033011Y000859D01*
X033011Y000489D01*
X033258Y000489D01*
X033135Y000674D02*
X033011Y000674D01*
X032890Y000612D02*
X032890Y000550D01*
X032828Y000489D01*
X032705Y000489D01*
X032643Y000550D01*
X032521Y000550D02*
X032521Y000797D01*
X032460Y000859D01*
X032336Y000859D01*
X032275Y000797D01*
X032275Y000550D01*
X032336Y000489D01*
X032460Y000489D01*
X032521Y000550D01*
X032705Y000674D02*
X032828Y000674D01*
X032890Y000612D01*
X032890Y000797D02*
X032828Y000859D01*
X032705Y000859D01*
X032643Y000797D01*
X032643Y000736D01*
X032705Y000674D01*
X032153Y000489D02*
X031906Y000489D01*
X031906Y000859D01*
X031785Y000797D02*
X031723Y000859D01*
X031600Y000859D01*
X031538Y000797D01*
X031538Y000550D01*
X031600Y000489D01*
X031723Y000489D01*
X031785Y000550D01*
X031416Y000859D02*
X031170Y000489D01*
X031048Y000489D02*
X031048Y000859D01*
X030801Y000859D02*
X030801Y000489D01*
X030680Y000489D02*
X030433Y000489D01*
X030433Y000859D01*
X030680Y000859D01*
X030801Y000859D02*
X031048Y000489D01*
X030556Y000674D02*
X030433Y000674D01*
X030312Y000674D02*
X030250Y000612D01*
X030065Y000612D01*
X030065Y000489D02*
X030065Y000859D01*
X030250Y000859D01*
X030312Y000797D01*
X030312Y000674D01*
X029943Y000797D02*
X029943Y000550D01*
X029882Y000489D01*
X029758Y000489D01*
X029696Y000550D01*
X029696Y000797D01*
X029758Y000859D01*
X029882Y000859D01*
X029943Y000797D01*
X021758Y000859D02*
X021511Y000859D01*
X021511Y000489D01*
X021758Y000489D01*
X021635Y000674D02*
X021511Y000674D01*
X021390Y000612D02*
X021390Y000550D01*
X021328Y000489D01*
X021205Y000489D01*
X021143Y000550D01*
X021021Y000550D02*
X021021Y000797D01*
X020960Y000859D01*
X020836Y000859D01*
X020775Y000797D01*
X020775Y000550D01*
X020836Y000489D01*
X020960Y000489D01*
X021021Y000550D01*
X021205Y000674D02*
X021328Y000674D01*
X021390Y000612D01*
X021390Y000797D02*
X021328Y000859D01*
X021205Y000859D01*
X021143Y000797D01*
X021143Y000736D01*
X021205Y000674D01*
X020653Y000489D02*
X020406Y000489D01*
X020406Y000859D01*
X020285Y000797D02*
X020223Y000859D01*
X020100Y000859D01*
X020038Y000797D01*
X020038Y000550D01*
X020100Y000489D01*
X020223Y000489D01*
X020285Y000550D01*
X019916Y000859D02*
X019670Y000489D01*
X019548Y000489D02*
X019548Y000859D01*
X019301Y000859D02*
X019548Y000489D01*
X019301Y000489D02*
X019301Y000859D01*
X019180Y000859D02*
X018933Y000859D01*
X018933Y000489D01*
X019180Y000489D01*
X019056Y000674D02*
X018933Y000674D01*
X018812Y000674D02*
X018750Y000612D01*
X018565Y000612D01*
X018565Y000489D02*
X018565Y000859D01*
X018750Y000859D01*
X018812Y000797D01*
X018812Y000674D01*
X018443Y000797D02*
X018382Y000859D01*
X018258Y000859D01*
X018196Y000797D01*
X018196Y000550D01*
X018258Y000489D01*
X018382Y000489D01*
X018443Y000550D01*
X018443Y000797D01*
X002680Y009050D02*
X002680Y009297D01*
X002618Y009359D01*
X002433Y009359D01*
X002433Y008989D01*
X002618Y008989D01*
X002680Y009050D01*
X002312Y008989D02*
X002312Y009359D01*
X002065Y009359D02*
X002065Y008989D01*
X001943Y009050D02*
X001943Y009174D01*
X001820Y009174D01*
X001943Y009297D02*
X001882Y009359D01*
X001758Y009359D01*
X001696Y009297D01*
X001696Y009050D01*
X001758Y008989D01*
X001882Y008989D01*
X001943Y009050D01*
X002065Y009359D02*
X002312Y008989D01*
D13*
X001512Y002474D02*
X001514Y002525D01*
X001520Y002576D01*
X001530Y002626D01*
X001543Y002676D01*
X001561Y002724D01*
X001581Y002771D01*
X001606Y002816D01*
X001634Y002859D01*
X001665Y002900D01*
X001699Y002938D01*
X001736Y002973D01*
X001775Y003006D01*
X001817Y003036D01*
X001861Y003062D01*
X001907Y003084D01*
X001955Y003104D01*
X002004Y003119D01*
X002054Y003131D01*
X002104Y003139D01*
X002155Y003143D01*
X002207Y003143D01*
X002258Y003139D01*
X002308Y003131D01*
X002358Y003119D01*
X002407Y003104D01*
X002455Y003084D01*
X002501Y003062D01*
X002545Y003036D01*
X002587Y003006D01*
X002626Y002973D01*
X002663Y002938D01*
X002697Y002900D01*
X002728Y002859D01*
X002756Y002816D01*
X002781Y002771D01*
X002801Y002724D01*
X002819Y002676D01*
X002832Y002626D01*
X002842Y002576D01*
X002848Y002525D01*
X002850Y002474D01*
X002848Y002423D01*
X002842Y002372D01*
X002832Y002322D01*
X002819Y002272D01*
X002801Y002224D01*
X002781Y002177D01*
X002756Y002132D01*
X002728Y002089D01*
X002697Y002048D01*
X002663Y002010D01*
X002626Y001975D01*
X002587Y001942D01*
X002545Y001912D01*
X002501Y001886D01*
X002455Y001864D01*
X002407Y001844D01*
X002358Y001829D01*
X002308Y001817D01*
X002258Y001809D01*
X002207Y001805D01*
X002155Y001805D01*
X002104Y001809D01*
X002054Y001817D01*
X002004Y001829D01*
X001955Y001844D01*
X001907Y001864D01*
X001861Y001886D01*
X001817Y001912D01*
X001775Y001942D01*
X001736Y001975D01*
X001699Y002010D01*
X001665Y002048D01*
X001634Y002089D01*
X001606Y002132D01*
X001581Y002177D01*
X001561Y002224D01*
X001543Y002272D01*
X001530Y002322D01*
X001520Y002372D01*
X001514Y002423D01*
X001512Y002474D01*
X001343Y005785D02*
X003784Y005785D01*
X003784Y008541D01*
X004099Y008541D01*
X004099Y005785D01*
X003784Y005785D01*
X001343Y005785D02*
X001343Y008541D01*
X003784Y008541D01*
X002431Y010974D02*
X001931Y010974D01*
X006670Y012344D02*
X006670Y013604D01*
X007693Y013604D02*
X007693Y012344D01*
X007788Y014580D02*
X007237Y014580D01*
X007237Y015367D01*
X007788Y015367D01*
X008063Y015249D02*
X008063Y014974D01*
X008300Y015210D01*
X008300Y014737D01*
X008063Y014974D01*
X008063Y014698D01*
X008575Y014580D02*
X009126Y014580D01*
X009126Y015367D01*
X008575Y015367D01*
X002431Y014974D02*
X001931Y014974D01*
X000843Y025285D02*
X003284Y025285D01*
X003284Y028041D01*
X003599Y028041D01*
X003599Y025285D01*
X003284Y025285D01*
X000843Y025285D02*
X000843Y028041D01*
X003284Y028041D01*
X001512Y030974D02*
X001514Y031025D01*
X001520Y031076D01*
X001530Y031126D01*
X001543Y031176D01*
X001561Y031224D01*
X001581Y031271D01*
X001606Y031316D01*
X001634Y031359D01*
X001665Y031400D01*
X001699Y031438D01*
X001736Y031473D01*
X001775Y031506D01*
X001817Y031536D01*
X001861Y031562D01*
X001907Y031584D01*
X001955Y031604D01*
X002004Y031619D01*
X002054Y031631D01*
X002104Y031639D01*
X002155Y031643D01*
X002207Y031643D01*
X002258Y031639D01*
X002308Y031631D01*
X002358Y031619D01*
X002407Y031604D01*
X002455Y031584D01*
X002501Y031562D01*
X002545Y031536D01*
X002587Y031506D01*
X002626Y031473D01*
X002663Y031438D01*
X002697Y031400D01*
X002728Y031359D01*
X002756Y031316D01*
X002781Y031271D01*
X002801Y031224D01*
X002819Y031176D01*
X002832Y031126D01*
X002842Y031076D01*
X002848Y031025D01*
X002850Y030974D01*
X002848Y030923D01*
X002842Y030872D01*
X002832Y030822D01*
X002819Y030772D01*
X002801Y030724D01*
X002781Y030677D01*
X002756Y030632D01*
X002728Y030589D01*
X002697Y030548D01*
X002663Y030510D01*
X002626Y030475D01*
X002587Y030442D01*
X002545Y030412D01*
X002501Y030386D01*
X002455Y030364D01*
X002407Y030344D01*
X002358Y030329D01*
X002308Y030317D01*
X002258Y030309D01*
X002207Y030305D01*
X002155Y030305D01*
X002104Y030309D01*
X002054Y030317D01*
X002004Y030329D01*
X001955Y030344D01*
X001907Y030364D01*
X001861Y030386D01*
X001817Y030412D01*
X001775Y030442D01*
X001736Y030475D01*
X001699Y030510D01*
X001665Y030548D01*
X001634Y030589D01*
X001606Y030632D01*
X001581Y030677D01*
X001561Y030724D01*
X001543Y030772D01*
X001530Y030822D01*
X001520Y030872D01*
X001514Y030923D01*
X001512Y030974D01*
X007567Y028682D02*
X007567Y028328D01*
X007567Y028682D02*
X008473Y029588D01*
X010796Y029588D01*
X010796Y028328D01*
X010796Y027619D02*
X010796Y026360D01*
X008473Y026360D01*
X007567Y027265D01*
X007567Y027619D01*
X012718Y027448D02*
X013207Y027947D01*
X014156Y027937D02*
X014625Y027438D01*
X014635Y026499D02*
X014146Y026020D01*
X013207Y026010D02*
X012708Y026499D01*
X018051Y025486D02*
X019311Y025486D01*
X019311Y024462D02*
X018051Y024462D01*
X021681Y022224D02*
X021931Y022474D01*
X022431Y022474D01*
X022681Y022224D01*
X022681Y020724D01*
X022931Y020474D01*
X023431Y020474D01*
X023681Y020724D01*
X023681Y022224D01*
X023931Y022474D01*
X024431Y022474D01*
X024681Y022224D01*
X024681Y020724D01*
X024431Y020474D01*
X023931Y020474D01*
X023681Y020724D01*
X022681Y020724D02*
X022431Y020474D01*
X021931Y020474D01*
X021681Y020724D01*
X021681Y022224D01*
X022681Y022224D02*
X022931Y022474D01*
X023431Y022474D01*
X023681Y022224D01*
X022431Y020342D02*
X021931Y020342D01*
X022551Y013486D02*
X023811Y013486D01*
X023811Y012462D02*
X022551Y012462D01*
X022581Y004474D02*
X023781Y004474D01*
X023781Y001474D01*
X022581Y001474D01*
X022581Y004474D01*
X022087Y003891D02*
X022087Y003576D01*
X017520Y003576D01*
X017520Y003891D01*
X022087Y003891D01*
X022087Y003576D02*
X022087Y001135D01*
X017520Y001135D01*
X017520Y003576D01*
X012181Y002724D02*
X012181Y002224D01*
X006181Y002224D02*
X006181Y002724D01*
X029020Y003576D02*
X029020Y001135D01*
X033587Y001135D01*
X033587Y003576D01*
X029020Y003576D01*
X029020Y003891D01*
X033587Y003891D01*
X033587Y003576D01*
X034081Y004474D02*
X035281Y004474D01*
X035281Y001474D01*
X034081Y001474D01*
X034081Y004474D01*
X037764Y006812D02*
X037764Y011379D01*
X038079Y011379D01*
X038079Y006812D01*
X037764Y006812D01*
X038079Y006812D02*
X040520Y006812D01*
X040520Y011379D01*
X038079Y011379D01*
X038079Y013312D02*
X038079Y017879D01*
X040520Y017879D01*
X040520Y013312D01*
X038079Y013312D01*
X037764Y013312D01*
X037764Y017879D01*
X038079Y017879D01*
X038079Y019812D02*
X038079Y024379D01*
X040520Y024379D01*
X040520Y019812D01*
X038079Y019812D01*
X037764Y019812D01*
X037764Y024379D01*
X038079Y024379D01*
X035748Y029556D02*
X032992Y029556D01*
X032992Y029871D01*
X035748Y029871D01*
X035748Y029556D01*
X035748Y029871D02*
X035748Y032312D01*
X032992Y032312D01*
X032992Y029871D01*
X032575Y030529D02*
X031788Y030529D01*
X031788Y031080D01*
X031945Y031356D02*
X032418Y031356D01*
X032181Y031592D01*
X031945Y031356D01*
X031906Y031592D02*
X032181Y031592D01*
X032457Y031592D01*
X032575Y031867D02*
X032575Y032419D01*
X031788Y032419D01*
X031788Y031867D01*
X031248Y032312D02*
X031248Y029871D01*
X028492Y029871D01*
X028492Y032312D01*
X031248Y032312D01*
X032575Y031080D02*
X032575Y030529D01*
X031248Y029871D02*
X031248Y029556D01*
X028492Y029556D01*
X028492Y029871D01*
X028075Y030529D02*
X028075Y031080D01*
X027918Y031356D02*
X027445Y031356D01*
X027681Y031592D01*
X027918Y031356D01*
X027957Y031592D02*
X027681Y031592D01*
X027406Y031592D01*
X027288Y031867D02*
X027288Y032419D01*
X028075Y032419D01*
X028075Y031867D01*
X027288Y031080D02*
X027288Y030529D01*
X028075Y030529D01*
X025748Y029871D02*
X025748Y032312D01*
X022992Y032312D01*
X022992Y029871D01*
X025748Y029871D01*
X025748Y029556D01*
X022992Y029556D01*
X022992Y029871D01*
X022575Y030529D02*
X022575Y031080D01*
X022418Y031356D02*
X021945Y031356D01*
X022181Y031592D01*
X022418Y031356D01*
X022457Y031592D02*
X022181Y031592D01*
X021906Y031592D01*
X021788Y031867D02*
X021788Y032419D01*
X022575Y032419D01*
X022575Y031867D01*
X021788Y031080D02*
X021788Y030529D01*
X022575Y030529D01*
X021248Y029871D02*
X021248Y029556D01*
X018492Y029556D01*
X018492Y029871D01*
X021248Y029871D01*
X021248Y032312D01*
X018492Y032312D01*
X018492Y029871D01*
X018075Y030529D02*
X018075Y031080D01*
X017918Y031356D02*
X017681Y031592D01*
X017445Y031356D01*
X017918Y031356D01*
X017957Y031592D02*
X017681Y031592D01*
X017406Y031592D01*
X017288Y031867D02*
X017288Y032419D01*
X018075Y032419D01*
X018075Y031867D01*
X017288Y031080D02*
X017288Y030529D01*
X018075Y030529D01*
X040012Y030974D02*
X040014Y031025D01*
X040020Y031076D01*
X040030Y031126D01*
X040043Y031176D01*
X040061Y031224D01*
X040081Y031271D01*
X040106Y031316D01*
X040134Y031359D01*
X040165Y031400D01*
X040199Y031438D01*
X040236Y031473D01*
X040275Y031506D01*
X040317Y031536D01*
X040361Y031562D01*
X040407Y031584D01*
X040455Y031604D01*
X040504Y031619D01*
X040554Y031631D01*
X040604Y031639D01*
X040655Y031643D01*
X040707Y031643D01*
X040758Y031639D01*
X040808Y031631D01*
X040858Y031619D01*
X040907Y031604D01*
X040955Y031584D01*
X041001Y031562D01*
X041045Y031536D01*
X041087Y031506D01*
X041126Y031473D01*
X041163Y031438D01*
X041197Y031400D01*
X041228Y031359D01*
X041256Y031316D01*
X041281Y031271D01*
X041301Y031224D01*
X041319Y031176D01*
X041332Y031126D01*
X041342Y031076D01*
X041348Y031025D01*
X041350Y030974D01*
X041348Y030923D01*
X041342Y030872D01*
X041332Y030822D01*
X041319Y030772D01*
X041301Y030724D01*
X041281Y030677D01*
X041256Y030632D01*
X041228Y030589D01*
X041197Y030548D01*
X041163Y030510D01*
X041126Y030475D01*
X041087Y030442D01*
X041045Y030412D01*
X041001Y030386D01*
X040955Y030364D01*
X040907Y030344D01*
X040858Y030329D01*
X040808Y030317D01*
X040758Y030309D01*
X040707Y030305D01*
X040655Y030305D01*
X040604Y030309D01*
X040554Y030317D01*
X040504Y030329D01*
X040455Y030344D01*
X040407Y030364D01*
X040361Y030386D01*
X040317Y030412D01*
X040275Y030442D01*
X040236Y030475D01*
X040199Y030510D01*
X040165Y030548D01*
X040134Y030589D01*
X040106Y030632D01*
X040081Y030677D01*
X040061Y030724D01*
X040043Y030772D01*
X040030Y030822D01*
X040020Y030872D01*
X040014Y030923D01*
X040012Y030974D01*
X040012Y002474D02*
X040014Y002525D01*
X040020Y002576D01*
X040030Y002626D01*
X040043Y002676D01*
X040061Y002724D01*
X040081Y002771D01*
X040106Y002816D01*
X040134Y002859D01*
X040165Y002900D01*
X040199Y002938D01*
X040236Y002973D01*
X040275Y003006D01*
X040317Y003036D01*
X040361Y003062D01*
X040407Y003084D01*
X040455Y003104D01*
X040504Y003119D01*
X040554Y003131D01*
X040604Y003139D01*
X040655Y003143D01*
X040707Y003143D01*
X040758Y003139D01*
X040808Y003131D01*
X040858Y003119D01*
X040907Y003104D01*
X040955Y003084D01*
X041001Y003062D01*
X041045Y003036D01*
X041087Y003006D01*
X041126Y002973D01*
X041163Y002938D01*
X041197Y002900D01*
X041228Y002859D01*
X041256Y002816D01*
X041281Y002771D01*
X041301Y002724D01*
X041319Y002676D01*
X041332Y002626D01*
X041342Y002576D01*
X041348Y002525D01*
X041350Y002474D01*
X041348Y002423D01*
X041342Y002372D01*
X041332Y002322D01*
X041319Y002272D01*
X041301Y002224D01*
X041281Y002177D01*
X041256Y002132D01*
X041228Y002089D01*
X041197Y002048D01*
X041163Y002010D01*
X041126Y001975D01*
X041087Y001942D01*
X041045Y001912D01*
X041001Y001886D01*
X040955Y001864D01*
X040907Y001844D01*
X040858Y001829D01*
X040808Y001817D01*
X040758Y001809D01*
X040707Y001805D01*
X040655Y001805D01*
X040604Y001809D01*
X040554Y001817D01*
X040504Y001829D01*
X040455Y001844D01*
X040407Y001864D01*
X040361Y001886D01*
X040317Y001912D01*
X040275Y001942D01*
X040236Y001975D01*
X040199Y002010D01*
X040165Y002048D01*
X040134Y002089D01*
X040106Y002132D01*
X040081Y002177D01*
X040061Y002224D01*
X040043Y002272D01*
X040030Y002322D01*
X040020Y002372D01*
X040014Y002423D01*
X040012Y002474D01*
D14*
X035131Y027974D03*
X029631Y027974D03*
X024131Y027974D03*
X018631Y027974D03*
D15*
X018006Y027974D03*
X020356Y027974D03*
X023506Y027974D03*
X025856Y027974D03*
X029006Y027974D03*
X031356Y027974D03*
X034506Y027974D03*
X036856Y027974D03*
D16*
X029031Y012465D02*
X029031Y012484D01*
X029031Y012483D02*
X029068Y012484D01*
X029105Y012489D01*
X029141Y012495D01*
X029176Y012505D01*
X029211Y012517D01*
X029245Y012532D01*
X029252Y012515D01*
X029253Y012515D01*
X029218Y012499D01*
X029182Y012487D01*
X029145Y012477D01*
X029108Y012470D01*
X029070Y012465D01*
X029031Y012464D01*
X029031Y012465D01*
X029070Y012466D01*
X029107Y012471D01*
X029145Y012478D01*
X029182Y012488D01*
X029218Y012500D01*
X029252Y012516D01*
X029252Y012517D01*
X029217Y012501D01*
X029181Y012489D01*
X029145Y012479D01*
X029107Y012472D01*
X029069Y012467D01*
X029031Y012466D01*
X029031Y012467D01*
X029069Y012468D01*
X029107Y012473D01*
X029144Y012480D01*
X029181Y012490D01*
X029217Y012502D01*
X029252Y012517D01*
X029251Y012518D01*
X029216Y012503D01*
X029181Y012491D01*
X029144Y012481D01*
X029107Y012474D01*
X029069Y012469D01*
X029031Y012468D01*
X029031Y012469D01*
X029069Y012470D01*
X029107Y012475D01*
X029144Y012482D01*
X029180Y012492D01*
X029216Y012504D01*
X029251Y012519D01*
X029250Y012520D01*
X029216Y012505D01*
X029180Y012493D01*
X029144Y012483D01*
X029107Y012476D01*
X029069Y012471D01*
X029031Y012470D01*
X029031Y012471D01*
X029069Y012472D01*
X029107Y012477D01*
X029143Y012484D01*
X029180Y012494D01*
X029215Y012506D01*
X029250Y012521D01*
X029249Y012522D01*
X029215Y012507D01*
X029180Y012494D01*
X029143Y012485D01*
X029106Y012478D01*
X029069Y012473D01*
X029031Y012472D01*
X029031Y012473D01*
X029069Y012474D01*
X029106Y012479D01*
X029143Y012486D01*
X029179Y012495D01*
X029215Y012508D01*
X029249Y012523D01*
X029249Y012524D01*
X029214Y012509D01*
X029179Y012496D01*
X029143Y012487D01*
X029106Y012480D01*
X029069Y012475D01*
X029031Y012474D01*
X029031Y012475D01*
X029069Y012476D01*
X029106Y012481D01*
X029143Y012488D01*
X029179Y012497D01*
X029214Y012510D01*
X029248Y012525D01*
X029248Y012526D01*
X029213Y012511D01*
X029178Y012498D01*
X029142Y012489D01*
X029106Y012482D01*
X029069Y012477D01*
X029031Y012476D01*
X029031Y012477D01*
X029069Y012478D01*
X029106Y012483D01*
X029142Y012490D01*
X029178Y012499D01*
X029213Y012512D01*
X029247Y012526D01*
X029247Y012527D01*
X029213Y012513D01*
X029178Y012500D01*
X029142Y012491D01*
X029105Y012484D01*
X029069Y012479D01*
X029031Y012478D01*
X029031Y012479D01*
X029069Y012480D01*
X029105Y012485D01*
X029142Y012492D01*
X029177Y012501D01*
X029212Y012513D01*
X029246Y012528D01*
X029246Y012529D01*
X029212Y012514D01*
X029177Y012502D01*
X029141Y012493D01*
X029105Y012486D01*
X029068Y012481D01*
X029031Y012480D01*
X029031Y012481D01*
X029068Y012482D01*
X029105Y012487D01*
X029141Y012493D01*
X029177Y012503D01*
X029212Y012515D01*
X029245Y012530D01*
X029245Y012531D01*
X029211Y012516D01*
X029177Y012504D01*
X029141Y012494D01*
X029105Y012488D01*
X029068Y012483D01*
X029031Y012482D01*
X029252Y013433D02*
X029244Y013416D01*
X029245Y013416D02*
X029211Y013431D01*
X029176Y013443D01*
X029141Y013453D01*
X029105Y013459D01*
X029068Y013464D01*
X029031Y013465D01*
X029031Y013483D01*
X029031Y013484D01*
X029070Y013483D01*
X029108Y013478D01*
X029145Y013471D01*
X029182Y013461D01*
X029218Y013449D01*
X029253Y013433D01*
X029252Y013432D01*
X029218Y013448D01*
X029182Y013460D01*
X029145Y013470D01*
X029107Y013477D01*
X029070Y013482D01*
X029031Y013483D01*
X029031Y013482D01*
X029069Y013481D01*
X029107Y013476D01*
X029145Y013469D01*
X029181Y013459D01*
X029217Y013447D01*
X029252Y013431D01*
X029217Y013446D01*
X029181Y013458D01*
X029144Y013468D01*
X029107Y013475D01*
X029069Y013480D01*
X029031Y013481D01*
X029031Y013480D01*
X029069Y013479D01*
X029107Y013474D01*
X029144Y013467D01*
X029181Y013457D01*
X029216Y013445D01*
X029251Y013430D01*
X029251Y013429D01*
X029216Y013444D01*
X029180Y013456D01*
X029144Y013466D01*
X029107Y013473D01*
X029069Y013478D01*
X029031Y013479D01*
X029031Y013478D01*
X029069Y013477D01*
X029107Y013472D01*
X029144Y013465D01*
X029180Y013455D01*
X029216Y013443D01*
X029250Y013428D01*
X029250Y013427D01*
X029215Y013442D01*
X029180Y013454D01*
X029143Y013464D01*
X029107Y013471D01*
X029069Y013476D01*
X029031Y013477D01*
X029031Y013476D01*
X029069Y013475D01*
X029106Y013470D01*
X029143Y013463D01*
X029180Y013454D01*
X029215Y013441D01*
X029249Y013426D01*
X029249Y013425D01*
X029215Y013440D01*
X029179Y013453D01*
X029143Y013462D01*
X029106Y013469D01*
X029069Y013474D01*
X029031Y013475D01*
X029031Y013474D01*
X029069Y013473D01*
X029106Y013468D01*
X029143Y013461D01*
X029179Y013452D01*
X029214Y013439D01*
X029249Y013424D01*
X029248Y013423D01*
X029214Y013438D01*
X029179Y013451D01*
X029143Y013460D01*
X029106Y013467D01*
X029069Y013472D01*
X029031Y013473D01*
X029031Y013472D01*
X029069Y013471D01*
X029106Y013466D01*
X029142Y013459D01*
X029178Y013450D01*
X029213Y013437D01*
X029248Y013422D01*
X029247Y013422D01*
X029213Y013436D01*
X029178Y013449D01*
X029142Y013458D01*
X029106Y013465D01*
X029069Y013470D01*
X029031Y013471D01*
X029031Y013470D01*
X029069Y013469D01*
X029105Y013464D01*
X029142Y013457D01*
X029178Y013448D01*
X029213Y013435D01*
X029247Y013421D01*
X029246Y013420D01*
X029212Y013435D01*
X029177Y013447D01*
X029142Y013456D01*
X029105Y013463D01*
X029069Y013468D01*
X029031Y013469D01*
X029031Y013468D01*
X029068Y013467D01*
X029105Y013462D01*
X029141Y013455D01*
X029177Y013446D01*
X029212Y013434D01*
X029246Y013419D01*
X029245Y013418D01*
X029212Y013433D01*
X029177Y013445D01*
X029141Y013455D01*
X029105Y013461D01*
X029068Y013466D01*
X029031Y013467D01*
X029031Y013466D01*
X029068Y013465D01*
X029105Y013460D01*
X029141Y013454D01*
X029177Y013444D01*
X029211Y013432D01*
X029245Y013417D01*
X029700Y013430D02*
X029684Y013419D01*
X029685Y013419D02*
X029652Y013464D01*
X029617Y013506D01*
X029578Y013545D01*
X029538Y013582D01*
X029494Y013615D01*
X029449Y013646D01*
X029401Y013673D01*
X029352Y013697D01*
X029301Y013718D01*
X029248Y013735D01*
X029195Y013748D01*
X029141Y013757D01*
X029086Y013763D01*
X029031Y013765D01*
X029031Y013783D01*
X029031Y013784D01*
X029088Y013782D01*
X029144Y013776D01*
X029199Y013766D01*
X029254Y013753D01*
X029307Y013735D01*
X029359Y013715D01*
X029410Y013690D01*
X029459Y013662D01*
X029505Y013631D01*
X029550Y013596D01*
X029592Y013559D01*
X029631Y013518D01*
X029667Y013475D01*
X029700Y013430D01*
X029700Y013429D01*
X029666Y013475D01*
X029630Y013518D01*
X029591Y013558D01*
X029549Y013595D01*
X029505Y013630D01*
X029458Y013661D01*
X029409Y013689D01*
X029359Y013714D01*
X029307Y013735D01*
X029253Y013752D01*
X029199Y013765D01*
X029143Y013775D01*
X029088Y013781D01*
X029031Y013783D01*
X029031Y013782D01*
X029088Y013780D01*
X029143Y013774D01*
X029199Y013764D01*
X029253Y013751D01*
X029306Y013734D01*
X029358Y013713D01*
X029409Y013688D01*
X029458Y013660D01*
X029504Y013629D01*
X029548Y013595D01*
X029590Y013557D01*
X029629Y013517D01*
X029666Y013474D01*
X029699Y013429D01*
X029698Y013428D01*
X029665Y013474D01*
X029629Y013516D01*
X029590Y013556D01*
X029548Y013594D01*
X029504Y013628D01*
X029457Y013659D01*
X029408Y013687D01*
X029358Y013712D01*
X029306Y013733D01*
X029253Y013750D01*
X029198Y013763D01*
X029143Y013773D01*
X029087Y013779D01*
X029031Y013781D01*
X029031Y013780D01*
X029087Y013778D01*
X029143Y013772D01*
X029198Y013762D01*
X029252Y013749D01*
X029306Y013732D01*
X029358Y013711D01*
X029408Y013686D01*
X029456Y013659D01*
X029503Y013627D01*
X029547Y013593D01*
X029589Y013556D01*
X029628Y013516D01*
X029664Y013473D01*
X029697Y013428D01*
X029696Y013427D01*
X029663Y013472D01*
X029627Y013515D01*
X029588Y013555D01*
X029547Y013592D01*
X029502Y013627D01*
X029456Y013658D01*
X029408Y013686D01*
X029357Y013710D01*
X029305Y013731D01*
X029252Y013748D01*
X029198Y013761D01*
X029143Y013771D01*
X029087Y013777D01*
X029031Y013779D01*
X029031Y013778D01*
X029087Y013776D01*
X029143Y013770D01*
X029198Y013761D01*
X029252Y013747D01*
X029305Y013730D01*
X029357Y013709D01*
X029407Y013685D01*
X029455Y013657D01*
X029502Y013626D01*
X029546Y013592D01*
X029587Y013554D01*
X029626Y013514D01*
X029662Y013472D01*
X029695Y013427D01*
X029695Y013426D01*
X029662Y013471D01*
X029626Y013514D01*
X029587Y013554D01*
X029545Y013591D01*
X029501Y013625D01*
X029455Y013656D01*
X029407Y013684D01*
X029356Y013708D01*
X029305Y013729D01*
X029252Y013746D01*
X029198Y013760D01*
X029143Y013769D01*
X029087Y013775D01*
X029031Y013777D01*
X029031Y013776D01*
X029087Y013774D01*
X029143Y013768D01*
X029197Y013759D01*
X029251Y013745D01*
X029304Y013728D01*
X029356Y013707D01*
X029406Y013683D01*
X029454Y013655D01*
X029501Y013624D01*
X029545Y013590D01*
X029586Y013553D01*
X029625Y013513D01*
X029661Y013470D01*
X029694Y013426D01*
X029693Y013425D01*
X029660Y013470D01*
X029624Y013512D01*
X029585Y013552D01*
X029544Y013589D01*
X029500Y013623D01*
X029454Y013654D01*
X029406Y013682D01*
X029356Y013706D01*
X029304Y013727D01*
X029251Y013744D01*
X029197Y013758D01*
X029142Y013767D01*
X029087Y013773D01*
X029031Y013775D01*
X029031Y013774D01*
X029087Y013772D01*
X029142Y013766D01*
X029197Y013757D01*
X029251Y013743D01*
X029304Y013726D01*
X029355Y013705D01*
X029405Y013681D01*
X029453Y013653D01*
X029499Y013622D01*
X029543Y013588D01*
X029585Y013551D01*
X029623Y013512D01*
X029659Y013469D01*
X029692Y013424D01*
X029691Y013424D01*
X029659Y013469D01*
X029623Y013511D01*
X029584Y013551D01*
X029543Y013588D01*
X029499Y013622D01*
X029453Y013653D01*
X029405Y013680D01*
X029355Y013704D01*
X029303Y013725D01*
X029251Y013742D01*
X029197Y013756D01*
X029142Y013765D01*
X029087Y013771D01*
X029031Y013773D01*
X029031Y013772D01*
X029087Y013770D01*
X029142Y013764D01*
X029197Y013755D01*
X029250Y013741D01*
X029303Y013724D01*
X029354Y013704D01*
X029404Y013679D01*
X029452Y013652D01*
X029498Y013621D01*
X029542Y013587D01*
X029583Y013550D01*
X029622Y013510D01*
X029658Y013468D01*
X029691Y013423D01*
X029690Y013423D01*
X029657Y013467D01*
X029621Y013510D01*
X029583Y013549D01*
X029541Y013586D01*
X029498Y013620D01*
X029452Y013651D01*
X029404Y013678D01*
X029354Y013703D01*
X029303Y013723D01*
X029250Y013740D01*
X029196Y013754D01*
X029142Y013763D01*
X029087Y013769D01*
X029031Y013771D01*
X029031Y013770D01*
X029087Y013768D01*
X029142Y013762D01*
X029196Y013753D01*
X029250Y013739D01*
X029302Y013722D01*
X029354Y013702D01*
X029403Y013678D01*
X029451Y013650D01*
X029497Y013619D01*
X029541Y013585D01*
X029582Y013549D01*
X029620Y013509D01*
X029656Y013467D01*
X029689Y013422D01*
X029688Y013422D01*
X029655Y013466D01*
X029620Y013508D01*
X029581Y013548D01*
X029540Y013585D01*
X029497Y013618D01*
X029451Y013649D01*
X029403Y013677D01*
X029353Y013701D01*
X029302Y013721D01*
X029249Y013738D01*
X029196Y013752D01*
X029142Y013761D01*
X029087Y013767D01*
X029031Y013769D01*
X029031Y013768D01*
X029087Y013766D01*
X029141Y013760D01*
X029196Y013751D01*
X029249Y013737D01*
X029302Y013720D01*
X029353Y013700D01*
X029402Y013676D01*
X029450Y013648D01*
X029496Y013618D01*
X029539Y013584D01*
X029581Y013547D01*
X029619Y013508D01*
X029655Y013465D01*
X029687Y013421D01*
X029686Y013420D01*
X029654Y013465D01*
X029618Y013507D01*
X029580Y013546D01*
X029539Y013583D01*
X029495Y013617D01*
X029450Y013647D01*
X029402Y013675D01*
X029352Y013699D01*
X029301Y013720D01*
X029249Y013736D01*
X029195Y013750D01*
X029141Y013759D01*
X029087Y013765D01*
X029031Y013767D01*
X029031Y013766D01*
X029086Y013764D01*
X029141Y013758D01*
X029195Y013749D01*
X029249Y013736D01*
X029301Y013719D01*
X029352Y013698D01*
X029401Y013674D01*
X029449Y013647D01*
X029495Y013616D01*
X029538Y013582D01*
X029579Y013546D01*
X029618Y013506D01*
X029653Y013464D01*
X029686Y013420D01*
X029031Y012165D02*
X029031Y012184D01*
X029032Y012183D02*
X029086Y012185D01*
X029141Y012191D01*
X029195Y012200D01*
X029248Y012213D01*
X029301Y012230D01*
X029352Y012251D01*
X029401Y012275D01*
X029449Y012302D01*
X029494Y012333D01*
X029538Y012366D01*
X029579Y012403D01*
X029617Y012442D01*
X029652Y012484D01*
X029685Y012529D01*
X029700Y012518D01*
X029667Y012473D01*
X029631Y012430D01*
X029592Y012389D01*
X029550Y012352D01*
X029505Y012317D01*
X029459Y012286D01*
X029410Y012258D01*
X029359Y012234D01*
X029307Y012213D01*
X029254Y012195D01*
X029199Y012182D01*
X029144Y012172D01*
X029088Y012166D01*
X029032Y012164D01*
X029032Y012165D01*
X029088Y012167D01*
X029144Y012173D01*
X029199Y012183D01*
X029253Y012196D01*
X029307Y012213D01*
X029359Y012234D01*
X029409Y012259D01*
X029458Y012287D01*
X029505Y012318D01*
X029549Y012353D01*
X029591Y012390D01*
X029630Y012430D01*
X029666Y012473D01*
X029700Y012519D01*
X029699Y012519D01*
X029666Y012474D01*
X029629Y012431D01*
X029590Y012391D01*
X029548Y012353D01*
X029504Y012319D01*
X029458Y012288D01*
X029409Y012260D01*
X029358Y012235D01*
X029306Y012214D01*
X029253Y012197D01*
X029199Y012184D01*
X029143Y012174D01*
X029088Y012168D01*
X029032Y012166D01*
X029032Y012167D01*
X029088Y012169D01*
X029143Y012175D01*
X029198Y012185D01*
X029253Y012198D01*
X029306Y012215D01*
X029358Y012236D01*
X029408Y012261D01*
X029457Y012289D01*
X029504Y012320D01*
X029548Y012354D01*
X029590Y012392D01*
X029629Y012432D01*
X029665Y012474D01*
X029698Y012520D01*
X029697Y012520D01*
X029664Y012475D01*
X029628Y012432D01*
X029589Y012392D01*
X029547Y012355D01*
X029503Y012321D01*
X029457Y012289D01*
X029408Y012262D01*
X029358Y012237D01*
X029306Y012216D01*
X029253Y012199D01*
X029198Y012186D01*
X029143Y012176D01*
X029087Y012170D01*
X029032Y012168D01*
X029032Y012169D01*
X029087Y012171D01*
X029143Y012177D01*
X029198Y012187D01*
X029252Y012200D01*
X029305Y012217D01*
X029357Y012238D01*
X029408Y012262D01*
X029456Y012290D01*
X029502Y012321D01*
X029547Y012356D01*
X029588Y012393D01*
X029627Y012433D01*
X029663Y012476D01*
X029696Y012521D01*
X029695Y012521D01*
X029662Y012476D01*
X029626Y012434D01*
X029588Y012394D01*
X029546Y012357D01*
X029502Y012322D01*
X029455Y012291D01*
X029407Y012263D01*
X029357Y012239D01*
X029305Y012218D01*
X029252Y012201D01*
X029198Y012187D01*
X029143Y012178D01*
X029087Y012172D01*
X029032Y012170D01*
X029032Y012171D01*
X029087Y012173D01*
X029143Y012179D01*
X029198Y012188D01*
X029252Y012202D01*
X029305Y012219D01*
X029356Y012240D01*
X029407Y012264D01*
X029455Y012292D01*
X029501Y012323D01*
X029545Y012357D01*
X029587Y012394D01*
X029626Y012434D01*
X029662Y012477D01*
X029695Y012522D01*
X029694Y012522D01*
X029661Y012478D01*
X029625Y012435D01*
X029586Y012395D01*
X029545Y012358D01*
X029501Y012324D01*
X029454Y012293D01*
X029406Y012265D01*
X029356Y012241D01*
X029304Y012220D01*
X029251Y012203D01*
X029197Y012189D01*
X029143Y012180D01*
X029087Y012174D01*
X029032Y012172D01*
X029032Y012173D01*
X029087Y012175D01*
X029142Y012181D01*
X029197Y012190D01*
X029251Y012204D01*
X029304Y012221D01*
X029356Y012242D01*
X029406Y012266D01*
X029454Y012294D01*
X029500Y012325D01*
X029544Y012359D01*
X029585Y012396D01*
X029624Y012436D01*
X029660Y012478D01*
X029693Y012523D01*
X029692Y012524D01*
X029659Y012479D01*
X029623Y012436D01*
X029585Y012397D01*
X029543Y012360D01*
X029499Y012326D01*
X029453Y012295D01*
X029405Y012267D01*
X029355Y012243D01*
X029304Y012222D01*
X029251Y012205D01*
X029197Y012191D01*
X029142Y012182D01*
X029087Y012176D01*
X029032Y012174D01*
X029032Y012175D01*
X029087Y012177D01*
X029142Y012183D01*
X029197Y012192D01*
X029251Y012206D01*
X029303Y012223D01*
X029355Y012244D01*
X029405Y012268D01*
X029453Y012295D01*
X029499Y012326D01*
X029543Y012360D01*
X029584Y012397D01*
X029623Y012437D01*
X029659Y012479D01*
X029691Y012524D01*
X029691Y012525D01*
X029658Y012480D01*
X029622Y012438D01*
X029583Y012398D01*
X029542Y012361D01*
X029498Y012327D01*
X029452Y012296D01*
X029404Y012269D01*
X029354Y012244D01*
X029303Y012224D01*
X029250Y012207D01*
X029197Y012193D01*
X029142Y012184D01*
X029087Y012178D01*
X029032Y012176D01*
X029032Y012177D01*
X029087Y012179D01*
X029142Y012185D01*
X029196Y012194D01*
X029250Y012208D01*
X029303Y012225D01*
X029354Y012245D01*
X029404Y012270D01*
X029452Y012297D01*
X029498Y012328D01*
X029541Y012362D01*
X029583Y012399D01*
X029621Y012438D01*
X029657Y012481D01*
X029690Y012525D01*
X029689Y012526D01*
X029656Y012481D01*
X029620Y012439D01*
X029582Y012399D01*
X029541Y012363D01*
X029497Y012329D01*
X029451Y012298D01*
X029403Y012270D01*
X029354Y012246D01*
X029302Y012226D01*
X029250Y012209D01*
X029196Y012195D01*
X029142Y012186D01*
X029087Y012180D01*
X029032Y012178D01*
X029032Y012179D01*
X029087Y012181D01*
X029142Y012187D01*
X029196Y012196D01*
X029250Y012210D01*
X029302Y012227D01*
X029353Y012247D01*
X029403Y012271D01*
X029451Y012299D01*
X029497Y012330D01*
X029540Y012363D01*
X029581Y012400D01*
X029620Y012440D01*
X029655Y012482D01*
X029688Y012526D01*
X029687Y012527D01*
X029655Y012483D01*
X029619Y012440D01*
X029581Y012401D01*
X029539Y012364D01*
X029496Y012330D01*
X029450Y012300D01*
X029402Y012272D01*
X029353Y012248D01*
X029302Y012228D01*
X029249Y012211D01*
X029196Y012197D01*
X029141Y012188D01*
X029087Y012182D01*
X029032Y012180D01*
X029032Y012181D01*
X029087Y012183D01*
X029141Y012189D01*
X029196Y012198D01*
X029249Y012212D01*
X029301Y012228D01*
X029352Y012249D01*
X029402Y012273D01*
X029450Y012301D01*
X029495Y012331D01*
X029539Y012365D01*
X029580Y012402D01*
X029618Y012441D01*
X029654Y012483D01*
X029686Y012528D01*
X029653Y012484D01*
X029618Y012442D01*
X029579Y012402D01*
X029538Y012366D01*
X029495Y012332D01*
X029449Y012301D01*
X029401Y012274D01*
X029352Y012250D01*
X029301Y012229D01*
X029249Y012213D01*
X029195Y012199D01*
X029141Y012190D01*
X029086Y012184D01*
X029032Y012182D01*
X026331Y013783D02*
X026331Y013764D01*
X026330Y013765D02*
X026276Y013763D01*
X026221Y013757D01*
X026167Y013748D01*
X026114Y013735D01*
X026061Y013718D01*
X026010Y013697D01*
X025961Y013673D01*
X025913Y013646D01*
X025868Y013615D01*
X025824Y013581D01*
X025783Y013545D01*
X025745Y013506D01*
X025710Y013464D01*
X025677Y013419D01*
X025662Y013430D01*
X025695Y013475D01*
X025731Y013518D01*
X025770Y013559D01*
X025812Y013596D01*
X025857Y013631D01*
X025903Y013662D01*
X025952Y013690D01*
X026003Y013714D01*
X026055Y013735D01*
X026108Y013753D01*
X026163Y013766D01*
X026218Y013776D01*
X026274Y013782D01*
X026330Y013784D01*
X026330Y013783D01*
X026274Y013781D01*
X026218Y013775D01*
X026163Y013765D01*
X026109Y013752D01*
X026055Y013735D01*
X026003Y013714D01*
X025953Y013689D01*
X025904Y013661D01*
X025857Y013630D01*
X025813Y013595D01*
X025771Y013558D01*
X025732Y013518D01*
X025696Y013475D01*
X025662Y013429D01*
X025663Y013429D01*
X025696Y013474D01*
X025733Y013517D01*
X025772Y013557D01*
X025814Y013595D01*
X025858Y013629D01*
X025904Y013660D01*
X025953Y013688D01*
X026004Y013713D01*
X026056Y013734D01*
X026109Y013751D01*
X026163Y013764D01*
X026219Y013774D01*
X026274Y013780D01*
X026330Y013782D01*
X026330Y013781D01*
X026274Y013779D01*
X026219Y013773D01*
X026164Y013763D01*
X026109Y013750D01*
X026056Y013733D01*
X026004Y013712D01*
X025954Y013687D01*
X025905Y013659D01*
X025858Y013628D01*
X025814Y013594D01*
X025772Y013556D01*
X025733Y013516D01*
X025697Y013473D01*
X025664Y013428D01*
X025665Y013428D01*
X025698Y013473D01*
X025734Y013516D01*
X025773Y013556D01*
X025815Y013593D01*
X025859Y013627D01*
X025905Y013659D01*
X025954Y013686D01*
X026004Y013711D01*
X026056Y013732D01*
X026109Y013749D01*
X026164Y013762D01*
X026219Y013772D01*
X026275Y013778D01*
X026330Y013780D01*
X026330Y013779D01*
X026275Y013777D01*
X026219Y013771D01*
X026164Y013761D01*
X026110Y013748D01*
X026057Y013731D01*
X026005Y013710D01*
X025954Y013686D01*
X025906Y013658D01*
X025860Y013627D01*
X025815Y013592D01*
X025774Y013555D01*
X025735Y013515D01*
X025699Y013472D01*
X025666Y013427D01*
X025667Y013427D01*
X025700Y013472D01*
X025736Y013514D01*
X025774Y013554D01*
X025816Y013591D01*
X025860Y013626D01*
X025907Y013657D01*
X025955Y013685D01*
X026005Y013709D01*
X026057Y013730D01*
X026110Y013747D01*
X026164Y013761D01*
X026219Y013770D01*
X026275Y013776D01*
X026330Y013778D01*
X026330Y013777D01*
X026275Y013775D01*
X026219Y013769D01*
X026164Y013760D01*
X026110Y013746D01*
X026057Y013729D01*
X026006Y013708D01*
X025955Y013684D01*
X025907Y013656D01*
X025861Y013625D01*
X025817Y013591D01*
X025775Y013554D01*
X025736Y013514D01*
X025700Y013471D01*
X025667Y013426D01*
X025668Y013426D01*
X025701Y013470D01*
X025737Y013513D01*
X025776Y013553D01*
X025817Y013590D01*
X025861Y013624D01*
X025908Y013655D01*
X025956Y013683D01*
X026006Y013707D01*
X026058Y013728D01*
X026111Y013745D01*
X026165Y013759D01*
X026219Y013768D01*
X026275Y013774D01*
X026330Y013776D01*
X026330Y013775D01*
X026275Y013773D01*
X026220Y013767D01*
X026165Y013758D01*
X026111Y013744D01*
X026058Y013727D01*
X026006Y013706D01*
X025956Y013682D01*
X025908Y013654D01*
X025862Y013623D01*
X025818Y013589D01*
X025777Y013552D01*
X025738Y013512D01*
X025702Y013470D01*
X025669Y013425D01*
X025670Y013424D01*
X025703Y013469D01*
X025739Y013512D01*
X025777Y013551D01*
X025819Y013588D01*
X025863Y013622D01*
X025909Y013653D01*
X025957Y013681D01*
X026007Y013705D01*
X026058Y013726D01*
X026111Y013743D01*
X026165Y013757D01*
X026220Y013766D01*
X026275Y013772D01*
X026330Y013774D01*
X026330Y013773D01*
X026275Y013771D01*
X026220Y013765D01*
X026165Y013756D01*
X026111Y013742D01*
X026059Y013725D01*
X026007Y013704D01*
X025957Y013680D01*
X025909Y013653D01*
X025863Y013622D01*
X025819Y013588D01*
X025778Y013551D01*
X025739Y013511D01*
X025703Y013469D01*
X025671Y013424D01*
X025671Y013423D01*
X025704Y013468D01*
X025740Y013510D01*
X025779Y013550D01*
X025820Y013587D01*
X025864Y013621D01*
X025910Y013652D01*
X025958Y013679D01*
X026008Y013704D01*
X026059Y013724D01*
X026112Y013741D01*
X026165Y013755D01*
X026220Y013764D01*
X026275Y013770D01*
X026330Y013772D01*
X026330Y013771D01*
X026275Y013769D01*
X026220Y013763D01*
X026166Y013754D01*
X026112Y013740D01*
X026059Y013723D01*
X026008Y013703D01*
X025958Y013678D01*
X025910Y013651D01*
X025864Y013620D01*
X025821Y013586D01*
X025779Y013549D01*
X025741Y013510D01*
X025705Y013467D01*
X025672Y013423D01*
X025673Y013422D01*
X025706Y013467D01*
X025741Y013509D01*
X025780Y013548D01*
X025821Y013585D01*
X025865Y013619D01*
X025911Y013650D01*
X025959Y013678D01*
X026008Y013702D01*
X026060Y013722D01*
X026112Y013739D01*
X026166Y013753D01*
X026220Y013762D01*
X026275Y013768D01*
X026330Y013770D01*
X026330Y013769D01*
X026275Y013767D01*
X026220Y013761D01*
X026166Y013752D01*
X026112Y013738D01*
X026060Y013721D01*
X026009Y013701D01*
X025959Y013677D01*
X025911Y013649D01*
X025865Y013618D01*
X025822Y013585D01*
X025781Y013548D01*
X025742Y013508D01*
X025707Y013466D01*
X025674Y013422D01*
X025675Y013421D01*
X025707Y013465D01*
X025743Y013508D01*
X025781Y013547D01*
X025822Y013584D01*
X025866Y013618D01*
X025912Y013648D01*
X025960Y013676D01*
X026009Y013700D01*
X026060Y013720D01*
X026113Y013737D01*
X026166Y013751D01*
X026221Y013760D01*
X026275Y013766D01*
X026330Y013768D01*
X026330Y013767D01*
X026275Y013765D01*
X026221Y013759D01*
X026166Y013750D01*
X026113Y013736D01*
X026061Y013719D01*
X026010Y013699D01*
X025960Y013675D01*
X025912Y013647D01*
X025867Y013617D01*
X025823Y013583D01*
X025782Y013546D01*
X025744Y013507D01*
X025708Y013465D01*
X025676Y013420D01*
X025709Y013464D01*
X025744Y013506D01*
X025783Y013546D01*
X025824Y013582D01*
X025867Y013616D01*
X025913Y013647D01*
X025961Y013674D01*
X026010Y013698D01*
X026061Y013719D01*
X026113Y013735D01*
X026167Y013749D01*
X026221Y013758D01*
X026276Y013764D01*
X026330Y013766D01*
X026110Y012515D02*
X026118Y012532D01*
X026117Y012532D02*
X026151Y012517D01*
X026186Y012505D01*
X026221Y012495D01*
X026257Y012489D01*
X026294Y012484D01*
X026331Y012483D01*
X026331Y012465D01*
X026331Y012464D01*
X026292Y012465D01*
X026254Y012470D01*
X026217Y012477D01*
X026180Y012487D01*
X026144Y012499D01*
X026109Y012515D01*
X026110Y012516D01*
X026144Y012500D01*
X026180Y012488D01*
X026217Y012478D01*
X026255Y012471D01*
X026292Y012466D01*
X026331Y012465D01*
X026331Y012466D01*
X026293Y012467D01*
X026255Y012472D01*
X026217Y012479D01*
X026181Y012489D01*
X026145Y012501D01*
X026110Y012517D01*
X026145Y012502D01*
X026181Y012490D01*
X026218Y012480D01*
X026255Y012473D01*
X026293Y012468D01*
X026331Y012467D01*
X026331Y012468D01*
X026293Y012469D01*
X026255Y012474D01*
X026218Y012481D01*
X026181Y012491D01*
X026146Y012503D01*
X026111Y012518D01*
X026111Y012519D01*
X026146Y012504D01*
X026182Y012492D01*
X026218Y012482D01*
X026255Y012475D01*
X026293Y012470D01*
X026331Y012469D01*
X026331Y012470D01*
X026293Y012471D01*
X026255Y012476D01*
X026218Y012483D01*
X026182Y012493D01*
X026146Y012505D01*
X026112Y012520D01*
X026112Y012521D01*
X026147Y012506D01*
X026182Y012494D01*
X026219Y012484D01*
X026255Y012477D01*
X026293Y012472D01*
X026331Y012471D01*
X026331Y012472D01*
X026293Y012473D01*
X026256Y012478D01*
X026219Y012485D01*
X026182Y012494D01*
X026147Y012507D01*
X026113Y012522D01*
X026113Y012523D01*
X026147Y012508D01*
X026183Y012495D01*
X026219Y012486D01*
X026256Y012479D01*
X026293Y012474D01*
X026331Y012473D01*
X026331Y012474D01*
X026293Y012475D01*
X026256Y012480D01*
X026219Y012487D01*
X026183Y012496D01*
X026148Y012509D01*
X026113Y012524D01*
X026114Y012525D01*
X026148Y012510D01*
X026183Y012497D01*
X026219Y012488D01*
X026256Y012481D01*
X026293Y012476D01*
X026331Y012475D01*
X026331Y012476D01*
X026293Y012477D01*
X026256Y012482D01*
X026220Y012489D01*
X026184Y012498D01*
X026149Y012511D01*
X026114Y012526D01*
X026115Y012526D01*
X026149Y012512D01*
X026184Y012499D01*
X026220Y012490D01*
X026256Y012483D01*
X026293Y012478D01*
X026331Y012477D01*
X026331Y012478D01*
X026293Y012479D01*
X026257Y012484D01*
X026220Y012491D01*
X026184Y012500D01*
X026149Y012513D01*
X026115Y012527D01*
X026116Y012528D01*
X026150Y012513D01*
X026185Y012501D01*
X026220Y012492D01*
X026257Y012485D01*
X026293Y012480D01*
X026331Y012479D01*
X026331Y012480D01*
X026294Y012481D01*
X026257Y012486D01*
X026221Y012493D01*
X026185Y012502D01*
X026150Y012514D01*
X026116Y012529D01*
X026117Y012530D01*
X026150Y012515D01*
X026185Y012503D01*
X026221Y012493D01*
X026257Y012487D01*
X026294Y012482D01*
X026331Y012481D01*
X026331Y012482D01*
X026294Y012483D01*
X026257Y012488D01*
X026221Y012494D01*
X026185Y012504D01*
X026151Y012516D01*
X026117Y012531D01*
X026331Y013483D02*
X026331Y013464D01*
X026331Y013465D02*
X026294Y013464D01*
X026257Y013459D01*
X026221Y013453D01*
X026186Y013443D01*
X026151Y013431D01*
X026117Y013416D01*
X026110Y013433D01*
X026109Y013433D01*
X026144Y013449D01*
X026180Y013461D01*
X026217Y013471D01*
X026254Y013478D01*
X026292Y013483D01*
X026331Y013484D01*
X026331Y013483D01*
X026292Y013482D01*
X026255Y013477D01*
X026217Y013470D01*
X026180Y013460D01*
X026144Y013448D01*
X026110Y013432D01*
X026110Y013431D01*
X026145Y013447D01*
X026181Y013459D01*
X026217Y013469D01*
X026255Y013476D01*
X026293Y013481D01*
X026331Y013482D01*
X026331Y013481D01*
X026293Y013480D01*
X026255Y013475D01*
X026218Y013468D01*
X026181Y013458D01*
X026145Y013446D01*
X026110Y013431D01*
X026111Y013430D01*
X026146Y013445D01*
X026181Y013457D01*
X026218Y013467D01*
X026255Y013474D01*
X026293Y013479D01*
X026331Y013480D01*
X026331Y013479D01*
X026293Y013478D01*
X026255Y013473D01*
X026218Y013466D01*
X026182Y013456D01*
X026146Y013444D01*
X026111Y013429D01*
X026112Y013428D01*
X026146Y013443D01*
X026182Y013455D01*
X026218Y013465D01*
X026255Y013472D01*
X026293Y013477D01*
X026331Y013478D01*
X026331Y013477D01*
X026293Y013476D01*
X026255Y013471D01*
X026219Y013464D01*
X026182Y013454D01*
X026147Y013442D01*
X026112Y013427D01*
X026113Y013426D01*
X026147Y013441D01*
X026182Y013454D01*
X026219Y013463D01*
X026256Y013470D01*
X026293Y013475D01*
X026331Y013476D01*
X026331Y013475D01*
X026293Y013474D01*
X026256Y013469D01*
X026219Y013462D01*
X026183Y013453D01*
X026147Y013440D01*
X026113Y013425D01*
X026113Y013424D01*
X026148Y013439D01*
X026183Y013452D01*
X026219Y013461D01*
X026256Y013468D01*
X026293Y013473D01*
X026331Y013474D01*
X026331Y013473D01*
X026293Y013472D01*
X026256Y013467D01*
X026219Y013460D01*
X026183Y013451D01*
X026148Y013438D01*
X026114Y013423D01*
X026114Y013422D01*
X026149Y013437D01*
X026184Y013450D01*
X026220Y013459D01*
X026256Y013466D01*
X026293Y013471D01*
X026331Y013472D01*
X026331Y013471D01*
X026293Y013470D01*
X026256Y013465D01*
X026220Y013458D01*
X026184Y013449D01*
X026149Y013436D01*
X026115Y013422D01*
X026115Y013421D01*
X026149Y013435D01*
X026184Y013448D01*
X026220Y013457D01*
X026257Y013464D01*
X026293Y013469D01*
X026331Y013470D01*
X026331Y013469D01*
X026293Y013468D01*
X026257Y013463D01*
X026220Y013456D01*
X026185Y013447D01*
X026150Y013435D01*
X026116Y013420D01*
X026116Y013419D01*
X026150Y013434D01*
X026185Y013446D01*
X026221Y013455D01*
X026257Y013462D01*
X026294Y013467D01*
X026331Y013468D01*
X026331Y013467D01*
X026294Y013466D01*
X026257Y013461D01*
X026221Y013455D01*
X026185Y013445D01*
X026150Y013433D01*
X026117Y013418D01*
X026117Y013417D01*
X026151Y013432D01*
X026185Y013444D01*
X026221Y013454D01*
X026257Y013460D01*
X026294Y013465D01*
X026331Y013466D01*
X025662Y012518D02*
X025678Y012529D01*
X025677Y012529D02*
X025710Y012484D01*
X025745Y012442D01*
X025784Y012403D01*
X025824Y012366D01*
X025868Y012333D01*
X025913Y012302D01*
X025961Y012275D01*
X026010Y012251D01*
X026061Y012230D01*
X026114Y012213D01*
X026167Y012200D01*
X026221Y012191D01*
X026276Y012185D01*
X026331Y012183D01*
X026331Y012165D01*
X026331Y012164D01*
X026274Y012166D01*
X026218Y012172D01*
X026163Y012182D01*
X026108Y012195D01*
X026055Y012213D01*
X026003Y012233D01*
X025952Y012258D01*
X025903Y012286D01*
X025857Y012317D01*
X025812Y012352D01*
X025770Y012389D01*
X025731Y012430D01*
X025695Y012473D01*
X025662Y012518D01*
X025662Y012519D01*
X025696Y012473D01*
X025732Y012430D01*
X025771Y012390D01*
X025813Y012353D01*
X025857Y012318D01*
X025904Y012287D01*
X025953Y012259D01*
X026003Y012234D01*
X026055Y012213D01*
X026109Y012196D01*
X026163Y012183D01*
X026219Y012173D01*
X026274Y012167D01*
X026331Y012165D01*
X026331Y012166D01*
X026274Y012168D01*
X026219Y012174D01*
X026163Y012184D01*
X026109Y012197D01*
X026056Y012214D01*
X026004Y012235D01*
X025953Y012260D01*
X025904Y012288D01*
X025858Y012319D01*
X025814Y012353D01*
X025772Y012391D01*
X025733Y012431D01*
X025696Y012474D01*
X025663Y012519D01*
X025664Y012520D01*
X025697Y012474D01*
X025733Y012432D01*
X025772Y012392D01*
X025814Y012354D01*
X025858Y012320D01*
X025905Y012289D01*
X025954Y012261D01*
X026004Y012236D01*
X026056Y012215D01*
X026109Y012198D01*
X026164Y012185D01*
X026219Y012175D01*
X026275Y012169D01*
X026331Y012167D01*
X026331Y012168D01*
X026275Y012170D01*
X026219Y012176D01*
X026164Y012186D01*
X026110Y012199D01*
X026056Y012216D01*
X026004Y012237D01*
X025954Y012262D01*
X025906Y012289D01*
X025859Y012321D01*
X025815Y012355D01*
X025773Y012392D01*
X025734Y012432D01*
X025698Y012475D01*
X025665Y012520D01*
X025666Y012521D01*
X025699Y012476D01*
X025735Y012433D01*
X025774Y012393D01*
X025815Y012356D01*
X025860Y012321D01*
X025906Y012290D01*
X025954Y012262D01*
X026005Y012238D01*
X026057Y012217D01*
X026110Y012200D01*
X026164Y012187D01*
X026219Y012177D01*
X026275Y012171D01*
X026331Y012169D01*
X026331Y012170D01*
X026275Y012172D01*
X026219Y012178D01*
X026164Y012187D01*
X026110Y012201D01*
X026057Y012218D01*
X026005Y012239D01*
X025955Y012263D01*
X025907Y012291D01*
X025860Y012322D01*
X025816Y012356D01*
X025775Y012394D01*
X025736Y012434D01*
X025700Y012476D01*
X025667Y012521D01*
X025667Y012522D01*
X025700Y012477D01*
X025736Y012434D01*
X025775Y012394D01*
X025817Y012357D01*
X025861Y012323D01*
X025907Y012292D01*
X025955Y012264D01*
X026006Y012240D01*
X026057Y012219D01*
X026110Y012202D01*
X026164Y012188D01*
X026219Y012179D01*
X026275Y012173D01*
X026331Y012171D01*
X026331Y012172D01*
X026275Y012174D01*
X026219Y012180D01*
X026165Y012189D01*
X026111Y012203D01*
X026058Y012220D01*
X026006Y012241D01*
X025956Y012265D01*
X025908Y012293D01*
X025861Y012324D01*
X025817Y012358D01*
X025776Y012395D01*
X025737Y012435D01*
X025701Y012478D01*
X025668Y012522D01*
X025669Y012523D01*
X025702Y012478D01*
X025738Y012436D01*
X025777Y012396D01*
X025818Y012359D01*
X025862Y012325D01*
X025908Y012294D01*
X025956Y012266D01*
X026006Y012242D01*
X026058Y012221D01*
X026111Y012204D01*
X026165Y012190D01*
X026220Y012181D01*
X026275Y012175D01*
X026331Y012173D01*
X026331Y012174D01*
X026275Y012176D01*
X026220Y012182D01*
X026165Y012191D01*
X026111Y012205D01*
X026058Y012222D01*
X026007Y012243D01*
X025957Y012267D01*
X025909Y012295D01*
X025863Y012326D01*
X025819Y012360D01*
X025777Y012397D01*
X025739Y012436D01*
X025703Y012479D01*
X025670Y012524D01*
X025671Y012524D01*
X025703Y012479D01*
X025739Y012437D01*
X025778Y012397D01*
X025819Y012360D01*
X025863Y012326D01*
X025909Y012295D01*
X025957Y012268D01*
X026007Y012244D01*
X026059Y012223D01*
X026111Y012206D01*
X026165Y012192D01*
X026220Y012183D01*
X026275Y012177D01*
X026331Y012175D01*
X026331Y012176D01*
X026275Y012178D01*
X026220Y012184D01*
X026165Y012193D01*
X026112Y012207D01*
X026059Y012224D01*
X026008Y012244D01*
X025958Y012269D01*
X025910Y012296D01*
X025864Y012327D01*
X025820Y012361D01*
X025779Y012398D01*
X025740Y012438D01*
X025704Y012480D01*
X025671Y012525D01*
X025672Y012525D01*
X025705Y012481D01*
X025741Y012438D01*
X025779Y012399D01*
X025821Y012362D01*
X025864Y012328D01*
X025910Y012297D01*
X025958Y012270D01*
X026008Y012245D01*
X026059Y012225D01*
X026112Y012208D01*
X026166Y012194D01*
X026220Y012185D01*
X026275Y012179D01*
X026331Y012177D01*
X026331Y012178D01*
X026275Y012180D01*
X026220Y012186D01*
X026166Y012195D01*
X026112Y012209D01*
X026060Y012226D01*
X026008Y012246D01*
X025959Y012270D01*
X025911Y012298D01*
X025865Y012329D01*
X025821Y012363D01*
X025780Y012399D01*
X025742Y012439D01*
X025706Y012481D01*
X025673Y012526D01*
X025674Y012526D01*
X025707Y012482D01*
X025742Y012440D01*
X025781Y012400D01*
X025822Y012363D01*
X025865Y012330D01*
X025911Y012299D01*
X025959Y012271D01*
X026009Y012247D01*
X026060Y012227D01*
X026113Y012210D01*
X026166Y012196D01*
X026220Y012187D01*
X026275Y012181D01*
X026331Y012179D01*
X026331Y012180D01*
X026275Y012182D01*
X026221Y012188D01*
X026166Y012197D01*
X026113Y012211D01*
X026060Y012228D01*
X026009Y012248D01*
X025960Y012272D01*
X025912Y012300D01*
X025866Y012330D01*
X025823Y012364D01*
X025781Y012401D01*
X025743Y012440D01*
X025707Y012483D01*
X025675Y012527D01*
X025676Y012528D01*
X025708Y012483D01*
X025744Y012441D01*
X025782Y012402D01*
X025823Y012365D01*
X025867Y012331D01*
X025912Y012301D01*
X025960Y012273D01*
X026010Y012249D01*
X026061Y012228D01*
X026113Y012212D01*
X026167Y012198D01*
X026221Y012189D01*
X026275Y012183D01*
X026331Y012181D01*
X026331Y012182D01*
X026276Y012184D01*
X026221Y012190D01*
X026167Y012199D01*
X026113Y012212D01*
X026061Y012229D01*
X026010Y012250D01*
X025961Y012274D01*
X025913Y012301D01*
X025867Y012332D01*
X025824Y012366D01*
X025783Y012402D01*
X025744Y012442D01*
X025709Y012484D01*
X025676Y012528D01*
D17*
X026331Y012474D02*
X029031Y012474D01*
X029031Y012174D02*
X026331Y012174D01*
X027281Y012974D02*
X027431Y012974D01*
X027931Y012974D02*
X028081Y012974D01*
X029031Y013474D02*
X026331Y013474D01*
X026331Y013774D02*
X029031Y013774D01*
X029681Y007844D02*
X031681Y007844D01*
X020181Y007844D02*
X018181Y007844D01*
D18*
X014131Y017374D02*
X013531Y017374D01*
X013406Y017669D02*
X013406Y017969D01*
X013406Y017819D02*
X012956Y017819D01*
X013106Y017669D01*
X012831Y017374D02*
X012531Y017374D01*
X011831Y017374D02*
X011531Y017374D01*
X010831Y017374D02*
X010531Y017374D01*
X009831Y017374D02*
X009531Y017374D01*
X008831Y017374D02*
X008531Y017374D01*
X007831Y017374D02*
X007531Y017374D01*
X006831Y017374D02*
X006531Y017374D01*
X005831Y017374D02*
X005531Y017374D01*
X004831Y017374D02*
X004531Y017374D01*
X003831Y017374D02*
X003531Y017374D01*
X002831Y017374D02*
X002531Y017374D01*
X002406Y017669D02*
X002406Y017969D01*
X002406Y017819D02*
X001956Y017819D01*
X002106Y017669D01*
X001831Y017374D02*
X001231Y017374D01*
X001231Y019474D01*
X001275Y019476D01*
X001318Y019482D01*
X001360Y019491D01*
X001402Y019504D01*
X001442Y019521D01*
X001481Y019541D01*
X001518Y019564D01*
X001552Y019591D01*
X001585Y019620D01*
X001614Y019653D01*
X001641Y019687D01*
X001664Y019724D01*
X001684Y019763D01*
X001701Y019803D01*
X001714Y019845D01*
X001723Y019887D01*
X001729Y019930D01*
X001731Y019974D01*
X001729Y020018D01*
X001723Y020061D01*
X001714Y020103D01*
X001701Y020145D01*
X001684Y020185D01*
X001664Y020224D01*
X001641Y020261D01*
X001614Y020295D01*
X001585Y020328D01*
X001552Y020357D01*
X001518Y020384D01*
X001481Y020407D01*
X001442Y020427D01*
X001402Y020444D01*
X001360Y020457D01*
X001318Y020466D01*
X001275Y020472D01*
X001231Y020474D01*
X001231Y022574D01*
X001831Y022574D01*
X002531Y022574D02*
X002831Y022574D01*
X002406Y022104D02*
X001956Y022104D01*
X002181Y021879D01*
X002181Y022179D01*
X002106Y021719D02*
X002031Y021719D01*
X001956Y021644D01*
X001956Y021494D01*
X002031Y021419D01*
X002106Y021719D02*
X002406Y021419D01*
X002406Y021719D01*
X003531Y022574D02*
X003831Y022574D01*
X004531Y022574D02*
X004831Y022574D01*
X005531Y022574D02*
X005831Y022574D01*
X006531Y022574D02*
X006831Y022574D01*
X007531Y022574D02*
X007831Y022574D01*
X008531Y022574D02*
X008831Y022574D01*
X009531Y022574D02*
X009831Y022574D01*
X010531Y022574D02*
X010831Y022574D01*
X011531Y022574D02*
X011831Y022574D01*
X012531Y022574D02*
X012831Y022574D01*
X013031Y022279D02*
X013106Y022279D01*
X013181Y022204D01*
X013256Y022279D01*
X013331Y022279D01*
X013406Y022204D01*
X013406Y022054D01*
X013331Y021979D01*
X013406Y021819D02*
X013406Y021519D01*
X013406Y021669D02*
X012956Y021669D01*
X013106Y021519D01*
X013031Y021979D02*
X012956Y022054D01*
X012956Y022204D01*
X013031Y022279D01*
X013181Y022204D02*
X013181Y022129D01*
X013531Y022574D02*
X014131Y022574D01*
X014131Y017374D01*
X013406Y018129D02*
X013106Y018429D01*
X013031Y018429D01*
X012956Y018354D01*
X012956Y018204D01*
X013031Y018129D01*
X013406Y018129D02*
X013406Y018429D01*
X020991Y024164D02*
X024371Y024164D01*
X024371Y025784D01*
X020991Y025784D01*
X020991Y024164D01*
D19*
X010730Y028341D02*
X010661Y028325D01*
X010662Y028325D02*
X010642Y028400D01*
X010619Y028473D01*
X010592Y028545D01*
X010561Y028615D01*
X010527Y028684D01*
X010490Y028751D01*
X010449Y028816D01*
X010405Y028879D01*
X010357Y028940D01*
X010307Y028998D01*
X010254Y029053D01*
X010198Y029106D01*
X010140Y029156D01*
X010079Y029203D01*
X010016Y029247D01*
X009951Y029287D01*
X009883Y029324D01*
X009814Y029358D01*
X009744Y029388D01*
X009672Y029415D01*
X009598Y029438D01*
X009524Y029457D01*
X009449Y029472D01*
X009373Y029484D01*
X009296Y029492D01*
X009219Y029496D01*
X009143Y029496D01*
X009066Y029492D01*
X008989Y029484D01*
X008913Y029472D01*
X008838Y029457D01*
X008764Y029438D01*
X008690Y029415D01*
X008618Y029388D01*
X008548Y029358D01*
X008479Y029324D01*
X008411Y029287D01*
X008346Y029247D01*
X008283Y029203D01*
X008222Y029156D01*
X008164Y029106D01*
X008108Y029053D01*
X008055Y028998D01*
X008005Y028940D01*
X007957Y028879D01*
X007913Y028816D01*
X007872Y028751D01*
X007835Y028684D01*
X007801Y028615D01*
X007770Y028545D01*
X007743Y028473D01*
X007720Y028400D01*
X007700Y028325D01*
X007632Y028341D01*
X007652Y028418D01*
X007676Y028493D01*
X007703Y028567D01*
X007735Y028639D01*
X007769Y028710D01*
X007808Y028779D01*
X007849Y028846D01*
X007894Y028911D01*
X007942Y028974D01*
X007993Y029034D01*
X008047Y029091D01*
X008104Y029146D01*
X008163Y029198D01*
X008225Y029247D01*
X008289Y029293D01*
X008356Y029335D01*
X008424Y029374D01*
X008494Y029410D01*
X008566Y029443D01*
X008640Y029471D01*
X008715Y029496D01*
X008791Y029517D01*
X008867Y029535D01*
X008945Y029548D01*
X009023Y029558D01*
X009102Y029564D01*
X009181Y029566D01*
X009260Y029564D01*
X009339Y029558D01*
X009417Y029548D01*
X009495Y029535D01*
X009571Y029517D01*
X009647Y029496D01*
X009722Y029471D01*
X009796Y029443D01*
X009868Y029410D01*
X009938Y029374D01*
X010006Y029335D01*
X010073Y029293D01*
X010137Y029247D01*
X010199Y029198D01*
X010258Y029146D01*
X010315Y029091D01*
X010369Y029034D01*
X010420Y028974D01*
X010468Y028911D01*
X010513Y028846D01*
X010554Y028779D01*
X010593Y028710D01*
X010627Y028639D01*
X010659Y028567D01*
X010686Y028493D01*
X010710Y028418D01*
X010730Y028341D01*
X010721Y028339D01*
X010701Y028415D01*
X010678Y028490D01*
X010650Y028563D01*
X010619Y028635D01*
X010585Y028706D01*
X010547Y028774D01*
X010505Y028841D01*
X010461Y028906D01*
X010413Y028968D01*
X010362Y029028D01*
X010309Y029085D01*
X010252Y029139D01*
X010193Y029191D01*
X010132Y029240D01*
X010068Y029285D01*
X010002Y029328D01*
X009934Y029367D01*
X009864Y029402D01*
X009792Y029434D01*
X009719Y029463D01*
X009645Y029488D01*
X009569Y029509D01*
X009493Y029526D01*
X009415Y029540D01*
X009338Y029549D01*
X009259Y029555D01*
X009181Y029557D01*
X009103Y029555D01*
X009024Y029549D01*
X008947Y029540D01*
X008869Y029526D01*
X008793Y029509D01*
X008717Y029488D01*
X008643Y029463D01*
X008570Y029434D01*
X008498Y029402D01*
X008428Y029367D01*
X008360Y029328D01*
X008294Y029285D01*
X008230Y029240D01*
X008169Y029191D01*
X008110Y029139D01*
X008053Y029085D01*
X008000Y029028D01*
X007949Y028968D01*
X007901Y028906D01*
X007857Y028841D01*
X007815Y028774D01*
X007777Y028706D01*
X007743Y028635D01*
X007712Y028563D01*
X007684Y028490D01*
X007661Y028415D01*
X007641Y028339D01*
X007649Y028337D01*
X007669Y028413D01*
X007693Y028487D01*
X007720Y028560D01*
X007751Y028632D01*
X007785Y028702D01*
X007823Y028770D01*
X007864Y028836D01*
X007908Y028900D01*
X007956Y028962D01*
X008006Y029022D01*
X008060Y029079D01*
X008116Y029133D01*
X008175Y029184D01*
X008236Y029233D01*
X008299Y029278D01*
X008365Y029320D01*
X008433Y029359D01*
X008502Y029394D01*
X008573Y029426D01*
X008646Y029454D01*
X008720Y029479D01*
X008795Y029500D01*
X008871Y029517D01*
X008948Y029531D01*
X009025Y029540D01*
X009103Y029546D01*
X009181Y029548D01*
X009259Y029546D01*
X009337Y029540D01*
X009414Y029531D01*
X009491Y029517D01*
X009567Y029500D01*
X009642Y029479D01*
X009716Y029454D01*
X009789Y029426D01*
X009860Y029394D01*
X009929Y029359D01*
X009997Y029320D01*
X010063Y029278D01*
X010126Y029233D01*
X010187Y029184D01*
X010246Y029133D01*
X010302Y029079D01*
X010356Y029022D01*
X010406Y028962D01*
X010454Y028900D01*
X010498Y028836D01*
X010539Y028770D01*
X010577Y028702D01*
X010611Y028632D01*
X010642Y028560D01*
X010669Y028487D01*
X010693Y028413D01*
X010713Y028337D01*
X010704Y028335D01*
X010684Y028410D01*
X010661Y028484D01*
X010633Y028557D01*
X010603Y028628D01*
X010569Y028698D01*
X010531Y028765D01*
X010490Y028831D01*
X010446Y028895D01*
X010399Y028957D01*
X010349Y029016D01*
X010296Y029072D01*
X010240Y029126D01*
X010182Y029177D01*
X010121Y029225D01*
X010058Y029270D01*
X009992Y029312D01*
X009925Y029351D01*
X009856Y029386D01*
X009785Y029418D01*
X009713Y029446D01*
X009639Y029470D01*
X009565Y029491D01*
X009489Y029508D01*
X009413Y029522D01*
X009336Y029531D01*
X009259Y029537D01*
X009181Y029539D01*
X009103Y029537D01*
X009026Y029531D01*
X008949Y029522D01*
X008873Y029508D01*
X008797Y029491D01*
X008723Y029470D01*
X008649Y029446D01*
X008577Y029418D01*
X008506Y029386D01*
X008437Y029351D01*
X008370Y029312D01*
X008304Y029270D01*
X008241Y029225D01*
X008180Y029177D01*
X008122Y029126D01*
X008066Y029072D01*
X008013Y029016D01*
X007963Y028957D01*
X007916Y028895D01*
X007872Y028831D01*
X007831Y028765D01*
X007793Y028698D01*
X007759Y028628D01*
X007729Y028557D01*
X007701Y028484D01*
X007678Y028410D01*
X007658Y028335D01*
X007667Y028333D01*
X007687Y028409D01*
X007711Y028484D01*
X007739Y028557D01*
X007770Y028629D01*
X007805Y028700D01*
X007843Y028768D01*
X007885Y028835D01*
X007930Y028899D01*
X007978Y028961D01*
X008030Y029021D01*
X008084Y029077D01*
X008141Y029131D01*
X008201Y029182D01*
X008263Y029230D01*
X008327Y029275D01*
X008394Y029316D01*
X008463Y029354D01*
X008534Y029389D01*
X008606Y029420D01*
X008679Y029447D01*
X008754Y029470D01*
X008831Y029490D01*
X008907Y029506D01*
X008985Y029518D01*
X009063Y029526D01*
X009142Y029530D01*
X009220Y029530D01*
X009299Y029526D01*
X009377Y029518D01*
X009455Y029506D01*
X009531Y029490D01*
X009608Y029470D01*
X009683Y029447D01*
X009756Y029420D01*
X009828Y029389D01*
X009899Y029354D01*
X009968Y029316D01*
X010035Y029275D01*
X010099Y029230D01*
X010161Y029182D01*
X010221Y029131D01*
X010278Y029077D01*
X010332Y029021D01*
X010384Y028961D01*
X010432Y028899D01*
X010477Y028835D01*
X010519Y028768D01*
X010557Y028700D01*
X010592Y028629D01*
X010623Y028557D01*
X010651Y028484D01*
X010675Y028409D01*
X010695Y028333D01*
X010686Y028331D01*
X010666Y028407D01*
X010643Y028481D01*
X010615Y028554D01*
X010584Y028626D01*
X010549Y028696D01*
X010511Y028764D01*
X010470Y028830D01*
X010425Y028894D01*
X010377Y028955D01*
X010326Y029015D01*
X010272Y029071D01*
X010215Y029125D01*
X010156Y029175D01*
X010094Y029223D01*
X010030Y029267D01*
X009963Y029309D01*
X009895Y029346D01*
X009825Y029381D01*
X009753Y029411D01*
X009680Y029438D01*
X009605Y029462D01*
X009529Y029481D01*
X009453Y029497D01*
X009376Y029509D01*
X009298Y029517D01*
X009220Y029521D01*
X009142Y029521D01*
X009064Y029517D01*
X008986Y029509D01*
X008909Y029497D01*
X008833Y029481D01*
X008757Y029462D01*
X008682Y029438D01*
X008609Y029411D01*
X008537Y029381D01*
X008467Y029346D01*
X008399Y029309D01*
X008332Y029267D01*
X008268Y029223D01*
X008206Y029175D01*
X008147Y029125D01*
X008090Y029071D01*
X008036Y029015D01*
X007985Y028955D01*
X007937Y028894D01*
X007892Y028830D01*
X007851Y028764D01*
X007813Y028696D01*
X007778Y028626D01*
X007747Y028554D01*
X007719Y028481D01*
X007696Y028407D01*
X007676Y028331D01*
X007685Y028329D01*
X007704Y028404D01*
X007728Y028478D01*
X007755Y028551D01*
X007786Y028622D01*
X007821Y028691D01*
X007859Y028759D01*
X007900Y028825D01*
X007944Y028889D01*
X007992Y028950D01*
X008043Y029009D01*
X008097Y029065D01*
X008153Y029118D01*
X008212Y029168D01*
X008274Y029216D01*
X008337Y029260D01*
X008403Y029301D01*
X008471Y029338D01*
X008541Y029373D01*
X008612Y029403D01*
X008685Y029430D01*
X008759Y029453D01*
X008835Y029472D01*
X008911Y029488D01*
X008987Y029500D01*
X009065Y029508D01*
X009142Y029512D01*
X009220Y029512D01*
X009297Y029508D01*
X009375Y029500D01*
X009451Y029488D01*
X009527Y029472D01*
X009603Y029453D01*
X009677Y029430D01*
X009750Y029403D01*
X009821Y029373D01*
X009891Y029338D01*
X009959Y029301D01*
X010025Y029260D01*
X010088Y029216D01*
X010150Y029168D01*
X010209Y029118D01*
X010265Y029065D01*
X010319Y029009D01*
X010370Y028950D01*
X010418Y028889D01*
X010462Y028825D01*
X010503Y028759D01*
X010541Y028691D01*
X010576Y028622D01*
X010607Y028551D01*
X010634Y028478D01*
X010658Y028404D01*
X010677Y028329D01*
X010669Y028327D01*
X010649Y028402D01*
X010626Y028475D01*
X010598Y028547D01*
X010568Y028618D01*
X010533Y028687D01*
X010496Y028755D01*
X010455Y028820D01*
X010410Y028883D01*
X010363Y028944D01*
X010312Y029002D01*
X010259Y029058D01*
X010203Y029111D01*
X010144Y029161D01*
X010083Y029209D01*
X010020Y029252D01*
X009954Y029293D01*
X009887Y029330D01*
X009817Y029364D01*
X009746Y029395D01*
X009674Y029421D01*
X009600Y029444D01*
X009525Y029464D01*
X009450Y029479D01*
X009373Y029491D01*
X009297Y029499D01*
X009220Y029503D01*
X009142Y029503D01*
X009065Y029499D01*
X008989Y029491D01*
X008912Y029479D01*
X008837Y029464D01*
X008762Y029444D01*
X008688Y029421D01*
X008616Y029395D01*
X008545Y029364D01*
X008475Y029330D01*
X008408Y029293D01*
X008342Y029252D01*
X008279Y029209D01*
X008218Y029161D01*
X008159Y029111D01*
X008103Y029058D01*
X008050Y029002D01*
X007999Y028944D01*
X007952Y028883D01*
X007907Y028820D01*
X007866Y028755D01*
X007829Y028687D01*
X007794Y028618D01*
X007764Y028547D01*
X007736Y028475D01*
X007713Y028402D01*
X007693Y028327D01*
X007632Y027607D02*
X007701Y027623D01*
X007700Y027623D02*
X007720Y027548D01*
X007743Y027475D01*
X007770Y027403D01*
X007801Y027333D01*
X007835Y027264D01*
X007872Y027197D01*
X007913Y027132D01*
X007957Y027069D01*
X008005Y027008D01*
X008055Y026950D01*
X008108Y026895D01*
X008164Y026842D01*
X008222Y026792D01*
X008283Y026745D01*
X008346Y026701D01*
X008411Y026661D01*
X008479Y026624D01*
X008548Y026590D01*
X008618Y026560D01*
X008690Y026533D01*
X008764Y026510D01*
X008838Y026491D01*
X008913Y026476D01*
X008989Y026464D01*
X009066Y026456D01*
X009143Y026452D01*
X009219Y026452D01*
X009296Y026456D01*
X009373Y026464D01*
X009449Y026476D01*
X009524Y026491D01*
X009598Y026510D01*
X009672Y026533D01*
X009744Y026560D01*
X009814Y026590D01*
X009883Y026624D01*
X009951Y026661D01*
X010016Y026701D01*
X010079Y026745D01*
X010140Y026792D01*
X010198Y026842D01*
X010254Y026895D01*
X010307Y026950D01*
X010357Y027008D01*
X010405Y027069D01*
X010449Y027132D01*
X010490Y027197D01*
X010527Y027264D01*
X010561Y027333D01*
X010592Y027403D01*
X010619Y027475D01*
X010642Y027548D01*
X010662Y027623D01*
X010730Y027607D01*
X010710Y027530D01*
X010686Y027455D01*
X010659Y027381D01*
X010627Y027309D01*
X010593Y027238D01*
X010554Y027169D01*
X010513Y027102D01*
X010468Y027037D01*
X010420Y026974D01*
X010369Y026914D01*
X010315Y026857D01*
X010258Y026802D01*
X010199Y026750D01*
X010137Y026701D01*
X010073Y026655D01*
X010006Y026613D01*
X009938Y026574D01*
X009868Y026538D01*
X009796Y026505D01*
X009722Y026477D01*
X009647Y026452D01*
X009571Y026431D01*
X009495Y026413D01*
X009417Y026400D01*
X009339Y026390D01*
X009260Y026384D01*
X009181Y026382D01*
X009102Y026384D01*
X009023Y026390D01*
X008945Y026400D01*
X008867Y026413D01*
X008791Y026431D01*
X008715Y026452D01*
X008640Y026477D01*
X008566Y026505D01*
X008494Y026538D01*
X008424Y026574D01*
X008356Y026613D01*
X008289Y026655D01*
X008225Y026701D01*
X008163Y026750D01*
X008104Y026802D01*
X008047Y026857D01*
X007993Y026914D01*
X007942Y026974D01*
X007894Y027037D01*
X007849Y027102D01*
X007808Y027169D01*
X007769Y027238D01*
X007735Y027309D01*
X007703Y027381D01*
X007676Y027455D01*
X007652Y027530D01*
X007632Y027607D01*
X007641Y027609D01*
X007661Y027533D01*
X007684Y027458D01*
X007712Y027385D01*
X007743Y027313D01*
X007777Y027242D01*
X007815Y027174D01*
X007857Y027107D01*
X007901Y027042D01*
X007949Y026980D01*
X008000Y026920D01*
X008053Y026863D01*
X008110Y026809D01*
X008169Y026757D01*
X008230Y026708D01*
X008294Y026663D01*
X008360Y026620D01*
X008428Y026581D01*
X008498Y026546D01*
X008570Y026514D01*
X008643Y026485D01*
X008717Y026460D01*
X008793Y026439D01*
X008869Y026422D01*
X008947Y026408D01*
X009024Y026399D01*
X009103Y026393D01*
X009181Y026391D01*
X009259Y026393D01*
X009338Y026399D01*
X009415Y026408D01*
X009493Y026422D01*
X009569Y026439D01*
X009645Y026460D01*
X009719Y026485D01*
X009792Y026514D01*
X009864Y026546D01*
X009934Y026581D01*
X010002Y026620D01*
X010068Y026663D01*
X010132Y026708D01*
X010193Y026757D01*
X010252Y026809D01*
X010309Y026863D01*
X010362Y026920D01*
X010413Y026980D01*
X010461Y027042D01*
X010505Y027107D01*
X010547Y027174D01*
X010585Y027242D01*
X010619Y027313D01*
X010650Y027385D01*
X010678Y027458D01*
X010701Y027533D01*
X010721Y027609D01*
X010713Y027611D01*
X010693Y027535D01*
X010669Y027461D01*
X010642Y027388D01*
X010611Y027316D01*
X010577Y027246D01*
X010539Y027178D01*
X010498Y027112D01*
X010454Y027048D01*
X010406Y026986D01*
X010356Y026926D01*
X010302Y026869D01*
X010246Y026815D01*
X010187Y026764D01*
X010126Y026715D01*
X010063Y026670D01*
X009997Y026628D01*
X009929Y026589D01*
X009860Y026554D01*
X009789Y026522D01*
X009716Y026494D01*
X009642Y026469D01*
X009567Y026448D01*
X009491Y026431D01*
X009414Y026417D01*
X009337Y026408D01*
X009259Y026402D01*
X009181Y026400D01*
X009103Y026402D01*
X009025Y026408D01*
X008948Y026417D01*
X008871Y026431D01*
X008795Y026448D01*
X008720Y026469D01*
X008646Y026494D01*
X008573Y026522D01*
X008502Y026554D01*
X008433Y026589D01*
X008365Y026628D01*
X008299Y026670D01*
X008236Y026715D01*
X008175Y026764D01*
X008116Y026815D01*
X008060Y026869D01*
X008006Y026926D01*
X007956Y026986D01*
X007908Y027048D01*
X007864Y027112D01*
X007823Y027178D01*
X007785Y027246D01*
X007751Y027316D01*
X007720Y027388D01*
X007693Y027461D01*
X007669Y027535D01*
X007649Y027611D01*
X007658Y027613D01*
X007678Y027538D01*
X007701Y027464D01*
X007729Y027391D01*
X007759Y027320D01*
X007793Y027250D01*
X007831Y027183D01*
X007872Y027117D01*
X007916Y027053D01*
X007963Y026991D01*
X008013Y026932D01*
X008066Y026876D01*
X008122Y026822D01*
X008180Y026771D01*
X008241Y026723D01*
X008304Y026678D01*
X008370Y026636D01*
X008437Y026597D01*
X008506Y026562D01*
X008577Y026530D01*
X008649Y026502D01*
X008723Y026478D01*
X008797Y026457D01*
X008873Y026440D01*
X008949Y026426D01*
X009026Y026417D01*
X009103Y026411D01*
X009181Y026409D01*
X009259Y026411D01*
X009336Y026417D01*
X009413Y026426D01*
X009489Y026440D01*
X009565Y026457D01*
X009639Y026478D01*
X009713Y026502D01*
X009785Y026530D01*
X009856Y026562D01*
X009925Y026597D01*
X009992Y026636D01*
X010058Y026678D01*
X010121Y026723D01*
X010182Y026771D01*
X010240Y026822D01*
X010296Y026876D01*
X010349Y026932D01*
X010399Y026991D01*
X010446Y027053D01*
X010490Y027117D01*
X010531Y027183D01*
X010569Y027250D01*
X010603Y027320D01*
X010633Y027391D01*
X010661Y027464D01*
X010684Y027538D01*
X010704Y027613D01*
X010695Y027615D01*
X010675Y027539D01*
X010651Y027464D01*
X010623Y027391D01*
X010592Y027319D01*
X010557Y027248D01*
X010519Y027180D01*
X010477Y027113D01*
X010432Y027049D01*
X010384Y026987D01*
X010332Y026927D01*
X010278Y026871D01*
X010221Y026817D01*
X010161Y026766D01*
X010099Y026718D01*
X010035Y026673D01*
X009968Y026632D01*
X009899Y026594D01*
X009828Y026559D01*
X009756Y026528D01*
X009683Y026501D01*
X009608Y026478D01*
X009531Y026458D01*
X009455Y026442D01*
X009377Y026430D01*
X009299Y026422D01*
X009220Y026418D01*
X009142Y026418D01*
X009063Y026422D01*
X008985Y026430D01*
X008907Y026442D01*
X008831Y026458D01*
X008754Y026478D01*
X008679Y026501D01*
X008606Y026528D01*
X008534Y026559D01*
X008463Y026594D01*
X008394Y026632D01*
X008327Y026673D01*
X008263Y026718D01*
X008201Y026766D01*
X008141Y026817D01*
X008084Y026871D01*
X008030Y026927D01*
X007978Y026987D01*
X007930Y027049D01*
X007885Y027113D01*
X007843Y027180D01*
X007805Y027248D01*
X007770Y027319D01*
X007739Y027391D01*
X007711Y027464D01*
X007687Y027539D01*
X007667Y027615D01*
X007676Y027617D01*
X007696Y027541D01*
X007719Y027467D01*
X007747Y027394D01*
X007778Y027322D01*
X007813Y027252D01*
X007851Y027184D01*
X007892Y027118D01*
X007937Y027054D01*
X007985Y026993D01*
X008036Y026933D01*
X008090Y026877D01*
X008147Y026823D01*
X008206Y026773D01*
X008268Y026725D01*
X008332Y026681D01*
X008399Y026639D01*
X008467Y026602D01*
X008537Y026567D01*
X008609Y026537D01*
X008682Y026510D01*
X008757Y026486D01*
X008833Y026467D01*
X008909Y026451D01*
X008986Y026439D01*
X009064Y026431D01*
X009142Y026427D01*
X009220Y026427D01*
X009298Y026431D01*
X009376Y026439D01*
X009453Y026451D01*
X009529Y026467D01*
X009605Y026486D01*
X009680Y026510D01*
X009753Y026537D01*
X009825Y026567D01*
X009895Y026602D01*
X009963Y026639D01*
X010030Y026681D01*
X010094Y026725D01*
X010156Y026773D01*
X010215Y026823D01*
X010272Y026877D01*
X010326Y026933D01*
X010377Y026993D01*
X010425Y027054D01*
X010470Y027118D01*
X010511Y027184D01*
X010549Y027252D01*
X010584Y027322D01*
X010615Y027394D01*
X010643Y027467D01*
X010666Y027541D01*
X010686Y027617D01*
X010677Y027619D01*
X010658Y027544D01*
X010634Y027470D01*
X010607Y027397D01*
X010576Y027326D01*
X010541Y027257D01*
X010503Y027189D01*
X010462Y027123D01*
X010418Y027059D01*
X010370Y026998D01*
X010319Y026939D01*
X010265Y026883D01*
X010209Y026830D01*
X010150Y026780D01*
X010088Y026732D01*
X010025Y026688D01*
X009959Y026647D01*
X009891Y026610D01*
X009821Y026575D01*
X009750Y026545D01*
X009677Y026518D01*
X009603Y026495D01*
X009527Y026476D01*
X009451Y026460D01*
X009375Y026448D01*
X009297Y026440D01*
X009220Y026436D01*
X009142Y026436D01*
X009065Y026440D01*
X008987Y026448D01*
X008911Y026460D01*
X008835Y026476D01*
X008759Y026495D01*
X008685Y026518D01*
X008612Y026545D01*
X008541Y026575D01*
X008471Y026610D01*
X008403Y026647D01*
X008337Y026688D01*
X008274Y026732D01*
X008212Y026780D01*
X008153Y026830D01*
X008097Y026883D01*
X008043Y026939D01*
X007992Y026998D01*
X007944Y027059D01*
X007900Y027123D01*
X007859Y027189D01*
X007821Y027257D01*
X007786Y027326D01*
X007755Y027397D01*
X007728Y027470D01*
X007704Y027544D01*
X007685Y027619D01*
X007693Y027621D01*
X007713Y027546D01*
X007736Y027473D01*
X007764Y027401D01*
X007794Y027330D01*
X007829Y027261D01*
X007866Y027193D01*
X007907Y027128D01*
X007952Y027065D01*
X007999Y027004D01*
X008050Y026946D01*
X008103Y026890D01*
X008159Y026837D01*
X008218Y026787D01*
X008279Y026739D01*
X008342Y026696D01*
X008408Y026655D01*
X008475Y026618D01*
X008545Y026584D01*
X008616Y026553D01*
X008688Y026527D01*
X008762Y026504D01*
X008837Y026484D01*
X008912Y026469D01*
X008989Y026457D01*
X009065Y026449D01*
X009142Y026445D01*
X009220Y026445D01*
X009297Y026449D01*
X009373Y026457D01*
X009450Y026469D01*
X009525Y026484D01*
X009600Y026504D01*
X009674Y026527D01*
X009746Y026553D01*
X009817Y026584D01*
X009887Y026618D01*
X009954Y026655D01*
X010020Y026696D01*
X010083Y026739D01*
X010144Y026787D01*
X010203Y026837D01*
X010259Y026890D01*
X010312Y026946D01*
X010363Y027004D01*
X010410Y027065D01*
X010455Y027128D01*
X010496Y027193D01*
X010533Y027261D01*
X010568Y027330D01*
X010598Y027401D01*
X010626Y027473D01*
X010649Y027546D01*
X010669Y027621D01*
D20*
X013035Y026974D02*
X013037Y026988D01*
X013043Y027002D01*
X013051Y027014D01*
X013063Y027022D01*
X013077Y027028D01*
X013091Y027030D01*
X013105Y027028D01*
X013119Y027022D01*
X013131Y027014D01*
X013139Y027002D01*
X013145Y026988D01*
X013147Y026974D01*
X013145Y026960D01*
X013139Y026946D01*
X013131Y026934D01*
X013119Y026926D01*
X013105Y026920D01*
X013091Y026918D01*
X013077Y026920D01*
X013063Y026926D01*
X013051Y026934D01*
X013043Y026946D01*
X013037Y026960D01*
X013035Y026974D01*
D21*
X023181Y024974D02*
X023431Y024974D01*
D22*
X007281Y024974D03*
D23*
X006556Y024974D03*
X010806Y024974D03*
D24*
X028181Y023844D03*
X028681Y023844D03*
X029181Y023844D03*
X029681Y023844D03*
X030181Y023844D03*
X030681Y023844D03*
X031181Y023844D03*
X031681Y023844D03*
X031681Y022104D03*
X031181Y022104D03*
X030681Y022104D03*
X030181Y022104D03*
X029681Y022104D03*
X029181Y022104D03*
X028681Y022104D03*
X028181Y022104D03*
D25*
X008681Y030974D03*
D26*
X008006Y030974D03*
X012356Y030974D03*
M02*
